Mistral_SingleLine.ufo
<glyph name="exclam" format="2">
  <advance width="217"/>
  <unicode hex="0021"/>
  <outline>
    <contour>
      <point x="105" y="73" type="move"/>
      <point x="99" y="48"/>
      <point x="90" y="12"/>
      <point x="80" y="-16" type="curve"/>
    </contour>
    <contour>
      <point x="120" y="149" type="move"/>
      <point x="145" y="250"/>
      <point x="187" y="475"/>
      <point x="187" y="551" type="curve" smooth="yes"/>
      <point x="187" y="577"/>
      <point x="183" y="586"/>
      <point x="180" y="586" type="curve" smooth="yes"/>
      <point x="173" y="586"/>
      <point x="156" y="543"/>
      <point x="156" y="475" type="curve"/>
    </contour>
  </outline>
</glyph>
<glyph name="quotedbl" format="2">
  <advance width="236"/>
  <unicode hex="0022"/>
  <outline>
    <contour>
      <point x="94" y="543" type="move"/>
      <point x="98" y="487"/>
      <point x="95" y="418"/>
      <point x="80" y="338" type="curve"/>
    </contour>
    <contour>
      <point x="194" y="543" type="move"/>
      <point x="198" y="487"/>
      <point x="195" y="418"/>
      <point x="180" y="338" type="curve"/>
    </contour>
  </outline>
</glyph>
<glyph name="numbersign" format="2">
  <advance width="456"/>
  <unicode hex="0023"/>
  <outline>
    <contour>
      <point x="223" y="380" type="move"/>
      <point x="190" y="202"/>
      <point x="123" y="52"/>
      <point x="102" y="-105" type="curve"/>
    </contour>
    <contour>
      <point x="367" y="380" type="move"/>
      <point x="335" y="202"/>
      <point x="267" y="52"/>
      <point x="246" y="-105" type="curve"/>
    </contour>
    <contour>
      <point x="45" y="56" type="move"/>
      <point x="126" y="71"/>
      <point x="292" y="89"/>
      <point x="389" y="98" type="curve"/>
    </contour>
    <contour>
      <point x="75" y="201" type="move"/>
      <point x="156" y="215"/>
      <point x="318" y="231"/>
      <point x="421" y="238" type="curve"/>
    </contour>
  </outline>
</glyph>
<glyph name="dollar" format="2">
  <advance width="339"/>
  <unicode hex="0024"/>
  <outline>
    <contour>
      <point x="222" y="433" type="move"/>
      <point x="204" y="267"/>
      <point x="168" y="34"/>
      <point x="144" y="-103" type="curve"/>
    </contour>
    <contour>
      <point x="188" y="319" type="move"/>
      <point x="255" y="326"/>
      <point x="309" y="343"/>
      <point x="309" y="360" type="curve" smooth="yes"/>
      <point x="309" y="364"/>
      <point x="305" y="366"/>
      <point x="296" y="366" type="curve" smooth="yes"/>
      <point x="291" y="366"/>
      <point x="285" y="365"/>
      <point x="276" y="363" type="curve" smooth="yes"/>
      <point x="178" y="341"/>
      <point x="77" y="288"/>
      <point x="77" y="231" type="curve" smooth="yes"/>
      <point x="77" y="196"/>
      <point x="113" y="170"/>
      <point x="154" y="144" type="curve" smooth="yes"/>
      <point x="205" y="111"/>
      <point x="256" y="88"/>
      <point x="256" y="60" type="curve" smooth="yes"/>
      <point x="256" y="11"/>
      <point x="99" y="-57"/>
      <point x="55" y="-57" type="curve" smooth="yes"/>
      <point x="45" y="-57"/>
      <point x="40" y="-54"/>
      <point x="40" y="-49" type="curve" smooth="yes"/>
      <point x="40" y="-34"/>
      <point x="84" y="-25"/>
      <point x="169" y="-12" type="curve" smooth="yes"/>
    </contour>
  </outline>
</glyph>
<glyph name="percent" format="2">
  <advance width="444"/>
  <unicode hex="0025"/>
  <outline>
    <contour>
      <point x="110" y="-33" type="move"/>
      <point x="173" y="90"/>
      <point x="248" y="203"/>
      <point x="320" y="360" type="curve"/>
    </contour>
    <contour>
      <point x="116" y="337" type="move"/>
      <point x="93" y="295"/>
      <point x="80" y="255"/>
      <point x="80" y="213" type="curve" smooth="yes"/>
      <point x="80" y="174"/>
      <point x="91" y="152"/>
      <point x="112" y="152" type="curve" smooth="yes"/>
      <point x="150" y="152"/>
      <point x="186" y="221"/>
      <point x="186" y="282" type="curve" smooth="yes"/>
      <point x="186" y="311"/>
      <point x="177" y="338"/>
      <point x="153" y="338" type="curve" smooth="yes"/>
      <point x="139" y="338"/>
      <point x="124" y="328"/>
      <point x="115" y="312" type="curve" smooth="yes"/>
    </contour>
    <contour>
      <point x="295" y="177" type="move"/>
      <point x="271" y="135"/>
      <point x="258" y="95"/>
      <point x="258" y="53" type="curve" smooth="yes"/>
      <point x="258" y="14"/>
      <point x="269" y="-8"/>
      <point x="291" y="-8" type="curve" smooth="yes"/>
      <point x="328" y="-8"/>
      <point x="364" y="62"/>
      <point x="364" y="122" type="curve" smooth="yes"/>
      <point x="364" y="151"/>
      <point x="356" y="179"/>
      <point x="332" y="179" type="curve" smooth="yes"/>
      <point x="317" y="179"/>
      <point x="303" y="169"/>
      <point x="293" y="153" type="curve" smooth="yes"/>
    </contour>
  </outline>
</glyph>
<glyph name="ampersand" format="2">
  <advance width="517"/>
  <unicode hex="0026"/>
  <outline>
    <contour>
      <point x="507" y="148" type="move"/>
      <point x="472" y="116"/>
      <point x="429" y="99"/>
      <point x="377" y="99" type="curve" smooth="yes"/>
      <point x="220" y="99"/>
      <point x="60" y="264"/>
      <point x="60" y="447" type="curve" smooth="yes"/>
      <point x="60" y="511"/>
      <point x="81" y="561"/>
      <point x="131" y="561" type="curve" smooth="yes"/>
      <point x="219" y="561"/>
      <point x="308" y="405"/>
      <point x="308" y="252" type="curve" smooth="yes"/>
      <point x="308" y="212"/>
      <point x="302" y="163"/>
      <point x="288" y="113" type="curve" smooth="yes"/>
      <point x="279" y="81"/>
      <point x="238" y="-9"/>
      <point x="213" y="-9" type="curve" smooth="yes"/>
      <point x="206" y="-9"/>
      <point x="204" y="-2"/>
      <point x="204" y="9" type="curve" smooth="yes"/>
      <point x="205" y="83"/>
      <point x="298" y="330"/>
      <point x="433" y="517" type="curve"/>
    </contour>
    <contour>
      <point x="428" y="519" type="move"/>
      <point x="359" y="444"/>
      <point x="305" y="379"/>
      <point x="244" y="297" type="curve" smooth="yes"/>
    </contour>
    <contour>
      <point x="433" y="517" type="move"/>
      <point x="428" y="519" type="line"/>
    </contour>
  </outline>
</glyph>
<glyph name="quotesingle" format="2">
  <advance width="136"/>
  <unicode hex="0027"/>
  <note>
quotesingle
</note>
  <outline>
    <contour>
      <point x="94" y="543" type="move"/>
      <point x="98" y="487"/>
      <point x="95" y="418"/>
      <point x="80" y="338" type="curve"/>
    </contour>
  </outline>
</glyph>
<glyph name="parenleft" format="2">
  <advance width="221"/>
  <unicode hex="0028"/>
  <outline>
    <contour>
      <point x="131" y="-142" type="move"/>
      <point x="87" y="-85"/>
      <point x="50" y="-11"/>
      <point x="50" y="110" type="curve" smooth="yes"/>
      <point x="50" y="226"/>
      <point x="95" y="353"/>
      <point x="191" y="526" type="curve"/>
    </contour>
  </outline>
</glyph>
<glyph name="parenright" format="2">
  <advance width="231"/>
  <unicode hex="0029"/>
  <outline>
    <contour>
      <point x="100" y="526" type="move"/>
      <point x="144" y="469"/>
      <point x="181" y="395"/>
      <point x="181" y="274" type="curve" smooth="yes"/>
      <point x="181" y="158"/>
      <point x="136" y="31"/>
      <point x="40" y="-142" type="curve"/>
    </contour>
  </outline>
</glyph>
<glyph name="asterisk" format="2">
  <advance width="305"/>
  <unicode hex="002A"/>
  <outline>
    <contour>
      <point x="52" y="341" type="move"/>
      <point x="114" y="371"/>
      <point x="215" y="436"/>
      <point x="265" y="492" type="curve"/>
    </contour>
    <contour>
      <point x="40" y="489" type="move"/>
      <point x="96" y="441"/>
      <point x="190" y="372"/>
      <point x="265" y="349" type="curve"/>
    </contour>
    <contour>
      <point x="157" y="540" type="move"/>
      <point x="160" y="484"/>
      <point x="156" y="427"/>
      <point x="156" y="376" type="curve" smooth="yes"/>
      <point x="156" y="328"/>
      <point x="158" y="283"/>
      <point x="168" y="273" type="curve"/>
    </contour>
  </outline>
</glyph>
<glyph name="plus" format="2">
  <advance width="401"/>
  <unicode hex="002B"/>
  <outline>
    <contour>
      <point x="195" y="-17" type="move"/>
      <point x="201" y="79"/>
      <point x="208" y="208"/>
      <point x="211" y="317" type="curve"/>
    </contour>
    <contour>
      <point x="351" y="154" type="move"/>
      <point x="254" y="157"/>
      <point x="146" y="151"/>
      <point x="50" y="144" type="curve"/>
    </contour>
  </outline>
</glyph>
<glyph name="comma" format="2">
  <advance width="143"/>
  <unicode hex="002C"/>
  <outline>
    <contour>
      <point x="82" y="122" type="move"/>
      <point x="97" y="116"/>
      <point x="108" y="99"/>
      <point x="108" y="78" type="curve" smooth="yes"/>
      <point x="108" y="47"/>
      <point x="84" y="-23"/>
      <point x="40" y="-93" type="curve"/>
    </contour>
  </outline>
</glyph>
<glyph name="hyphen" format="2">
  <advance width="311"/>
  <unicode hex="002D"/>
  <outline>
    <contour>
      <point x="70" y="145" type="move"/>
      <point x="136" y="141"/>
      <point x="187" y="144"/>
      <point x="241" y="151" type="curve"/>
    </contour>
  </outline>
</glyph>
<glyph name="period" format="2">
  <advance width="189"/>
  <unicode hex="002E"/>
  <outline>
    <contour>
      <point x="107" y="100" type="move"/>
      <point x="116" y="95"/>
      <point x="119" y="87"/>
      <point x="119" y="80" type="curve" smooth="yes"/>
      <point x="119" y="57"/>
      <point x="89" y="27"/>
      <point x="70" y="10" type="curve"/>
    </contour>
  </outline>
</glyph>
<glyph name="slash" format="2">
  <advance width="333"/>
  <unicode hex="002F"/>
  <note>
slash
</note>
  <outline>
    <contour>
      <point x="51" y="-115" type="move"/>
      <point x="50" y="-110"/>
      <point x="50" y="-107"/>
      <point x="50" y="-104" type="curve" smooth="yes"/>
      <point x="50" y="-18"/>
      <point x="253" y="246"/>
      <point x="353" y="480" type="curve" smooth="yes"/>
    </contour>
  </outline>
</glyph>
<glyph name="zero" format="2">
  <advance width="345"/>
  <unicode hex="0030"/>
  <outline>
    <contour>
      <point x="114" y="310" type="move"/>
      <point x="78" y="232"/>
      <point x="60" y="160"/>
      <point x="60" y="101" type="curve" smooth="yes"/>
      <point x="60" y="12"/>
      <point x="100" y="-24"/>
      <point x="145" y="-24" type="curve" smooth="yes"/>
      <point x="231" y="-24"/>
      <point x="305" y="108"/>
      <point x="305" y="220" type="curve" smooth="yes"/>
      <point x="305" y="295"/>
      <point x="270" y="340"/>
      <point x="217" y="340" type="curve" smooth="yes"/>
      <point x="185" y="340"/>
      <point x="150" y="321"/>
      <point x="118" y="284" type="curve"/>
    </contour>
  </outline>
</glyph>
<glyph name="one" format="2">
  <advance width="297"/>
  <unicode hex="0031"/>
  <outline>
    <contour>
      <point x="40" y="194" type="move"/>
      <point x="100" y="245"/>
      <point x="182" y="296"/>
      <point x="244" y="322" type="curve"/>
    </contour>
    <contour>
      <point x="244" y="322" type="move"/>
      <point x="247" y="319" type="line"/>
    </contour>
    <contour>
      <point x="247" y="319" type="move"/>
      <point x="235" y="212"/>
      <point x="209" y="97"/>
      <point x="165" y="-40" type="curve"/>
    </contour>
  </outline>
</glyph>
<glyph name="two" format="2">
  <advance width="346"/>
  <unicode hex="0032"/>
  <outline>
    <contour>
      <point x="68" y="234" type="move"/>
      <point x="63" y="249"/>
      <point x="61" y="260"/>
      <point x="61" y="270" type="curve" smooth="yes"/>
      <point x="61" y="312"/>
      <point x="96" y="328"/>
      <point x="144" y="328" type="curve" smooth="yes"/>
      <point x="198" y="328"/>
      <point x="281" y="309"/>
      <point x="281" y="251" type="curve" smooth="yes"/>
      <point x="281" y="171"/>
      <point x="124" y="43"/>
      <point x="50" y="-17" type="curve"/>
    </contour>
    <contour>
      <point x="50" y="-17" type="move"/>
      <point x="50" y="-21" type="line"/>
    </contour>
    <contour>
      <point x="50" y="-21" type="move"/>
      <point x="132" y="-37"/>
      <point x="228" y="-37"/>
      <point x="311" y="-24" type="curve"/>
    </contour>
  </outline>
</glyph>
<glyph name="three" format="2">
  <advance width="321"/>
  <unicode hex="0033"/>
  <outline>
    <contour>
      <point x="48" y="276" type="move"/>
      <point x="89" y="304"/>
      <point x="154" y="328"/>
      <point x="209" y="328" type="curve" smooth="yes"/>
      <point x="234" y="328"/>
      <point x="258" y="322"/>
      <point x="258" y="296" type="curve" smooth="yes"/>
      <point x="258" y="249"/>
      <point x="166" y="136"/>
      <point x="106" y="69" type="curve"/>
    </contour>
    <contour>
      <point x="106" y="69" type="move"/>
      <point x="158" y="59"/>
      <point x="271" y="24"/>
      <point x="271" y="-26" type="curve" smooth="yes"/>
      <point x="271" y="-72"/>
      <point x="189" y="-144"/>
      <point x="20" y="-167" type="curve"/>
    </contour>
  </outline>
</glyph>
<glyph name="four" format="2">
  <advance width="334"/>
  <unicode hex="0034"/>
  <outline>
    <contour>
      <point x="271" y="218" type="move"/>
      <point x="235" y="100"/>
      <point x="212" y="-24"/>
      <point x="192" y="-189" type="curve"/>
    </contour>
    <contour>
      <point x="172" y="351" type="move"/>
      <point x="129" y="289"/>
      <point x="50" y="105"/>
      <point x="50" y="29" type="curve" smooth="yes"/>
      <point x="50" y="-14"/>
      <point x="73" y="-20"/>
      <point x="106" y="-20" type="curve" smooth="yes"/>
      <point x="173" y="-20"/>
      <point x="278" y="10"/>
      <point x="309" y="21" type="curve" smooth="yes"/>
    </contour>
  </outline>
</glyph>
<glyph name="five" format="2">
  <advance width="332"/>
  <unicode hex="0035"/>
  <outline>
    <contour>
      <point x="315" y="326" type="move"/>
      <point x="256" y="323"/>
      <point x="180" y="323"/>
      <point x="123" y="326" type="curve"/>
      <point x="99" y="288"/>
      <point x="76" y="234"/>
      <point x="76" y="187" type="curve" smooth="yes"/>
      <point x="76" y="145"/>
      <point x="95" y="127"/>
      <point x="151" y="84" type="curve" smooth="yes"/>
      <point x="210" y="40"/>
      <point x="278" y="-11"/>
      <point x="278" y="-54" type="curve" smooth="yes"/>
      <point x="278" y="-97"/>
      <point x="207" y="-131"/>
      <point x="115" y="-131" type="curve" smooth="yes"/>
      <point x="90" y="-131"/>
      <point x="70" y="-129"/>
      <point x="50" y="-124" type="curve" smooth="yes"/>
    </contour>
  </outline>
</glyph>
<glyph name="six" format="2">
  <advance width="358"/>
  <unicode hex="0036"/>
  <outline>
    <contour>
      <point x="307" y="497" type="move"/>
      <point x="178" y="385"/>
      <point x="75" y="261"/>
      <point x="75" y="149" type="curve" smooth="yes"/>
      <point x="75" y="52"/>
      <point x="152" y="-24"/>
      <point x="228" y="-24" type="curve" smooth="yes"/>
      <point x="284" y="-24"/>
      <point x="308" y="18"/>
      <point x="308" y="58" type="curve" smooth="yes"/>
      <point x="308" y="118"/>
      <point x="253" y="196"/>
      <point x="168" y="253" type="curve"/>
    </contour>
  </outline>
</glyph>
<glyph name="seven" format="2">
  <advance width="291"/>
  <unicode hex="0037"/>
  <outline>
    <contour>
      <point x="20" y="328" type="move"/>
      <point x="107" y="331"/>
      <point x="251" y="304"/>
      <point x="251" y="252" type="curve" smooth="yes"/>
      <point x="251" y="247"/>
      <point x="250" y="237"/>
      <point x="243" y="218" type="curve" smooth="yes"/>
      <point x="193" y="72"/>
      <point x="165" y="-15"/>
      <point x="119" y="-164" type="curve"/>
    </contour>
  </outline>
</glyph>
<glyph name="eight" format="2">
  <advance width="308"/>
  <unicode hex="0038"/>
  <outline>
    <contour>
      <point x="78" y="407" type="move"/>
      <point x="111" y="439"/>
      <point x="160" y="464"/>
      <point x="213" y="464" type="curve" smooth="yes"/>
      <point x="267" y="464"/>
      <point x="293" y="437"/>
      <point x="293" y="389" type="curve" smooth="yes"/>
      <point x="293" y="324"/>
      <point x="246" y="255"/>
      <point x="180" y="177" type="curve" smooth="yes"/>
      <point x="118" y="103"/>
      <point x="71" y="55"/>
      <point x="71" y="17" type="curve" smooth="yes"/>
      <point x="71" y="-7"/>
      <point x="91" y="-31"/>
      <point x="127" y="-31" type="curve" smooth="yes"/>
      <point x="182" y="-31"/>
      <point x="244" y="21"/>
      <point x="244" y="71" type="curve" smooth="yes"/>
      <point x="244" y="104"/>
      <point x="216" y="130"/>
      <point x="170" y="169" type="curve" smooth="yes"/>
      <point x="125" y="207"/>
      <point x="65" y="255"/>
      <point x="65" y="299" type="curve" smooth="yes"/>
      <point x="65" y="307"/>
      <point x="67" y="325"/>
      <point x="81" y="346" type="curve"/>
    </contour>
  </outline>
</glyph>
<glyph name="nine" format="2">
  <advance width="366"/>
  <unicode hex="0039"/>
  <outline>
    <contour>
      <point x="319" y="357" type="move"/>
      <point x="161" y="296"/>
      <point x="40" y="150"/>
      <point x="40" y="86" type="curve" smooth="yes"/>
      <point x="40" y="61"/>
      <point x="59" y="43"/>
      <point x="84" y="43" type="curve" smooth="yes"/>
      <point x="144" y="43"/>
      <point x="255" y="145"/>
      <point x="319" y="219" type="curve"/>
    </contour>
    <contour>
      <point x="319" y="219" type="move"/>
      <point x="321" y="219" type="line"/>
    </contour>
    <contour>
      <point x="321" y="219" type="move"/>
      <point x="305" y="70"/>
      <point x="269" y="-54"/>
      <point x="201" y="-195" type="curve"/>
    </contour>
  </outline>
</glyph>
<glyph name="colon" format="2">
  <advance width="189"/>
  <unicode hex="003A"/>
  <outline>
    <contour>
      <point x="107" y="322" type="move"/>
      <point x="116" y="317"/>
      <point x="119" y="309"/>
      <point x="119" y="302" type="curve" smooth="yes"/>
      <point x="119" y="279"/>
      <point x="89" y="249"/>
      <point x="70" y="232" type="curve"/>
    </contour>
    <contour>
      <point x="107" y="100" type="move"/>
      <point x="116" y="95"/>
      <point x="119" y="87"/>
      <point x="119" y="80" type="curve" smooth="yes"/>
      <point x="119" y="57"/>
      <point x="89" y="27"/>
      <point x="70" y="10" type="curve"/>
    </contour>
  </outline>
</glyph>
<glyph name="semicolon" format="2">
  <advance width="154"/>
  <unicode hex="003B"/>
  <outline>
    <contour>
      <point x="107" y="322" type="move"/>
      <point x="116" y="317"/>
      <point x="119" y="309"/>
      <point x="119" y="302" type="curve" smooth="yes"/>
      <point x="119" y="279"/>
      <point x="89" y="249"/>
      <point x="70" y="232" type="curve"/>
    </contour>
    <contour>
      <point x="82" y="122" type="move"/>
      <point x="97" y="116"/>
      <point x="108" y="99"/>
      <point x="108" y="78" type="curve" smooth="yes"/>
      <point x="108" y="47"/>
      <point x="84" y="-23"/>
      <point x="40" y="-93" type="curve"/>
    </contour>
  </outline>
</glyph>
<glyph name="less" format="2">
  <advance width="339"/>
  <unicode hex="003C"/>
  <outline>
    <contour identifier="ID0x103511f70">
      <point x="275" y="-10" type="move"/>
      <point x="224" y="26"/>
      <point x="108" y="95"/>
      <point x="40" y="132" type="curve"/>
      <point x="40" y="139" type="line"/>
      <point x="107" y="181"/>
      <point x="220" y="263"/>
      <point x="278" y="311" type="curve"/>
    </contour>
    <contour>
      <point x="279" y="301" type="move"/>
      <point x="265" y="298" type="line"/>
    </contour>
    <contour>
      <point x="278" y="311" type="move"/>
      <point x="279" y="301" type="line"/>
    </contour>
  </outline>
</glyph>
<glyph name="equal" format="2">
  <advance width="431"/>
  <unicode hex="003D"/>
  <outline>
    <contour>
      <point x="361" y="99" type="move"/>
      <point x="264" y="102"/>
      <point x="156" y="96"/>
      <point x="60" y="89" type="curve"/>
    </contour>
    <contour>
      <point x="371" y="219" type="move"/>
      <point x="274" y="222"/>
      <point x="166" y="216"/>
      <point x="70" y="209" type="curve"/>
    </contour>
  </outline>
</glyph>
<glyph name="greater" format="2">
  <advance width="339"/>
  <unicode hex="003E"/>
  <outline>
    <contour>
      <point x="64" y="311" type="move"/>
      <point x="115" y="275"/>
      <point x="231" y="206"/>
      <point x="299" y="169" type="curve"/>
      <point x="299" y="162" type="line"/>
      <point x="232" y="120"/>
      <point x="119" y="38"/>
      <point x="61" y="-10" type="curve"/>
    </contour>
    <contour>
      <point x="60" y="0" type="move"/>
      <point x="74" y="3" type="line"/>
    </contour>
    <contour>
      <point x="61" y="-10" type="move"/>
      <point x="60" y="0" type="line"/>
    </contour>
  </outline>
</glyph>
<glyph name="question" format="2">
  <advance width="316"/>
  <unicode hex="003F"/>
  <outline>
    <contour>
      <point x="130" y="58" type="move"/>
      <point x="116" y="35"/>
      <point x="93" y="7"/>
      <point x="72" y="-15" type="curve"/>
    </contour>
    <contour>
      <point x="103" y="468" type="move"/>
      <point x="84" y="487"/>
      <point x="70" y="511"/>
      <point x="70" y="528" type="curve" smooth="yes"/>
      <point x="70" y="542"/>
      <point x="79" y="552"/>
      <point x="97" y="552" type="curve" smooth="yes"/>
      <point x="140" y="552"/>
      <point x="286" y="503"/>
      <point x="286" y="400" type="curve" smooth="yes"/>
      <point x="286" y="337"/>
      <point x="231" y="234"/>
      <point x="171" y="143" type="curve" smooth="yes"/>
    </contour>
  </outline>
</glyph>
<glyph name="at" format="2">
  <advance width="625"/>
  <unicode hex="0040"/>
  <outline>
    <contour>
      <point x="433" y="347" type="move"/>
      <point x="330" y="279"/>
      <point x="159" y="108"/>
      <point x="159" y="48" type="curve" smooth="yes"/>
      <point x="159" y="36"/>
      <point x="166" y="31"/>
      <point x="176" y="31" type="curve" smooth="yes"/>
      <point x="209" y="31"/>
      <point x="289" y="86"/>
      <point x="414" y="222" type="curve"/>
      <point x="402" y="190"/>
      <point x="395" y="156"/>
      <point x="395" y="131" type="curve" smooth="yes"/>
      <point x="395" y="94"/>
      <point x="410" y="69"/>
      <point x="443" y="69" type="curve" smooth="yes"/>
      <point x="508" y="69"/>
      <point x="585" y="161"/>
      <point x="585" y="279" type="curve" smooth="yes"/>
      <point x="585" y="375"/>
      <point x="536" y="454"/>
      <point x="428" y="454" type="curve" smooth="yes"/>
      <point x="255" y="454"/>
      <point x="40" y="245"/>
      <point x="40" y="64" type="curve" smooth="yes"/>
      <point x="40" y="-29"/>
      <point x="94" y="-108"/>
      <point x="237" y="-108" type="curve" smooth="yes"/>
      <point x="311" y="-108"/>
      <point x="380" y="-87"/>
      <point x="449" y="-33" type="curve"/>
    </contour>
  </outline>
</glyph>
<glyph name="B" format="2">
  <advance width="447"/>
  <unicode hex="0042"/>
  <outline>
    <contour>
      <point x="180" y="538" type="move"/>
      <point x="142" y="354"/>
      <point x="109" y="113"/>
      <point x="102" y="-55" type="curve"/>
    </contour>
    <contour>
      <point x="77" y="556" type="move"/>
      <point x="139" y="574"/>
      <point x="208" y="588"/>
      <point x="274" y="588" type="curve" smooth="yes"/>
      <point x="373" y="588"/>
      <point x="437" y="558"/>
      <point x="437" y="514" type="curve" smooth="yes"/>
      <point x="437" y="437"/>
      <point x="232" y="324"/>
      <point x="85" y="267" type="curve"/>
    </contour>
    <contour>
      <point x="85" y="267" type="move"/>
      <point x="227" y="227"/>
      <point x="396" y="164"/>
      <point x="396" y="107" type="curve" smooth="yes"/>
      <point x="396" y="59"/>
      <point x="272" y="-8"/>
      <point x="65" y="-23" type="curve"/>
    </contour>
  </outline>
</glyph>
<glyph name="D" format="2">
  <advance width="445"/>
  <unicode hex="0044"/>
  <anchor x="215" y="0" name="bottom"/>
  <anchor x="105" y="290" name="center"/>
  <anchor x="285" y="540" name="top"/>
  <outline>
    <contour>
      <point x="160" y="497" type="move"/>
      <point x="123" y="361"/>
      <point x="87" y="167"/>
      <point x="65" y="16" type="curve"/>
    </contour>
    <contour>
      <point x="71" y="583" type="move"/>
      <point x="270" y="536"/>
      <point x="415" y="437"/>
      <point x="415" y="310" type="curve" smooth="yes"/>
      <point x="415" y="178"/>
      <point x="261" y="22"/>
      <point x="97" y="-52" type="curve"/>
    </contour>
    <contour>
      <point x="97" y="-52" type="move"/>
      <point x="167" y="-5"/>
      <point x="230" y="25"/>
      <point x="310" y="49" type="curve"/>
    </contour>
  </outline>
</glyph>
<glyph name="E" format="2">
  <advance width="398"/>
  <unicode hex="0045"/>
  <anchor x="197" y="0" name="bottom"/>
  <anchor x="268" y="37" name="ogonek"/>
  <anchor x="288" y="565" name="top"/>
  <anchor x="15" y="580" name="topleft"/>
  <outline>
    <contour>
      <point x="345" y="315" type="move"/>
      <point x="335" y="316"/>
      <point x="325" y="317"/>
      <point x="312" y="317" type="curve" smooth="yes"/>
      <point x="243" y="317"/>
      <point x="161" y="293"/>
      <point x="77" y="249" type="curve"/>
    </contour>
    <contour>
      <point x="346" y="81" type="move"/>
      <point x="285" y="37"/>
      <point x="195" y="6"/>
      <point x="103" y="6" type="curve" smooth="yes"/>
      <point x="85" y="6"/>
      <point x="67" y="7"/>
      <point x="50" y="10" type="curve"/>
    </contour>
    <contour>
      <point x="50" y="10" type="move"/>
      <point x="59" y="228"/>
      <point x="117" y="501"/>
      <point x="151" y="535" type="curve" smooth="yes"/>
      <point x="187" y="571"/>
      <point x="253" y="588"/>
      <point x="306" y="588" type="curve" smooth="yes"/>
      <point x="334" y="588"/>
      <point x="360" y="584"/>
      <point x="388" y="574" type="curve"/>
    </contour>
  </outline>
</glyph>
<glyph name="F" format="2">
  <advance width="380"/>
  <unicode hex="0046"/>
  <outline>
    <contour>
      <point x="88" y="-58" type="move"/>
      <point x="88" y="118"/>
      <point x="120" y="480"/>
      <point x="165" y="532" type="curve" smooth="yes"/>
      <point x="193" y="564"/>
      <point x="260" y="586"/>
      <point x="320" y="586" type="curve" smooth="yes"/>
      <point x="337" y="586"/>
      <point x="354" y="584"/>
      <point x="370" y="580" type="curve" smooth="yes"/>
    </contour>
    <contour>
      <point x="368" y="297" type="move"/>
      <point x="351" y="301"/>
      <point x="331" y="303"/>
      <point x="310" y="303" type="curve" smooth="yes"/>
      <point x="240" y="302"/>
      <point x="148" y="281"/>
      <point x="55" y="243" type="curve"/>
    </contour>
  </outline>
</glyph>
<glyph name="H" format="2">
  <advance width="540"/>
  <unicode hex="0048"/>
  <anchor x="273" y="0" name="bottom"/>
  <anchor x="273" y="437" name="center"/>
  <anchor x="323" y="550" name="top"/>
  <anchor x="25" y="580" name="topleft"/>
  <outline>
    <contour>
      <point x="157" y="582" type="move"/>
      <point x="126" y="435"/>
      <point x="106" y="169"/>
      <point x="106" y="51" type="curve" smooth="yes"/>
      <point x="106" y="18"/>
      <point x="112" y="-2"/>
      <point x="122" y="-2" type="curve" smooth="yes"/>
      <point x="130" y="-2"/>
      <point x="142" y="8"/>
      <point x="158" y="32" type="curve"/>
    </contour>
    <contour>
      <point x="65" y="223" type="move"/>
      <point x="150" y="253"/>
      <point x="271" y="276"/>
      <point x="443" y="285" type="curve"/>
    </contour>
    <contour>
      <point x="472" y="582" type="move"/>
      <point x="481" y="568"/>
      <point x="485" y="549"/>
      <point x="485" y="527" type="curve" smooth="yes"/>
      <point x="485" y="438"/>
      <point x="415" y="129"/>
      <point x="356" y="-82" type="curve"/>
    </contour>
  </outline>
</glyph>
<glyph name="I" format="2">
  <advance width="218"/>
  <unicode hex="0049"/>
  <anchor x="109" y="0" name="bottom"/>
  <anchor x="112" y="-4" name="ogonek"/>
  <anchor x="192" y="580" name="top"/>
  <anchor x="86" y="580" name="topleft"/>
  <outline>
    <contour>
      <point x="114" y="390" type="move"/>
      <point x="129" y="465"/>
      <point x="139" y="508"/>
      <point x="158" y="575" type="curve"/>
      <point x="163" y="576" type="line"/>
      <point x="124" y="379"/>
      <point x="95" y="165"/>
      <point x="95" y="47" type="curve" smooth="yes"/>
      <point x="95" y="30"/>
      <point x="100" y="9"/>
      <point x="112" y="-4" type="curve"/>
    </contour>
  </outline>
</glyph>
<glyph name="K" format="2">
  <advance width="458"/>
  <unicode hex="004B"/>
  <anchor x="169" y="20" name="bottom"/>
  <anchor x="277" y="570" name="top"/>
  <outline>
    <contour>
      <point x="70" y="19" type="move"/>
      <point x="83" y="199"/>
      <point x="109" y="387"/>
      <point x="146" y="562" type="curve"/>
    </contour>
    <contour>
      <point x="376" y="605" type="move"/>
      <point x="379" y="606"/>
      <point x="384" y="607"/>
      <point x="388" y="607" type="curve" smooth="yes"/>
      <point x="406" y="608"/>
      <point x="412" y="597"/>
      <point x="412" y="585" type="curve" smooth="yes"/>
      <point x="412" y="548"/>
      <point x="359" y="477"/>
      <point x="323" y="436" type="curve" smooth="yes"/>
      <point x="272" y="377"/>
      <point x="223" y="329"/>
      <point x="150" y="271" type="curve"/>
      <point x="177" y="217"/>
      <point x="282" y="28"/>
      <point x="346" y="28" type="curve" smooth="yes"/>
      <point x="373" y="28"/>
      <point x="409" y="62"/>
      <point x="453" y="106" type="curve" smooth="yes"/>
      <point x="458" y="111" type="line"/>
    </contour>
  </outline>
</glyph>
<glyph name="M" format="2">
  <advance width="567"/>
  <unicode hex="004D"/>
  <outline>
    <contour>
      <point x="75" y="11" type="move"/>
      <point x="97" y="201"/>
      <point x="125" y="431"/>
      <point x="146" y="601" type="curve"/>
      <point x="151" y="603" type="line"/>
      <point x="134" y="431"/>
      <point x="200" y="270"/>
      <point x="270" y="267" type="curve" smooth="yes"/>
      <point x="334" y="264"/>
      <point x="437" y="377"/>
      <point x="532" y="537" type="curve"/>
      <point x="537" y="539" type="line"/>
      <point x="501" y="369"/>
      <point x="468" y="199"/>
      <point x="434" y="29" type="curve"/>
    </contour>
  </outline>
</glyph>
<glyph name="O" format="2">
  <advance width="511"/>
  <unicode hex="004F"/>
  <anchor x="199" y="-1" name="bottom"/>
  <anchor x="254" y="290" name="center"/>
  <anchor x="192" y="-1" name="ogonek"/>
  <anchor x="363" y="551" name="top"/>
  <anchor x="11" y="580" name="topleft"/>
  <anchor x="496" y="580" name="topright"/>
  <outline>
    <contour>
      <point x="201" y="575" type="move"/>
      <point x="142" y="448"/>
      <point x="95" y="305"/>
      <point x="95" y="171" type="curve" smooth="yes"/>
      <point x="95" y="69"/>
      <point x="124" y="-1"/>
      <point x="199" y="-1" type="curve" smooth="yes"/>
      <point x="320" y="-1"/>
      <point x="471" y="184"/>
      <point x="471" y="374" type="curve" smooth="yes"/>
      <point x="471" y="483"/>
      <point x="422" y="560"/>
      <point x="342" y="561" type="curve" smooth="yes"/>
      <point x="228" y="563"/>
      <point x="119" y="410"/>
      <point x="55" y="258" type="curve" smooth="yes"/>
    </contour>
  </outline>
</glyph>
<glyph name="P" format="2">
  <advance width="388"/>
  <unicode hex="0050"/>
  <outline>
    <contour>
      <point x="42" y="99" type="move"/>
      <point x="290" y="155"/>
      <point x="373" y="245"/>
      <point x="373" y="341" type="curve" smooth="yes"/>
      <point x="373" y="489"/>
      <point x="178" y="609"/>
      <point x="125" y="609" type="curve" smooth="yes"/>
      <point x="107" y="609"/>
      <point x="97" y="595"/>
      <point x="97" y="578" type="curve" smooth="yes"/>
      <point x="97" y="559"/>
      <point x="110" y="535"/>
      <point x="134" y="509" type="curve"/>
    </contour>
    <contour>
      <point x="152" y="475" type="move"/>
      <point x="109" y="306"/>
      <point x="78" y="124"/>
      <point x="78" y="-4" type="curve" smooth="yes"/>
      <point x="78" y="-25"/>
      <point x="85" y="-40"/>
      <point x="101" y="-53" type="curve"/>
    </contour>
  </outline>
</glyph>
<glyph name="Q" format="2">
  <advance width="488"/>
  <unicode hex="0051"/>
  <outline>
    <contour>
      <point x="47" y="228" type="move"/>
      <point x="42" y="207"/>
      <point x="40" y="187"/>
      <point x="40" y="169" type="curve" smooth="yes"/>
      <point x="40" y="79"/>
      <point x="94" y="0"/>
      <point x="176" y="0" type="curve" smooth="yes"/>
      <point x="315" y="0"/>
      <point x="453" y="228"/>
      <point x="453" y="390" type="curve" smooth="yes"/>
      <point x="453" y="492"/>
      <point x="398" y="576"/>
      <point x="308" y="575" type="curve" smooth="yes"/>
      <point x="207" y="574"/>
      <point x="115" y="468"/>
      <point x="115" y="320" type="curve" smooth="yes"/>
      <point x="115" y="131"/>
      <point x="263" y="-28"/>
      <point x="478" y="-139" type="curve"/>
    </contour>
  </outline>
</glyph>
<glyph name="R" format="2">
  <advance width="453"/>
  <unicode hex="0052"/>
  <anchor x="222" y="30" name="bottom"/>
  <anchor x="282" y="560" name="top"/>
  <outline>
    <contour>
      <point x="179" y="449" type="move"/>
      <point x="160" y="298"/>
      <point x="135" y="147"/>
      <point x="102" y="-4" type="curve"/>
    </contour>
    <contour>
      <point x="102" y="-4" type="move"/>
      <point x="124" y="215"/>
      <point x="134" y="403"/>
      <point x="130" y="566" type="curve"/>
      <point x="162" y="570"/>
      <point x="190" y="572"/>
      <point x="211" y="572" type="curve" smooth="yes"/>
      <point x="322" y="572"/>
      <point x="434" y="519"/>
      <point x="434" y="451" type="curve" smooth="yes"/>
      <point x="434" y="358"/>
      <point x="228" y="263"/>
      <point x="80" y="216" type="curve"/>
      <point x="194" y="129"/>
      <point x="304" y="56"/>
      <point x="473" y="-41" type="curve"/>
    </contour>
  </outline>
</glyph>
<glyph name="T" format="2">
  <advance width="325"/>
  <unicode hex="0054"/>
  <anchor x="168" y="-12" name="bottom"/>
  <anchor x="163" y="290" name="center"/>
  <anchor x="223" y="580" name="top"/>
  <outline>
    <contour>
      <point x="168" y="-12" type="move"/>
      <point x="168" y="187"/>
      <point x="184" y="377"/>
      <point x="217" y="568" type="curve"/>
    </contour>
    <contour>
      <point x="35" y="551" type="move"/>
      <point x="114" y="576"/>
      <point x="188" y="585"/>
      <point x="255" y="585" type="curve" smooth="yes"/>
      <point x="287" y="585"/>
      <point x="318" y="583"/>
      <point x="350" y="579" type="curve"/>
    </contour>
  </outline>
</glyph>
<glyph name="V" format="2">
  <advance width="397"/>
  <unicode hex="0056"/>
  <outline>
    <contour>
      <point x="89" y="617" type="move"/>
      <point x="87" y="597"/>
      <point x="85" y="575"/>
      <point x="85" y="537" type="curve" smooth="yes"/>
      <point x="85" y="421"/>
      <point x="105" y="271"/>
      <point x="131" y="162" type="curve" smooth="yes"/>
      <point x="151" y="80"/>
      <point x="175" y="22"/>
      <point x="196" y="22" type="curve" smooth="yes"/>
      <point x="201" y="22"/>
      <point x="205" y="23"/>
      <point x="209" y="26" type="curve"/>
    </contour>
    <contour>
      <point x="151" y="-12" type="move"/>
      <point x="282" y="138"/>
      <point x="379" y="372"/>
      <point x="392" y="520" type="curve"/>
    </contour>
  </outline>
</glyph>
<glyph name="X" format="2">
  <advance width="395"/>
  <unicode hex="0058"/>
  <outline>
    <contour>
      <point x="304" y="531" type="move"/>
      <point x="337" y="561"/>
      <point x="383" y="597"/>
      <point x="401" y="597" type="curve" smooth="yes"/>
      <point x="407" y="597"/>
      <point x="410" y="592"/>
      <point x="410" y="580" type="curve" smooth="yes"/>
      <point x="410" y="570"/>
      <point x="409" y="558"/>
      <point x="393" y="534" type="curve" smooth="yes"/>
      <point x="370" y="500"/>
      <point x="277" y="376"/>
      <point x="205" y="267" type="curve" smooth="yes"/>
      <point x="136" y="162"/>
      <point x="81" y="70"/>
      <point x="20" y="-45" type="curve" smooth="yes"/>
    </contour>
    <contour>
      <point x="332" y="14" type="move"/>
      <point x="209" y="163"/>
      <point x="105" y="413"/>
      <point x="105" y="532" type="curve" smooth="yes"/>
      <point x="105" y="563"/>
      <point x="112" y="578"/>
      <point x="128" y="595" type="curve" smooth="yes"/>
    </contour>
  </outline>
</glyph>
<glyph name="Y" format="2">
  <advance width="368"/>
  <unicode hex="0059"/>
  <anchor x="164" y="-19" name="bottom"/>
  <anchor x="247" y="570" name="top"/>
  <anchor x="17" y="741" name="topleft"/>
  <outline>
    <contour>
      <point x="80" y="570" type="move"/>
      <point x="80" y="423"/>
      <point x="129" y="247"/>
      <point x="192" y="176" type="curve"/>
    </contour>
    <contour>
      <point x="171" y="-19" type="move"/>
      <point x="152" y="-16"/>
      <point x="142" y="-6"/>
      <point x="142" y="19" type="curve" smooth="yes"/>
      <point x="142" y="85"/>
      <point x="209" y="204"/>
      <point x="245" y="273" type="curve" smooth="yes"/>
      <point x="299" y="379"/>
      <point x="356" y="474"/>
      <point x="398" y="595" type="curve"/>
    </contour>
  </outline>
</glyph>
<glyph name="bracketleft" format="2">
  <advance width="277"/>
  <unicode hex="005B"/>
  <note>
bracketleft
</note>
  <outline>
    <contour>
      <point x="297" y="545" type="move"/>
      <point x="241" y="549"/>
      <point x="186" y="532"/>
      <point x="143" y="502" type="curve"/>
      <point x="100" y="303"/>
      <point x="65" y="69"/>
      <point x="50" y="-123" type="curve"/>
      <point x="69" y="-128"/>
      <point x="91" y="-131"/>
      <point x="114" y="-131" type="curve" smooth="yes"/>
      <point x="144" y="-131"/>
      <point x="177" y="-126"/>
      <point x="209" y="-116" type="curve" smooth="yes"/>
    </contour>
  </outline>
</glyph>
<glyph name="backslash" format="2">
  <advance width="333"/>
  <unicode hex="005C"/>
  <note>
backslash
</note>
  <outline>
    <contour>
      <point x="-20" y="480" type="move"/>
      <point x="80" y="246"/>
      <point x="283" y="-18"/>
      <point x="283" y="-104" type="curve" smooth="yes"/>
      <point x="283" y="-107"/>
      <point x="283" y="-110"/>
      <point x="282" y="-115" type="curve"/>
    </contour>
  </outline>
</glyph>
<glyph name="bracketright" format="2">
  <advance width="271"/>
  <unicode hex="005D"/>
  <note>
bracketright
</note>
  <outline>
    <contour>
      <point x="-20" y="-124" type="move"/>
      <point x="31" y="-125"/>
      <point x="92" y="-111"/>
      <point x="125" y="-87" type="curve"/>
      <point x="169" y="99"/>
      <point x="207" y="343"/>
      <point x="221" y="529" type="curve"/>
      <point x="195" y="539"/>
      <point x="166" y="545"/>
      <point x="136" y="545" type="curve" smooth="yes"/>
      <point x="113" y="545"/>
      <point x="89" y="542"/>
      <point x="66" y="538" type="curve" smooth="yes"/>
    </contour>
  </outline>
</glyph>
<glyph name="asciicircum" format="2">
  <advance width="368"/>
  <unicode hex="005E"/>
  <outline>
    <contour>
      <point x="60" y="372" type="move"/>
      <point x="104" y="441"/>
      <point x="146" y="511"/>
      <point x="183" y="580" type="curve"/>
      <point x="185" y="580" type="line"/>
      <point x="222" y="511"/>
      <point x="264" y="441"/>
      <point x="308" y="372" type="curve"/>
    </contour>
  </outline>
</glyph>
<glyph name="underscore" format="2">
  <advance width="411"/>
  <unicode hex="005F"/>
  <note>
underscore
</note>
  <outline>
    <contour>
      <point x="70" y="-115" type="move"/>
      <point x="136" y="-119"/>
      <point x="277" y="-116"/>
      <point x="341" y="-109" type="curve"/>
    </contour>
  </outline>
</glyph>
<glyph name="grave" format="2">
  <advance width="197"/>
  <unicode hex="0060"/>
  <anchor x="98" y="300" name="_top"/>
  <anchor x="98" y="522" name="top"/>
  <outline>
    <contour>
      <point x="10" y="522" type="move"/>
      <point x="35" y="483"/>
      <point x="98" y="455"/>
      <point x="187" y="421" type="curve"/>
    </contour>
  </outline>
</glyph>
<glyph name="b" format="2">
  <advance width="332"/>
  <unicode hex="0062"/>
  <outline>
    <contour>
      <point x="0" y="111" type="move"/>
      <point x="5" y="116" type="line" smooth="yes"/>
      <point x="107" y="218"/>
      <point x="240" y="474"/>
      <point x="247" y="583" type="curve" smooth="yes"/>
      <point x="249" y="607"/>
      <point x="244" y="620"/>
      <point x="235" y="620" type="curve" smooth="yes"/>
      <point x="216" y="620"/>
      <point x="189" y="566"/>
      <point x="150" y="471" type="curve" smooth="yes"/>
      <point x="98" y="344"/>
      <point x="55" y="174"/>
      <point x="55" y="87" type="curve" smooth="yes"/>
      <point x="55" y="30"/>
      <point x="72" y="-25"/>
      <point x="114" y="-25" type="curve" smooth="yes"/>
      <point x="185" y="-25"/>
      <point x="264" y="131"/>
      <point x="264" y="184" type="curve" smooth="yes"/>
      <point x="264" y="194"/>
      <point x="261" y="199"/>
      <point x="254" y="199" type="curve" smooth="yes"/>
      <point x="233" y="199"/>
      <point x="196" y="157"/>
      <point x="177" y="91" type="curve"/>
    </contour>
    <contour>
      <point x="332" y="111" type="move"/>
      <point x="316" y="95" type="line" smooth="yes"/>
      <point x="300" y="79"/>
      <point x="269" y="53"/>
      <point x="248" y="39" type="curve"/>
    </contour>
  </outline>
</glyph>
<glyph name="c" format="2">
  <advance width="313"/>
  <unicode hex="0063"/>
  <anchor x="161" y="63" name="bottom"/>
  <anchor x="269" y="270" name="top"/>
  <outline>
    <contour>
      <point x="0" y="111" type="move"/>
      <point x="10" y="121" type="line" smooth="yes"/>
      <point x="98" y="209"/>
      <point x="190" y="257"/>
      <point x="271" y="291" type="curve"/>
    </contour>
    <contour>
      <point x="268" y="295" type="move"/>
      <point x="178" y="268"/>
      <point x="63" y="176"/>
      <point x="63" y="70" type="curve" smooth="yes"/>
      <point x="63" y="27"/>
      <point x="82" y="-3"/>
      <point x="130" y="-3" type="curve" smooth="yes"/>
      <point x="178" y="-3"/>
      <point x="229" y="27"/>
      <point x="282" y="80" type="curve" smooth="yes"/>
      <point x="313" y="111" type="line"/>
    </contour>
    <contour>
      <point x="271" y="291" type="move"/>
      <point x="268" y="295" type="line"/>
    </contour>
  </outline>
</glyph>
<glyph name="d" format="2">
  <advance width="467"/>
  <unicode hex="0064"/>
  <anchor x="234" y="0" name="bottom"/>
  <anchor x="350" y="520" name="center"/>
  <anchor x="411" y="580" name="top"/>
  <anchor x="531" y="640" name="topright"/>
  <outline>
    <contour>
      <point x="0" y="111" type="move"/>
      <point x="17" y="128" type="line" smooth="yes"/>
      <point x="57" y="168"/>
      <point x="177" y="291"/>
      <point x="288" y="358" type="curve"/>
    </contour>
    <contour>
      <point x="288" y="358" type="move"/>
      <point x="109" y="251"/>
      <point x="34" y="90"/>
      <point x="34" y="35" type="curve" smooth="yes"/>
      <point x="34" y="15"/>
      <point x="44" y="4"/>
      <point x="60" y="4" type="curve" smooth="yes"/>
      <point x="105" y="4"/>
      <point x="195" y="95"/>
      <point x="271" y="228" type="curve" smooth="yes"/>
      <point x="326" y="324"/>
      <point x="376" y="437"/>
      <point x="411" y="528" type="curve" smooth="yes"/>
      <point x="431" y="583"/>
      <point x="451" y="640"/>
      <point x="441" y="640" type="curve" smooth="yes"/>
      <point x="431" y="640"/>
      <point x="395" y="574"/>
      <point x="367" y="500" type="curve" smooth="yes"/>
      <point x="336" y="417"/>
      <point x="307" y="298"/>
      <point x="307" y="207" type="curve" smooth="yes"/>
      <point x="307" y="126"/>
      <point x="334" y="63"/>
      <point x="384" y="63" type="curve" smooth="yes"/>
      <point x="408" y="63"/>
      <point x="434" y="78"/>
      <point x="460" y="104" type="curve" smooth="yes"/>
      <point x="467" y="111" type="line"/>
    </contour>
  </outline>
</glyph>
<glyph name="e" format="2">
  <advance width="281"/>
  <unicode hex="0065"/>
  <anchor x="108" y="11" name="bottom"/>
  <anchor x="134" y="12" name="ogonek"/>
  <anchor x="187" y="300" name="top"/>
  <outline>
    <contour>
      <point x="0" y="111" type="move"/>
      <point x="31" y="142" type="line"/>
      <point x="148" y="199"/>
      <point x="203" y="272"/>
      <point x="203" y="307" type="curve" smooth="yes"/>
      <point x="203" y="321"/>
      <point x="194" y="330"/>
      <point x="180" y="330" type="curve" smooth="yes"/>
      <point x="131" y="330"/>
      <point x="28" y="220"/>
      <point x="28" y="109" type="curve" smooth="yes"/>
      <point x="28" y="55"/>
      <point x="54" y="11"/>
      <point x="108" y="11" type="curve" smooth="yes"/>
      <point x="150" y="11"/>
      <point x="207" y="37"/>
      <point x="270" y="100" type="curve" smooth="yes"/>
      <point x="281" y="111" type="line"/>
    </contour>
  </outline>
</glyph>
<glyph name="f" format="2">
  <advance width="236"/>
  <unicode hex="0066"/>
  <outline>
    <contour>
      <point x="0" y="111" type="move"/>
      <point x="7" y="118" type="line" smooth="yes"/>
      <point x="169" y="280"/>
      <point x="219" y="401"/>
      <point x="219" y="553" type="curve" smooth="yes"/>
      <point x="219" y="597"/>
      <point x="214" y="609"/>
      <point x="207" y="609" type="curve" smooth="yes"/>
      <point x="191" y="609"/>
      <point x="167" y="550"/>
      <point x="148" y="496" type="curve" smooth="yes"/>
      <point x="80" y="302"/>
      <point x="32" y="29"/>
      <point x="32" y="-173" type="curve" smooth="yes"/>
      <point x="32" y="-263"/>
      <point x="43" y="-299"/>
      <point x="59" y="-299" type="curve" smooth="yes"/>
      <point x="89" y="-299"/>
      <point x="155" y="-173"/>
      <point x="173" y="-64" type="curve"/>
    </contour>
    <contour>
      <point x="236" y="111" type="move"/>
      <point x="219" y="94" type="line" smooth="yes"/>
      <point x="187" y="62"/>
      <point x="145" y="23"/>
      <point x="106" y="-4" type="curve"/>
    </contour>
  </outline>
</glyph>
<glyph name="h" format="2">
  <advance width="377"/>
  <unicode hex="0068"/>
  <anchor x="194" y="0" name="bottom"/>
  <anchor x="150" y="366" name="center"/>
  <anchor x="339" y="650" name="top"/>
  <outline>
    <contour>
      <point x="0" y="111" type="move"/>
      <point x="32" y="143" type="line" smooth="yes"/>
      <point x="201" y="312"/>
      <point x="332" y="539"/>
      <point x="332" y="623" type="curve" smooth="yes"/>
      <point x="332" y="635"/>
      <point x="329" y="641"/>
      <point x="319" y="641" type="curve" smooth="yes"/>
      <point x="237" y="641"/>
      <point x="49" y="229"/>
      <point x="49" y="21" type="curve" smooth="yes"/>
      <point x="49" y="-5"/>
      <point x="52" y="-26"/>
      <point x="63" y="-26" type="curve" smooth="yes"/>
      <point x="93" y="-26"/>
      <point x="188" y="187"/>
      <point x="217" y="187" type="curve" smooth="yes"/>
      <point x="240" y="187"/>
      <point x="259" y="56"/>
      <point x="300" y="56" type="curve" smooth="yes"/>
      <point x="316" y="56"/>
      <point x="342" y="76"/>
      <point x="362" y="96" type="curve" smooth="yes"/>
      <point x="377" y="111" type="line"/>
    </contour>
  </outline>
</glyph>
<glyph name="j" format="2">
  <advance width="308"/>
  <unicode hex="006A"/>
  <outline>
    <contour>
      <point x="0" y="111" type="move"/>
      <point x="35" y="146" type="line" smooth="yes"/>
      <point x="94" y="205"/>
      <point x="149" y="265"/>
      <point x="202" y="327" type="curve"/>
      <point x="205" y="326" type="line"/>
      <point x="177" y="100"/>
      <point x="109" y="-337"/>
      <point x="20" y="-337" type="curve" smooth="yes"/>
      <point x="2" y="-337"/>
      <point x="0" y="-319"/>
      <point x="0" y="-305" type="curve" smooth="yes"/>
      <point x="0" y="-224"/>
      <point x="72" y="-125"/>
      <point x="222" y="25" type="curve" smooth="yes"/>
      <point x="308" y="111" type="line"/>
    </contour>
    <contour>
      <point x="230" y="474" type="move"/>
      <point x="244" y="518"/>
      <point x="257" y="572"/>
      <point x="266" y="617" type="curve"/>
    </contour>
  </outline>
</glyph>
<glyph name="m" format="2">
  <advance width="679"/>
  <unicode hex="006D"/>
  <outline>
    <contour>
      <point x="0" y="111" type="move"/>
      <point x="17" y="128" type="line" smooth="yes"/>
      <point x="84" y="195"/>
      <point x="142" y="254"/>
      <point x="160" y="254" type="curve" smooth="yes"/>
      <point x="164" y="254"/>
      <point x="166" y="251"/>
      <point x="166" y="247" type="curve" smooth="yes"/>
      <point x="166" y="228"/>
      <point x="145" y="177"/>
      <point x="125" y="126" type="curve" smooth="yes"/>
      <point x="103" y="75"/>
      <point x="82" y="25"/>
      <point x="82" y="9" type="curve" smooth="yes"/>
      <point x="82" y="6"/>
      <point x="83" y="4"/>
      <point x="85" y="4" type="curve" smooth="yes"/>
      <point x="98" y="4"/>
      <point x="153" y="75"/>
      <point x="214" y="146" type="curve" smooth="yes"/>
      <point x="273" y="214"/>
      <point x="335" y="282"/>
      <point x="359" y="282" type="curve" smooth="yes"/>
      <point x="366" y="282"/>
      <point x="369" y="276"/>
      <point x="369" y="265" type="curve" smooth="yes"/>
      <point x="369" y="238"/>
      <point x="351" y="181"/>
      <point x="333" y="128" type="curve" smooth="yes"/>
      <point x="311" y="69"/>
      <point x="290" y="12"/>
      <point x="290" y="-3" type="curve" smooth="yes"/>
      <point x="290" y="-6"/>
      <point x="291" y="-7"/>
      <point x="292" y="-7" type="curve" smooth="yes"/>
      <point x="300" y="-7"/>
      <point x="345" y="54"/>
      <point x="394" y="107" type="curve" smooth="yes"/>
      <point x="436" y="152"/>
      <point x="479" y="191"/>
      <point x="503" y="191" type="curve" smooth="yes"/>
      <point x="525" y="191"/>
      <point x="541" y="157"/>
      <point x="555" y="122" type="curve" smooth="yes"/>
      <point x="568" y="89"/>
      <point x="581" y="56"/>
      <point x="605" y="56" type="curve" smooth="yes"/>
      <point x="624" y="56"/>
      <point x="644" y="76"/>
      <point x="663" y="95" type="curve" smooth="yes"/>
      <point x="679" y="111" type="line"/>
    </contour>
  </outline>
</glyph>
<glyph name="n" format="2">
  <advance width="500"/>
  <unicode hex="006E"/>
  <anchor x="255" y="24" name="bottom"/>
  <anchor x="353" y="248" name="top"/>
  <outline>
    <contour>
      <point x="0" y="111" type="move"/>
      <point x="12" y="123" type="line" smooth="yes"/>
      <point x="64" y="175"/>
      <point x="150" y="269"/>
      <point x="176" y="269" type="curve" smooth="yes"/>
      <point x="182" y="269"/>
      <point x="186" y="264"/>
      <point x="186" y="253" type="curve" smooth="yes"/>
      <point x="185" y="212"/>
      <point x="132" y="95"/>
      <point x="108" y="30" type="curve" smooth="yes"/>
      <point x="100" y="9"/>
      <point x="95" y="-7"/>
      <point x="95" y="-15" type="curve" smooth="yes"/>
      <point x="95" y="-19"/>
      <point x="96" y="-21"/>
      <point x="99" y="-21" type="curve" smooth="yes"/>
      <point x="114" y="-21"/>
      <point x="168" y="46"/>
      <point x="224" y="106" type="curve" smooth="yes"/>
      <point x="272" y="158"/>
      <point x="319" y="202"/>
      <point x="343" y="202" type="curve" smooth="yes"/>
      <point x="389" y="202"/>
      <point x="384" y="57"/>
      <point x="428" y="57" type="curve" smooth="yes"/>
      <point x="445" y="57"/>
      <point x="468" y="79"/>
      <point x="492" y="103" type="curve" smooth="yes"/>
      <point x="500" y="111" type="line"/>
    </contour>
  </outline>
</glyph>
<glyph name="o" format="2">
  <advance width="387"/>
  <unicode hex="006F"/>
  <anchor x="198" y="5" name="bottom"/>
  <anchor x="198" y="182" name="center"/>
  <anchor x="278" y="270" name="top"/>
  <outline>
    <contour>
      <point x="162" y="186" type="move"/>
      <point x="183" y="236"/>
      <point x="223" y="270"/>
      <point x="262" y="270" type="curve" smooth="yes"/>
      <point x="297" y="270"/>
      <point x="313" y="243"/>
      <point x="312" y="204" type="curve" smooth="yes"/>
      <point x="310" y="106"/>
      <point x="204" y="0"/>
      <point x="131" y="0" type="curve" smooth="yes"/>
      <point x="98" y="0"/>
      <point x="75" y="22"/>
      <point x="75" y="68" type="curve" smooth="yes"/>
      <point x="75" y="130"/>
      <point x="118" y="211"/>
      <point x="185" y="285" type="curve"/>
      <point x="103" y="215"/>
      <point x="57" y="168"/>
      <point x="19" y="130" type="curve" smooth="yes"/>
      <point x="0" y="111" type="line"/>
    </contour>
    <contour>
      <point x="285" y="24" type="move"/>
      <point x="316" y="45"/>
      <point x="344" y="68"/>
      <point x="376" y="100" type="curve" smooth="yes"/>
      <point x="387" y="111" type="line"/>
    </contour>
  </outline>
</glyph>
<glyph name="p" format="2">
  <advance width="398"/>
  <unicode hex="0070"/>
  <outline>
    <contour>
      <point x="0" y="111" type="move"/>
      <point x="5" y="116" type="line" smooth="yes"/>
      <point x="67" y="178"/>
      <point x="138" y="276"/>
      <point x="185" y="387" type="curve"/>
    </contour>
    <contour>
      <point x="185" y="387" type="move"/>
      <point x="105" y="178"/>
      <point x="62" y="-55"/>
      <point x="34" y="-268" type="curve"/>
      <point x="39" y="-270" type="line"/>
      <point x="93" y="-70"/>
      <point x="179" y="207"/>
      <point x="233" y="207" type="curve" smooth="yes"/>
      <point x="270" y="207"/>
      <point x="303" y="79"/>
      <point x="348" y="79" type="curve" smooth="yes"/>
      <point x="360" y="79"/>
      <point x="375" y="88"/>
      <point x="392" y="105" type="curve" smooth="yes"/>
      <point x="398" y="111" type="line"/>
    </contour>
  </outline>
</glyph>
<glyph name="q" format="2">
  <advance width="318"/>
  <unicode hex="0071"/>
  <outline>
    <contour>
      <point x="0" y="111" type="move"/>
      <point x="16" y="127" type="line" smooth="yes"/>
      <point x="76" y="187"/>
      <point x="161" y="261"/>
      <point x="280" y="309" type="curve"/>
    </contour>
    <contour>
      <point x="280" y="309" type="move"/>
      <point x="281" y="307" type="line"/>
    </contour>
    <contour>
      <point x="281" y="307" type="move"/>
      <point x="135" y="235"/>
      <point x="18" y="114"/>
      <point x="18" y="38" type="curve" smooth="yes"/>
      <point x="18" y="13"/>
      <point x="31" y="2"/>
      <point x="51" y="2" type="curve" smooth="yes"/>
      <point x="107" y="2"/>
      <point x="203" y="88"/>
      <point x="281" y="185" type="curve"/>
    </contour>
    <contour>
      <point x="281" y="185" type="move"/>
      <point x="283" y="184" type="line"/>
    </contour>
    <contour>
      <point x="283" y="184" type="move"/>
      <point x="267" y="16"/>
      <point x="233" y="-140"/>
      <point x="180" y="-314" type="curve"/>
    </contour>
  </outline>
</glyph>
<glyph name="r" format="2">
  <advance width="338"/>
  <unicode hex="0072"/>
  <anchor x="47" y="50" name="bottom"/>
  <anchor x="217" y="300" name="top"/>
  <outline>
    <contour>
      <point x="0" y="111" type="move"/>
      <point x="29" y="140" type="line" smooth="yes"/>
      <point x="50" y="161"/>
      <point x="108" y="227"/>
      <point x="151" y="295" type="curve"/>
    </contour>
    <contour>
      <point x="151" y="295" type="move"/>
      <point x="107" y="294" type="line"/>
    </contour>
    <contour>
      <point x="107" y="294" type="move"/>
      <point x="189" y="255"/>
      <point x="208" y="225"/>
      <point x="208" y="192" type="curve" smooth="yes"/>
      <point x="208" y="140"/>
      <point x="167" y="27"/>
      <point x="167" y="-2" type="curve" smooth="yes"/>
      <point x="167" y="-9"/>
      <point x="170" y="-12"/>
      <point x="176" y="-12" type="curve" smooth="yes"/>
      <point x="200" y="-12"/>
      <point x="263" y="36"/>
      <point x="326" y="99" type="curve" smooth="yes"/>
      <point x="338" y="111" type="line"/>
    </contour>
  </outline>
</glyph>
<glyph name="t" format="2">
  <advance width="304"/>
  <unicode hex="0074"/>
  <anchor x="129" y="-10" name="bottom"/>
  <anchor x="152" y="150" name="center"/>
  <anchor x="294" y="469" name="top"/>
  <anchor x="284" y="650" name="topright"/>
  <outline>
    <contour>
      <point x="0" y="111" type="move"/>
      <point x="12" y="123" type="line" smooth="yes"/>
      <point x="52" y="163"/>
      <point x="188" y="343"/>
      <point x="261" y="500" type="curve"/>
    </contour>
    <contour>
      <point x="25" y="419" type="move"/>
      <point x="104" y="413"/>
      <point x="204" y="413"/>
      <point x="304" y="417" type="curve"/>
    </contour>
    <contour>
      <point x="261" y="500" type="move"/>
      <point x="196" y="343"/>
      <point x="127" y="146"/>
      <point x="127" y="39" type="curve" smooth="yes"/>
      <point x="127" y="1"/>
      <point x="136" y="-10"/>
      <point x="149" y="-10" type="curve" smooth="yes"/>
      <point x="182" y="-10"/>
      <point x="254" y="61"/>
      <point x="287" y="94" type="curve" smooth="yes"/>
      <point x="304" y="111" type="line"/>
    </contour>
  </outline>
</glyph>
<glyph name="v" format="2">
  <advance width="360"/>
  <unicode hex="0076"/>
  <outline>
    <contour>
      <point x="0" y="111" type="move"/>
      <point x="12" y="123" type="line" smooth="yes"/>
      <point x="33" y="144"/>
      <point x="77" y="200"/>
      <point x="108" y="255" type="curve"/>
    </contour>
    <contour>
      <point x="277" y="38" type="move"/>
      <point x="303" y="58"/>
      <point x="336" y="87"/>
      <point x="352" y="103" type="curve" smooth="yes"/>
      <point x="360" y="111" type="line"/>
    </contour>
    <contour>
      <point x="108" y="255" type="move"/>
      <point x="100" y="209"/>
      <point x="96" y="165"/>
      <point x="96" y="112" type="curve" smooth="yes"/>
      <point x="96" y="34"/>
      <point x="105" y="-34"/>
      <point x="129" y="-34" type="curve" smooth="yes"/>
      <point x="160" y="-34"/>
      <point x="298" y="158"/>
      <point x="321" y="309" type="curve"/>
    </contour>
  </outline>
</glyph>
<glyph name="x" format="2">
  <advance width="367"/>
  <unicode hex="0078"/>
  <outline>
    <contour>
      <point x="0" y="111" type="move"/>
      <point x="21" y="132" type="line" smooth="yes"/>
      <point x="85" y="196"/>
      <point x="235" y="327"/>
      <point x="280" y="327" type="curve" smooth="yes"/>
      <point x="293" y="327"/>
      <point x="297" y="317"/>
      <point x="297" y="307" type="curve" smooth="yes"/>
      <point x="297" y="244"/>
      <point x="139" y="73"/>
      <point x="38" y="-4" type="curve" smooth="yes"/>
    </contour>
    <contour>
      <point x="74" y="306" type="move"/>
      <point x="89" y="223"/>
      <point x="152" y="23"/>
      <point x="242" y="23" type="curve" smooth="yes"/>
      <point x="272" y="23"/>
      <point x="301" y="45"/>
      <point x="348" y="92" type="curve" smooth="yes"/>
      <point x="367" y="111" type="line"/>
    </contour>
  </outline>
</glyph>
<glyph name="braceleft" format="2">
  <advance width="314"/>
  <unicode hex="007B"/>
  <outline>
    <contour>
      <point x="314" y="531" type="move"/>
      <point x="302" y="534"/>
      <point x="289" y="535"/>
      <point x="279" y="535" type="curve" smooth="yes"/>
      <point x="198" y="535"/>
      <point x="168" y="487"/>
      <point x="151" y="388" type="curve" smooth="yes"/>
      <point x="137" y="309"/>
      <point x="138" y="219"/>
      <point x="40" y="210" type="curve"/>
    </contour>
    <contour>
      <point x="40" y="210" type="move"/>
      <point x="91" y="202"/>
      <point x="111" y="160"/>
      <point x="111" y="105" type="curve" smooth="yes"/>
      <point x="111" y="48"/>
      <point x="89" y="-48"/>
      <point x="89" y="-92" type="curve" smooth="yes"/>
      <point x="89" y="-144"/>
      <point x="126" y="-151"/>
      <point x="158" y="-151" type="curve" smooth="yes"/>
      <point x="191" y="-151"/>
      <point x="216" y="-143"/>
      <point x="234" y="-135" type="curve" smooth="yes"/>
    </contour>
  </outline>
</glyph>
<glyph name="bar" format="2">
  <advance width="248"/>
  <unicode hex="007C"/>
  <outline>
    <contour>
      <point x="168" y="681" type="move"/>
      <point x="157" y="461"/>
      <point x="120" y="58"/>
      <point x="90" y="-157" type="curve"/>
    </contour>
  </outline>
</glyph>
<glyph name="braceright" format="2">
  <advance width="309"/>
  <unicode hex="007D"/>
  <outline>
    <contour identifier="ID0x13e508bc0">
      <point x="0" y="-144" type="move"/>
      <point x="12" y="-147"/>
      <point x="25" y="-148"/>
      <point x="35" y="-148" type="curve" smooth="yes"/>
      <point x="116" y="-148"/>
      <point x="146" y="-98"/>
      <point x="163" y="-1" type="curve" smooth="yes"/>
      <point x="177" y="78"/>
      <point x="171" y="178"/>
      <point x="269" y="187" type="curve"/>
    </contour>
    <contour>
      <point x="269" y="187" type="move"/>
      <point x="218" y="195"/>
      <point x="198" y="237"/>
      <point x="198" y="292" type="curve" smooth="yes"/>
      <point x="198" y="349"/>
      <point x="225" y="435"/>
      <point x="225" y="479" type="curve" smooth="yes"/>
      <point x="225" y="531"/>
      <point x="188" y="538"/>
      <point x="156" y="538" type="curve" smooth="yes"/>
      <point x="123" y="538"/>
      <point x="98" y="530"/>
      <point x="80" y="522" type="curve" smooth="yes"/>
    </contour>
  </outline>
</glyph>
<glyph name="asciitilde" format="2">
  <advance width="442"/>
  <unicode hex="007E"/>
  <outline>
    <contour>
      <point x="60" y="122" type="move"/>
      <point x="86" y="178"/>
      <point x="117" y="194"/>
      <point x="143" y="194" type="curve" smooth="yes"/>
      <point x="200" y="194"/>
      <point x="235" y="122"/>
      <point x="298" y="122" type="curve" smooth="yes"/>
      <point x="326" y="122"/>
      <point x="356" y="136"/>
      <point x="382" y="192" type="curve" smooth="yes"/>
    </contour>
  </outline>
</glyph>
<glyph name="exclamdown" format="2">
  <advance width="217"/>
  <unicode hex="00A1"/>
  <outline>
    <contour identifier="ID0x120dfd090">
      <point x="112" y="212" type="move"/>
      <point x="118" y="237"/>
      <point x="127" y="273"/>
      <point x="137" y="301" type="curve"/>
    </contour>
    <contour>
      <point x="97" y="136" type="move"/>
      <point x="72" y="35"/>
      <point x="30" y="-190"/>
      <point x="30" y="-266" type="curve" smooth="yes"/>
      <point x="30" y="-292"/>
      <point x="34" y="-301"/>
      <point x="37" y="-301" type="curve" smooth="yes"/>
      <point x="44" y="-301"/>
      <point x="61" y="-258"/>
      <point x="61" y="-190" type="curve"/>
    </contour>
  </outline>
</glyph>
<glyph name="cent" format="2">
  <advance width="323"/>
  <unicode hex="00A2"/>
  <outline>
    <contour>
      <point x="180" y="348" type="move"/>
      <point x="163" y="223"/>
      <point x="146" y="44"/>
      <point x="137" y="-88" type="curve"/>
    </contour>
    <contour>
      <point x="276" y="305" type="move"/>
      <point x="186" y="278"/>
      <point x="50" y="176"/>
      <point x="50" y="65" type="curve" smooth="yes"/>
      <point x="50" y="24"/>
      <point x="69" y="-6"/>
      <point x="123" y="-6" type="curve" smooth="yes"/>
      <point x="170" y="-6"/>
      <point x="238" y="16"/>
      <point x="293" y="66" type="curve" smooth="yes"/>
    </contour>
  </outline>
</glyph>
<glyph name="sterling" format="2">
  <advance width="392"/>
  <unicode hex="00A3"/>
  <outline>
    <contour>
      <point x="69" y="137" type="move"/>
      <point x="129" y="152"/>
      <point x="249" y="166"/>
      <point x="319" y="170" type="curve"/>
    </contour>
    <contour>
      <point x="298" y="254" type="move"/>
      <point x="299" y="295"/>
      <point x="297" y="332"/>
      <point x="291" y="356" type="curve" smooth="yes"/>
      <point x="286" y="375"/>
      <point x="276" y="380"/>
      <point x="264" y="380" type="curve" smooth="yes"/>
      <point x="246" y="380"/>
      <point x="232" y="365"/>
      <point x="226" y="344" type="curve" smooth="yes"/>
      <point x="215" y="305"/>
      <point x="160" y="45"/>
      <point x="150" y="19" type="curve" smooth="yes"/>
      <point x="137" y="-15"/>
      <point x="120" y="-26"/>
      <point x="107" y="-26" type="curve" smooth="yes"/>
      <point x="77" y="-26"/>
      <point x="40" y="29"/>
      <point x="40" y="55" type="curve" smooth="yes"/>
      <point x="40" y="65"/>
      <point x="45" y="70"/>
      <point x="52" y="70" type="curve" smooth="yes"/>
      <point x="70" y="70"/>
      <point x="122" y="30"/>
      <point x="158" y="5" type="curve" smooth="yes"/>
      <point x="190" y="-15"/>
      <point x="218" y="-35"/>
      <point x="251" y="-35" type="curve" smooth="yes"/>
      <point x="306" y="-35"/>
      <point x="354" y="19"/>
      <point x="362" y="59" type="curve" smooth="yes"/>
    </contour>
  </outline>
</glyph>
<glyph name="currency" format="2">
  <advance width="588"/>
  <unicode hex="00A4"/>
  <outline>
    <contour>
      <point x="102" y="-45" type="move"/>
      <point x="133" y="-10"/>
      <point x="162" y="19"/>
      <point x="195" y="50" type="curve"/>
    </contour>
    <contour>
      <point x="198" y="241" type="move"/>
      <point x="160" y="276"/>
      <point x="134" y="303"/>
      <point x="100" y="340" type="curve"/>
    </contour>
    <contour>
      <point x="487" y="-45" type="move"/>
      <point x="450" y="-12"/>
      <point x="426" y="10"/>
      <point x="391" y="47" type="curve"/>
    </contour>
    <contour>
      <point x="283" y="301" type="move"/>
      <point x="197" y="301"/>
      <point x="135" y="232"/>
      <point x="135" y="148" type="curve" smooth="yes"/>
      <point x="135" y="59"/>
      <point x="206" y="-13"/>
      <point x="294" y="-13" type="curve" smooth="yes"/>
      <point x="382" y="-13"/>
      <point x="455" y="59"/>
      <point x="455" y="156" type="curve" smooth="yes"/>
      <point x="455" y="244"/>
      <point x="394" y="321"/>
      <point x="305" y="321" type="curve"/>
    </contour>
    <contour>
      <point x="402" y="252" type="move"/>
      <point x="439" y="286"/>
      <point x="455" y="304"/>
      <point x="488" y="340" type="curve"/>
    </contour>
  </outline>
</glyph>
<glyph name="yen" format="2">
  <advance width="345"/>
  <unicode hex="00A5"/>
  <outline>
    <contour>
      <point x="93" y="361" type="move"/>
      <point x="93" y="257"/>
      <point x="131" y="180"/>
      <point x="182" y="135" type="curve"/>
    </contour>
    <contour>
      <point x="148" y="-50" type="move"/>
      <point x="139" y="-44"/>
      <point x="135" y="-33"/>
      <point x="135" y="-21" type="curve" smooth="yes"/>
      <point x="135" y="16"/>
      <point x="167" y="86"/>
      <point x="187" y="125" type="curve" smooth="yes"/>
      <point x="224" y="202"/>
      <point x="269" y="266"/>
      <point x="315" y="372" type="curve"/>
    </contour>
    <contour>
      <point x="40" y="36" type="move"/>
      <point x="131" y="56"/>
      <point x="200" y="64"/>
      <point x="281" y="65" type="curve"/>
    </contour>
    <contour>
      <point x="54" y="113" type="move"/>
      <point x="145" y="133"/>
      <point x="214" y="140"/>
      <point x="294" y="142" type="curve"/>
    </contour>
  </outline>
</glyph>
<glyph name="brokenbar" format="2">
  <advance width="248"/>
  <unicode hex="00A6"/>
  <outline>
    <contour>
      <point x="168" y="681" type="move"/>
      <point x="163" y="590"/>
      <point x="154" y="468"/>
      <point x="143" y="341" type="curve"/>
    </contour>
    <contour>
      <point x="128" y="174" type="move"/>
      <point x="116" y="49"/>
      <point x="102" y="-70"/>
      <point x="90" y="-157" type="curve"/>
    </contour>
  </outline>
</glyph>
<glyph name="section" format="2">
  <advance width="427"/>
  <unicode hex="00A7"/>
  <outline>
    <contour>
      <point x="248" y="468" type="move"/>
      <point x="307" y="511"/>
      <point x="343" y="548"/>
      <point x="343" y="565" type="curve" smooth="yes"/>
      <point x="343" y="568"/>
      <point x="341" y="571"/>
      <point x="336" y="571" type="curve" smooth="yes"/>
      <point x="329" y="571"/>
      <point x="318" y="566"/>
      <point x="309" y="562" type="curve" smooth="yes"/>
      <point x="215" y="516"/>
      <point x="140" y="449"/>
      <point x="140" y="393" type="curve" smooth="yes"/>
      <point x="140" y="346"/>
      <point x="194" y="328"/>
      <point x="241" y="313" type="curve" smooth="yes"/>
      <point x="296" y="294"/>
      <point x="357" y="277"/>
      <point x="357" y="238" type="curve" smooth="yes"/>
      <point x="357" y="186"/>
      <point x="252" y="104"/>
      <point x="185" y="73" type="curve"/>
    </contour>
    <contour>
      <point x="234" y="312" type="move"/>
      <point x="153" y="269"/>
      <point x="80" y="204"/>
      <point x="80" y="151" type="curve" smooth="yes"/>
      <point x="80" y="104"/>
      <point x="137" y="82"/>
      <point x="180" y="70" type="curve" smooth="yes"/>
      <point x="241" y="53"/>
      <point x="306" y="37"/>
      <point x="306" y="-3" type="curve" smooth="yes"/>
      <point x="306" y="-62"/>
      <point x="167" y="-179"/>
      <point x="125" y="-179" type="curve" smooth="yes"/>
      <point x="118" y="-179"/>
      <point x="115" y="-176"/>
      <point x="115" y="-171" type="curve" smooth="yes"/>
      <point x="115" y="-144"/>
      <point x="190" y="-95"/>
      <point x="350" y="-51" type="curve"/>
    </contour>
  </outline>
</glyph>
<glyph name="dieresis" format="2">
  <advance width="181"/>
  <unicode hex="00A8"/>
  <anchor x="91" y="300" name="_top"/>
  <anchor x="91" y="539" name="top"/>
  <outline>
    <contour>
      <point x="10" y="413" type="move"/>
      <point x="30" y="434"/>
      <point x="57" y="477"/>
      <point x="68" y="505" type="curve"/>
    </contour>
    <contour>
      <point x="117" y="413" type="move"/>
      <point x="137" y="434"/>
      <point x="162" y="478"/>
      <point x="171" y="506" type="curve"/>
    </contour>
  </outline>
</glyph>
<glyph name="copyright" format="2">
  <advance width="459"/>
  <unicode hex="00A9"/>
  <anchor x="237" y="310.2" name="bottom"/>
  <anchor x="270.2" y="503" name="top"/>
  <outline>
    <contour identifier="ID0x122cde300">
      <point x="317" y="329" type="move"/>
      <point x="289" y="298"/>
      <point x="260" y="277"/>
      <point x="226" y="277" type="curve" smooth="yes"/>
      <point x="185" y="277"/>
      <point x="158" y="309"/>
      <point x="157" y="359" type="curve" smooth="yes"/>
      <point x="155" y="437"/>
      <point x="214" y="513"/>
      <point x="267" y="513" type="curve" smooth="yes"/>
      <point x="291" y="513"/>
      <point x="298" y="499"/>
      <point x="298" y="477" type="curve" smooth="yes"/>
      <point x="298" y="451"/>
      <point x="287" y="416"/>
      <point x="278" y="392" type="curve"/>
    </contour>
    <contour>
      <point x="278" y="392" type="move"/>
      <point x="281" y="415"/>
      <point x="285" y="438"/>
      <point x="292" y="459" type="curve"/>
    </contour>
    <contour>
      <point x="226" y="581" type="move"/>
      <point x="118" y="581"/>
      <point x="30" y="495"/>
      <point x="30" y="390" type="curve" smooth="yes"/>
      <point x="30" y="287"/>
      <point x="118" y="199"/>
      <point x="227" y="199" type="curve" smooth="yes"/>
      <point x="350" y="199"/>
      <point x="429" y="287"/>
      <point x="429" y="400" type="curve" smooth="yes"/>
      <point x="429" y="514"/>
      <point x="350" y="608"/>
      <point x="228" y="608" type="curve"/>
    </contour>
  </outline>
</glyph>
<glyph name="ordfeminine" format="2">
  <advance width="369"/>
  <unicode hex="00AA"/>
  <anchor x="191.6" y="309" name="bottom"/>
  <anchor x="290" y="364.2" name="ogonek"/>
  <anchor x="280.4" y="549" name="top"/>
  <outline>
    <contour identifier="ID0x120d9bf50">
      <point x="30" y="398" type="move"/>
      <point x="44" y="411" type="line" smooth="yes"/>
      <point x="108" y="475"/>
      <point x="183" y="535"/>
      <point x="268" y="591" type="curve"/>
    </contour>
    <contour>
      <point x="268" y="591" type="move"/>
      <point x="269" y="589" type="line"/>
    </contour>
    <contour>
      <point x="269" y="589" type="move"/>
      <point x="182" y="524"/>
      <point x="63" y="408"/>
      <point x="63" y="353" type="curve" smooth="yes"/>
      <point x="63" y="341"/>
      <point x="68" y="334"/>
      <point x="80" y="334" type="curve" smooth="yes"/>
      <point x="106" y="334"/>
      <point x="163" y="374"/>
      <point x="268" y="487" type="curve"/>
    </contour>
    <contour>
      <point x="268" y="487" type="move"/>
      <point x="260" y="464"/>
      <point x="256" y="438"/>
      <point x="256" y="419" type="curve" smooth="yes"/>
      <point x="256" y="385"/>
      <point x="272" y="364"/>
      <point x="298" y="364" type="curve" smooth="yes"/>
      <point x="314" y="364"/>
      <point x="333" y="372"/>
      <point x="354" y="393" type="curve" smooth="yes"/>
      <point x="359" y="398" type="line"/>
    </contour>
  </outline>
</glyph>
<glyph name="guillemotleft" format="2">
  <advance width="423"/>
  <unicode hex="00AB"/>
  <outline>
    <contour identifier="ID0x122c44960">
      <point x="383" y="338" type="move"/>
      <point x="339" y="307"/>
      <point x="279" y="257"/>
      <point x="240" y="213" type="curve" smooth="yes"/>
      <point x="224" y="194"/>
      <point x="214" y="177"/>
      <point x="214" y="159" type="curve" smooth="yes"/>
      <point x="214" y="122"/>
      <point x="243" y="63"/>
      <point x="285" y="11" type="curve"/>
    </contour>
    <contour identifier="ID0x122c336b0">
      <point x="224" y="337" type="move"/>
      <point x="180" y="306"/>
      <point x="120" y="256"/>
      <point x="81" y="212" type="curve" smooth="yes"/>
      <point x="65" y="193"/>
      <point x="55" y="176"/>
      <point x="55" y="158" type="curve" smooth="yes"/>
      <point x="55" y="121"/>
      <point x="84" y="62"/>
      <point x="126" y="10" type="curve"/>
    </contour>
  </outline>
</glyph>
<glyph name="logicalnot" format="2">
  <advance width="427"/>
  <unicode hex="00AC"/>
  <outline>
    <contour>
      <point x="356" y="32" type="move"/>
      <point x="355" y="83"/>
      <point x="355" y="135"/>
      <point x="357" y="177" type="curve"/>
      <point x="260" y="181"/>
      <point x="152" y="181"/>
      <point x="50" y="177" type="curve"/>
    </contour>
  </outline>
</glyph>
<glyph name="uni00AD" format="2">
  <advance width="296"/>
  <unicode hex="00AD"/>
  <outline>
    <contour>
      <point x="70" y="145" type="move"/>
      <point x="136" y="141"/>
      <point x="187" y="144"/>
      <point x="241" y="151" type="curve"/>
    </contour>
  </outline>
</glyph>
<glyph name="registered" format="2">
  <advance width="459"/>
  <unicode hex="00AE"/>
  <anchor x="215.8" y="298" name="bottom"/>
  <anchor x="239.8" y="510" name="top"/>
  <outline>
    <contour>
      <point x="199" y="466" type="move"/>
      <point x="191" y="405"/>
      <point x="181" y="345"/>
      <point x="168" y="284" type="curve"/>
    </contour>
    <contour>
      <point x="168" y="284" type="move"/>
      <point x="177" y="372"/>
      <point x="181" y="447"/>
      <point x="179" y="512" type="curve"/>
      <point x="192" y="514"/>
      <point x="203" y="515"/>
      <point x="211" y="515" type="curve" smooth="yes"/>
      <point x="256" y="515"/>
      <point x="301" y="494"/>
      <point x="301" y="466" type="curve" smooth="yes"/>
      <point x="301" y="429"/>
      <point x="218" y="391"/>
      <point x="159" y="372" type="curve"/>
      <point x="205" y="338"/>
      <point x="249" y="308"/>
      <point x="316" y="270" type="curve"/>
    </contour>
    <contour>
      <point x="226" y="581" type="move"/>
      <point x="118" y="581"/>
      <point x="30" y="495"/>
      <point x="30" y="390" type="curve" smooth="yes"/>
      <point x="30" y="287"/>
      <point x="118" y="199"/>
      <point x="227" y="199" type="curve" smooth="yes"/>
      <point x="350" y="199"/>
      <point x="429" y="287"/>
      <point x="429" y="400" type="curve" smooth="yes"/>
      <point x="429" y="514"/>
      <point x="350" y="608"/>
      <point x="228" y="608" type="curve"/>
    </contour>
  </outline>
</glyph>
<glyph name="macron" format="2">
  <advance width="241"/>
  <unicode hex="00AF"/>
  <anchor x="121" y="275" name="_top"/>
  <anchor x="121" y="447" name="top"/>
  <outline>
    <contour>
      <point x="231" y="447" type="move"/>
      <point x="163" y="435"/>
      <point x="77" y="435"/>
      <point x="10" y="447" type="curve"/>
    </contour>
  </outline>
</glyph>
<glyph name="degree" format="2">
  <advance width="293"/>
  <unicode hex="00B0"/>
  <outline>
    <contour>
      <point x="113" y="490" type="move"/>
      <point x="94" y="478"/>
      <point x="80" y="458"/>
      <point x="80" y="432" type="curve" smooth="yes"/>
      <point x="80" y="402"/>
      <point x="100" y="377"/>
      <point x="138" y="377" type="curve" smooth="yes"/>
      <point x="174" y="377"/>
      <point x="213" y="400"/>
      <point x="213" y="446" type="curve" smooth="yes"/>
      <point x="213" y="489"/>
      <point x="178" y="525"/>
      <point x="130" y="526" type="curve" smooth="yes"/>
      <point x="126" y="526"/>
      <point x="122" y="526"/>
      <point x="116" y="525" type="curve"/>
    </contour>
  </outline>
</glyph>
<glyph name="plusminus" format="2">
  <advance width="421"/>
  <unicode hex="00B1"/>
  <outline>
    <contour>
      <point x="205" y="84" type="move"/>
      <point x="211" y="151"/>
      <point x="218" y="242"/>
      <point x="221" y="318" type="curve"/>
    </contour>
    <contour>
      <point x="361" y="204" type="move"/>
      <point x="264" y="206"/>
      <point x="156" y="202"/>
      <point x="60" y="197" type="curve"/>
    </contour>
    <contour>
      <point x="361" y="15" type="move"/>
      <point x="264" y="18"/>
      <point x="156" y="12"/>
      <point x="60" y="5" type="curve"/>
    </contour>
  </outline>
</glyph>
<glyph name="uni00B2" format="2">
  <advance width="239"/>
  <unicode hex="00B2"/>
  <outline>
    <contour identifier="ID0x120d3c1d0">
      <point x="65" y="500" type="move"/>
      <point x="60" y="512"/>
      <point x="58" y="520"/>
      <point x="58" y="529" type="curve" smooth="yes"/>
      <point x="58" y="561"/>
      <point x="84" y="572"/>
      <point x="115" y="572" type="curve" smooth="yes"/>
      <point x="156" y="572"/>
      <point x="194" y="552"/>
      <point x="194" y="520" type="curve" smooth="yes"/>
      <point x="194" y="474"/>
      <point x="117" y="372"/>
      <point x="55" y="304" type="curve" smooth="yes"/>
    </contour>
    <contour>
      <point x="55" y="304" type="move"/>
      <point x="55" y="301" type="line"/>
    </contour>
    <contour>
      <point x="55" y="301" type="move"/>
      <point x="71" y="297"/>
      <point x="96" y="294"/>
      <point x="119" y="294" type="curve" smooth="yes"/>
      <point x="145" y="294"/>
      <point x="184" y="298"/>
      <point x="204" y="303" type="curve" smooth="yes"/>
    </contour>
  </outline>
</glyph>
<glyph name="uni00B3" format="2">
  <advance width="211"/>
  <unicode hex="00B3"/>
  <outline>
    <contour identifier="ID0x120d300f0">
      <point x="44" y="544" type="move"/>
      <point x="70" y="558"/>
      <point x="100" y="568"/>
      <point x="131" y="568" type="curve" smooth="yes"/>
      <point x="151" y="568"/>
      <point x="165" y="564"/>
      <point x="165" y="551" type="curve" smooth="yes"/>
      <point x="165" y="527"/>
      <point x="117" y="461"/>
      <point x="79" y="416" type="curve"/>
    </contour>
    <contour>
      <point x="79" y="416" type="move"/>
      <point x="79" y="414" type="line"/>
    </contour>
    <contour>
      <point x="79" y="414" type="move"/>
      <point x="127" y="400"/>
      <point x="173" y="379"/>
      <point x="173" y="358" type="curve" smooth="yes"/>
      <point x="173" y="333"/>
      <point x="108" y="288"/>
      <point x="30" y="266" type="curve"/>
    </contour>
  </outline>
</glyph>
<glyph name="uni00B5" format="2">
  <advance width="455"/>
  <unicode hex="00B5"/>
  <anchor x="247" y="20" name="bottom"/>
  <anchor x="119" y="6" name="ogonek"/>
  <anchor x="262" y="280" name="top"/>
  <outline>
    <contour>
      <point x="329" y="215" type="move"/>
      <point x="323" y="187"/>
      <point x="321" y="164"/>
      <point x="321" y="148" type="curve" smooth="yes"/>
      <point x="321" y="98"/>
      <point x="340" y="64"/>
      <point x="373" y="64" type="curve" smooth="yes"/>
      <point x="394" y="64"/>
      <point x="422" y="78"/>
      <point x="446" y="102" type="curve" smooth="yes"/>
      <point x="455" y="111" type="line"/>
    </contour>
    <contour>
      <point x="158" y="299" type="move"/>
      <point x="117" y="208"/>
      <point x="100" y="134"/>
      <point x="100" y="81" type="curve" smooth="yes"/>
      <point x="100" y="32"/>
      <point x="114" y="6"/>
      <point x="139" y="6" type="curve" smooth="yes"/>
      <point x="192" y="6"/>
      <point x="276" y="124"/>
      <point x="329" y="215" type="curve"/>
    </contour>
    <contour>
      <point x="31" y="-305" type="move"/>
      <point x="19" y="-146"/>
      <point x="146" y="214"/>
      <point x="158" y="299" type="curve"/>
    </contour>
  </outline>
</glyph>
<glyph name="paragraph" format="2">
  <advance width="464"/>
  <unicode hex="00B6"/>
  <anchor x="158" y="63" name="bottom"/>
  <anchor x="266" y="270" name="top"/>
  <outline>
    <contour>
      <point x="244" y="333" type="move"/>
      <point x="232" y="177"/>
      <point x="210" y="-47"/>
      <point x="188" y="-221" type="curve"/>
    </contour>
    <contour identifier="ID0x1397bbc20">
      <point x="265" y="295" type="move"/>
      <point x="175" y="268"/>
      <point x="60" y="176"/>
      <point x="60" y="68" type="curve" smooth="yes"/>
      <point x="60" y="24"/>
      <point x="79" y="-6"/>
      <point x="126" y="-6" type="curve" smooth="yes"/>
      <point x="175" y="-6"/>
      <point x="226" y="27"/>
      <point x="279" y="80" type="curve" smooth="yes"/>
      <point x="310" y="111" type="line"/>
    </contour>
    <contour>
      <point x="364" y="333" type="move"/>
      <point x="352" y="177"/>
      <point x="330" y="-47"/>
      <point x="308" y="-221" type="curve"/>
    </contour>
  </outline>
</glyph>
<glyph name="periodcentered" format="2">
  <advance width="189"/>
  <unicode hex="00B7"/>
  <outline>
    <contour>
      <point x="107" y="220" type="move"/>
      <point x="116" y="215"/>
      <point x="119" y="207"/>
      <point x="119" y="200" type="curve" smooth="yes"/>
      <point x="119" y="177"/>
      <point x="89" y="147"/>
      <point x="70" y="130" type="curve"/>
    </contour>
  </outline>
</glyph>
<glyph name="cedilla" format="2">
  <advance width="84"/>
  <unicode hex="00B8"/>
  <anchor x="74" y="0" name="_bottom"/>
  <anchor x="74" y="-171" name="bottom"/>
  <outline>
    <contour>
      <point x="74" y="0" type="move"/>
      <point x="60" y="-50"/>
      <point x="33" y="-126"/>
      <point x="10" y="-181" type="curve"/>
    </contour>
  </outline>
</glyph>
<glyph name="uni00B9" format="2">
  <advance width="197"/>
  <unicode hex="00B9"/>
  <outline>
    <contour identifier="ID0x120d3bf10">
      <point x="30" y="459" type="move"/>
      <point x="67" y="495"/>
      <point x="111" y="533"/>
      <point x="154" y="569" type="curve"/>
    </contour>
    <contour>
      <point x="154" y="569" type="move"/>
      <point x="157" y="567" type="line"/>
    </contour>
    <contour>
      <point x="157" y="567" type="move"/>
      <point x="147" y="498"/>
      <point x="125" y="393"/>
      <point x="93" y="281" type="curve"/>
    </contour>
  </outline>
</glyph>
<glyph name="ordmasculine" format="2">
  <advance width="285"/>
  <unicode hex="00BA"/>
  <anchor x="183.4" y="339" name="bottom"/>
  <anchor x="183.4" y="480.6" name="center"/>
  <anchor x="247.4" y="551" name="top"/>
  <outline>
    <contour>
      <point x="155" y="484" type="move"/>
      <point x="171" y="524"/>
      <point x="203" y="551"/>
      <point x="235" y="551" type="curve" smooth="yes"/>
      <point x="263" y="551"/>
      <point x="275" y="529"/>
      <point x="275" y="498" type="curve" smooth="yes"/>
      <point x="273" y="420"/>
      <point x="188" y="335"/>
      <point x="130" y="335" type="curve" smooth="yes"/>
      <point x="103" y="335"/>
      <point x="85" y="353"/>
      <point x="85" y="389" type="curve" smooth="yes"/>
      <point x="85" y="439"/>
      <point x="119" y="504"/>
      <point x="173" y="563" type="curve"/>
      <point x="107" y="507"/>
      <point x="71" y="469"/>
      <point x="40" y="439" type="curve" smooth="yes"/>
      <point x="25" y="424" type="line"/>
    </contour>
  </outline>
</glyph>
<glyph name="guillemotright" format="2">
  <advance width="454"/>
  <unicode hex="00BB"/>
  <outline>
    <contour identifier="ID0x122c64370">
      <point x="60" y="10" type="move"/>
      <point x="104" y="41"/>
      <point x="164" y="91"/>
      <point x="203" y="135" type="curve" smooth="yes"/>
      <point x="219" y="154"/>
      <point x="229" y="171"/>
      <point x="229" y="189" type="curve" smooth="yes"/>
      <point x="229" y="226"/>
      <point x="200" y="285"/>
      <point x="158" y="337" type="curve"/>
    </contour>
    <contour identifier="ID0x122cfe600">
      <point x="230" y="10" type="move"/>
      <point x="274" y="41"/>
      <point x="334" y="91"/>
      <point x="373" y="135" type="curve" smooth="yes"/>
      <point x="389" y="154"/>
      <point x="399" y="171"/>
      <point x="399" y="189" type="curve" smooth="yes"/>
      <point x="399" y="226"/>
      <point x="370" y="285"/>
      <point x="328" y="337" type="curve"/>
    </contour>
  </outline>
</glyph>
<glyph name="onequarter" format="2">
  <advance width="609"/>
  <unicode hex="00BC"/>
  <outline>
    <contour>
      <point x="50" y="233" type="move"/>
      <point x="92" y="269"/>
      <point x="149" y="304"/>
      <point x="193" y="322" type="curve"/>
    </contour>
    <contour>
      <point x="193" y="322" type="move"/>
      <point x="195" y="320" type="line"/>
    </contour>
    <contour>
      <point x="195" y="320" type="move"/>
      <point x="187" y="245"/>
      <point x="168" y="165"/>
      <point x="138" y="69" type="curve"/>
    </contour>
    <contour>
      <point x="187" y="-77" type="move"/>
      <point x="242" y="46"/>
      <point x="365" y="211"/>
      <point x="418" y="327" type="curve" smooth="yes"/>
    </contour>
    <contour>
      <point x="543" y="86" type="move"/>
      <point x="518" y="3"/>
      <point x="501" y="-84"/>
      <point x="487" y="-199" type="curve"/>
    </contour>
    <contour>
      <point x="473" y="179" type="move"/>
      <point x="443" y="135"/>
      <point x="388" y="7"/>
      <point x="388" y="-47" type="curve" smooth="yes"/>
      <point x="388" y="-77"/>
      <point x="404" y="-81"/>
      <point x="427" y="-81" type="curve" smooth="yes"/>
      <point x="474" y="-81"/>
      <point x="548" y="-60"/>
      <point x="569" y="-52" type="curve" smooth="yes"/>
    </contour>
  </outline>
</glyph>
<glyph name="onehalf" format="2">
  <advance width="626"/>
  <unicode hex="00BD"/>
  <outline>
    <contour>
      <point x="50" y="233" type="move"/>
      <point x="92" y="269"/>
      <point x="149" y="304"/>
      <point x="193" y="322" type="curve"/>
    </contour>
    <contour>
      <point x="193" y="322" type="move"/>
      <point x="195" y="320" type="line"/>
    </contour>
    <contour>
      <point x="195" y="320" type="move"/>
      <point x="187" y="245"/>
      <point x="168" y="165"/>
      <point x="138" y="69" type="curve"/>
    </contour>
    <contour>
      <point x="187" y="-77" type="move"/>
      <point x="242" y="46"/>
      <point x="365" y="211"/>
      <point x="418" y="327" type="curve" smooth="yes"/>
    </contour>
    <contour>
      <point x="396" y="67" type="move"/>
      <point x="392" y="77"/>
      <point x="391" y="85"/>
      <point x="391" y="92" type="curve" smooth="yes"/>
      <point x="391" y="121"/>
      <point x="415" y="133"/>
      <point x="449" y="133" type="curve" smooth="yes"/>
      <point x="487" y="133"/>
      <point x="545" y="119"/>
      <point x="545" y="79" type="curve" smooth="yes"/>
      <point x="545" y="23"/>
      <point x="435" y="-67"/>
      <point x="383" y="-109" type="curve"/>
    </contour>
    <contour>
      <point x="383" y="-109" type="move"/>
      <point x="383" y="-112" type="line"/>
    </contour>
    <contour>
      <point x="383" y="-112" type="move"/>
      <point x="440" y="-123"/>
      <point x="508" y="-123"/>
      <point x="566" y="-114" type="curve"/>
    </contour>
  </outline>
</glyph>
<glyph name="threequarters" format="2">
  <advance width="649"/>
  <unicode hex="00BE"/>
  <outline>
    <contour identifier="ID0x120df04f0">
      <point x="86" y="381" type="move"/>
      <point x="114" y="401"/>
      <point x="160" y="418"/>
      <point x="198" y="418" type="curve" smooth="yes"/>
      <point x="216" y="418"/>
      <point x="233" y="413"/>
      <point x="233" y="395" type="curve" smooth="yes"/>
      <point x="233" y="362"/>
      <point x="168" y="283"/>
      <point x="126" y="236" type="curve"/>
    </contour>
    <contour>
      <point x="126" y="236" type="move"/>
      <point x="163" y="229"/>
      <point x="242" y="205"/>
      <point x="242" y="170" type="curve" smooth="yes"/>
      <point x="242" y="138"/>
      <point x="184" y="87"/>
      <point x="66" y="71" type="curve"/>
    </contour>
    <contour>
      <point x="227" y="-77" type="move"/>
      <point x="282" y="46"/>
      <point x="405" y="211"/>
      <point x="458" y="327" type="curve" smooth="yes"/>
    </contour>
    <contour>
      <point x="583" y="86" type="move"/>
      <point x="558" y="3"/>
      <point x="541" y="-84"/>
      <point x="527" y="-199" type="curve"/>
    </contour>
    <contour>
      <point x="513" y="179" type="move"/>
      <point x="483" y="135"/>
      <point x="428" y="7"/>
      <point x="428" y="-47" type="curve" smooth="yes"/>
      <point x="428" y="-77"/>
      <point x="444" y="-81"/>
      <point x="467" y="-81" type="curve" smooth="yes"/>
      <point x="514" y="-81"/>
      <point x="588" y="-60"/>
      <point x="609" y="-52" type="curve" smooth="yes"/>
    </contour>
  </outline>
</glyph>
<glyph name="questiondown" format="2">
  <advance width="316"/>
  <unicode hex="00BF"/>
  <outline>
    <contour>
      <point x="186" y="152" type="move"/>
      <point x="200" y="175"/>
      <point x="223" y="203"/>
      <point x="244" y="225" type="curve"/>
    </contour>
    <contour>
      <point x="213" y="-258" type="move"/>
      <point x="232" y="-277"/>
      <point x="246" y="-301"/>
      <point x="246" y="-318" type="curve" smooth="yes"/>
      <point x="246" y="-332"/>
      <point x="237" y="-342"/>
      <point x="219" y="-342" type="curve" smooth="yes"/>
      <point x="176" y="-342"/>
      <point x="30" y="-293"/>
      <point x="30" y="-190" type="curve" smooth="yes"/>
      <point x="30" y="-127"/>
      <point x="85" y="-24"/>
      <point x="145" y="67" type="curve" smooth="yes"/>
    </contour>
  </outline>
</glyph>
<glyph name="Agrave" format="2">
  <advance width="419"/>
  <unicode hex="00C0"/>
  <anchor x="213" y="2" name="bottom"/>
  <anchor x="335" y="-15" name="ogonek"/>
  <anchor x="291" y="802" name="top"/>
  <outline>
    <contour>
      <point x="15" y="-46" type="move"/>
      <point x="64" y="166"/>
      <point x="177" y="434"/>
      <point x="277" y="617" type="curve"/>
    </contour>
    <contour>
      <point x="379" y="259" type="move"/>
      <point x="228" y="235"/>
      <point x="118" y="210"/>
      <point x="24" y="178" type="curve"/>
    </contour>
    <contour>
      <point x="201" y="575" type="move"/>
      <point x="246" y="562"/>
      <point x="312" y="529"/>
      <point x="331" y="498" type="curve" smooth="yes"/>
      <point x="351" y="466"/>
      <point x="352" y="349"/>
      <point x="352" y="271" type="curve" smooth="yes"/>
      <point x="351" y="183"/>
      <point x="347" y="90"/>
      <point x="335" y="-15" type="curve" smooth="yes"/>
    </contour>
    <contour>
      <point x="341" y="651" type="move"/>
      <point x="273" y="695"/>
      <point x="221" y="728"/>
      <point x="178" y="735" type="curve"/>
    </contour>
  </outline>
</glyph>
<glyph name="Acircumflex" format="2">
  <advance width="419"/>
  <unicode hex="00C2"/>
  <anchor x="213" y="2" name="bottom"/>
  <anchor x="335" y="-15" name="ogonek"/>
  <anchor x="291" y="753" name="top"/>
  <outline>
    <contour>
      <point x="15" y="-46" type="move"/>
      <point x="64" y="166"/>
      <point x="177" y="434"/>
      <point x="277" y="617" type="curve"/>
    </contour>
    <contour>
      <point x="379" y="259" type="move"/>
      <point x="228" y="235"/>
      <point x="118" y="210"/>
      <point x="24" y="178" type="curve"/>
    </contour>
    <contour>
      <point x="201" y="575" type="move"/>
      <point x="246" y="562"/>
      <point x="312" y="529"/>
      <point x="331" y="498" type="curve" smooth="yes"/>
      <point x="351" y="466"/>
      <point x="352" y="349"/>
      <point x="352" y="271" type="curve" smooth="yes"/>
      <point x="351" y="183"/>
      <point x="347" y="90"/>
      <point x="335" y="-15" type="curve" smooth="yes"/>
    </contour>
    <contour>
      <point x="185" y="682" type="move"/>
      <point x="222" y="703"/>
      <point x="261" y="721"/>
      <point x="291" y="733" type="curve"/>
      <point x="321" y="721"/>
      <point x="360" y="703"/>
      <point x="397" y="682" type="curve"/>
    </contour>
  </outline>
</glyph>
<glyph name="Atilde" format="2">
  <advance width="419"/>
  <unicode hex="00C3"/>
  <anchor x="213" y="2" name="bottom"/>
  <anchor x="335" y="-15" name="ogonek"/>
  <anchor x="291" y="745" name="top"/>
  <outline>
    <contour>
      <point x="15" y="-46" type="move"/>
      <point x="64" y="166"/>
      <point x="177" y="434"/>
      <point x="277" y="617" type="curve"/>
    </contour>
    <contour>
      <point x="379" y="259" type="move"/>
      <point x="228" y="235"/>
      <point x="118" y="210"/>
      <point x="24" y="178" type="curve"/>
    </contour>
    <contour>
      <point x="201" y="575" type="move"/>
      <point x="246" y="562"/>
      <point x="312" y="529"/>
      <point x="331" y="498" type="curve" smooth="yes"/>
      <point x="351" y="466"/>
      <point x="352" y="349"/>
      <point x="352" y="271" type="curve" smooth="yes"/>
      <point x="351" y="183"/>
      <point x="347" y="90"/>
      <point x="335" y="-15" type="curve" smooth="yes"/>
    </contour>
    <contour>
      <point x="161" y="692" type="move"/>
      <point x="203" y="717"/>
      <point x="260" y="745"/>
      <point x="283" y="745" type="curve" smooth="yes"/>
      <point x="317" y="745"/>
      <point x="292" y="683"/>
      <point x="318" y="683" type="curve" smooth="yes"/>
      <point x="331" y="683"/>
      <point x="380" y="699"/>
      <point x="420" y="722" type="curve" smooth="yes"/>
    </contour>
  </outline>
</glyph>
<glyph name="Adieresis" format="2">
  <advance width="419"/>
  <unicode hex="00C4"/>
  <anchor x="213" y="2" name="bottom"/>
  <anchor x="335" y="-15" name="ogonek"/>
  <anchor x="291" y="786" name="top"/>
  <outline>
    <contour>
      <point x="15" y="-46" type="move"/>
      <point x="64" y="166"/>
      <point x="177" y="434"/>
      <point x="277" y="617" type="curve"/>
    </contour>
    <contour>
      <point x="379" y="259" type="move"/>
      <point x="228" y="235"/>
      <point x="118" y="210"/>
      <point x="24" y="178" type="curve"/>
    </contour>
    <contour>
      <point x="201" y="575" type="move"/>
      <point x="246" y="562"/>
      <point x="312" y="529"/>
      <point x="331" y="498" type="curve" smooth="yes"/>
      <point x="351" y="466"/>
      <point x="352" y="349"/>
      <point x="352" y="271" type="curve" smooth="yes"/>
      <point x="351" y="183"/>
      <point x="347" y="90"/>
      <point x="335" y="-15" type="curve" smooth="yes"/>
    </contour>
    <contour>
      <point x="225" y="663" type="move"/>
      <point x="242" y="682"/>
      <point x="266" y="720"/>
      <point x="276" y="745" type="curve"/>
    </contour>
    <contour>
      <point x="312" y="663" type="move"/>
      <point x="329" y="682"/>
      <point x="353" y="720"/>
      <point x="363" y="745" type="curve"/>
    </contour>
  </outline>
</glyph>
<glyph name="Aring" format="2">
  <advance width="419"/>
  <unicode hex="00C5"/>
  <anchor x="213" y="2" name="bottom"/>
  <anchor x="335" y="-15" name="ogonek"/>
  <anchor x="291" y="780" name="top"/>
  <outline>
    <contour>
      <point x="15" y="-46" type="move"/>
      <point x="64" y="166"/>
      <point x="177" y="434"/>
      <point x="277" y="617" type="curve"/>
    </contour>
    <contour>
      <point x="379" y="259" type="move"/>
      <point x="228" y="235"/>
      <point x="118" y="210"/>
      <point x="24" y="178" type="curve"/>
    </contour>
    <contour>
      <point x="201" y="575" type="move"/>
      <point x="246" y="562"/>
      <point x="312" y="529"/>
      <point x="331" y="498" type="curve" smooth="yes"/>
      <point x="351" y="466"/>
      <point x="352" y="349"/>
      <point x="352" y="271" type="curve" smooth="yes"/>
      <point x="351" y="183"/>
      <point x="347" y="90"/>
      <point x="335" y="-15" type="curve" smooth="yes"/>
    </contour>
    <contour>
      <point x="284" y="768" type="move"/>
      <point x="247" y="768"/>
      <point x="218" y="749"/>
      <point x="218" y="721" type="curve" smooth="yes"/>
      <point x="218" y="694"/>
      <point x="246" y="674"/>
      <point x="287" y="674" type="curve" smooth="yes"/>
      <point x="333" y="674"/>
      <point x="363" y="698"/>
      <point x="363" y="728" type="curve" smooth="yes"/>
      <point x="363" y="757"/>
      <point x="334" y="780"/>
      <point x="286" y="780" type="curve"/>
    </contour>
  </outline>
</glyph>
<glyph name="AE" format="2">
  <advance width="556"/>
  <unicode hex="00C6"/>
  <outline>
    <contour>
      <point x="15" y="-23" type="move"/>
      <point x="73" y="184"/>
      <point x="223" y="514"/>
      <point x="323" y="600" type="curve"/>
    </contour>
    <contour>
      <point x="34" y="217" type="move"/>
      <point x="201" y="272"/>
      <point x="428" y="295"/>
      <point x="535" y="282" type="curve"/>
    </contour>
    <contour>
      <point x="538" y="50" type="move"/>
      <point x="469" y="13"/>
      <point x="390" y="-10"/>
      <point x="332" y="-10" type="curve" smooth="yes"/>
      <point x="273" y="-10"/>
      <point x="269" y="14"/>
      <point x="269" y="60" type="curve" smooth="yes"/>
      <point x="269" y="218"/>
      <point x="316" y="471"/>
      <point x="341" y="534" type="curve"/>
      <point x="379" y="548"/>
      <point x="446" y="565"/>
      <point x="500" y="564" type="curve" smooth="yes"/>
      <point x="526" y="564"/>
      <point x="547" y="560"/>
      <point x="561" y="552" type="curve"/>
    </contour>
  </outline>
</glyph>
<glyph name="Igrave" format="2">
  <advance width="218"/>
  <unicode hex="00CC"/>
  <anchor x="109" y="0" name="bottom"/>
  <anchor x="112" y="-4" name="ogonek"/>
  <anchor x="192" y="802" name="top"/>
  <anchor x="86" y="580" name="topleft"/>
  <outline>
    <contour>
      <point x="114" y="390" type="move"/>
      <point x="129" y="465"/>
      <point x="139" y="508"/>
      <point x="158" y="575" type="curve"/>
      <point x="163" y="576" type="line"/>
      <point x="124" y="379"/>
      <point x="95" y="165"/>
      <point x="95" y="47" type="curve" smooth="yes"/>
      <point x="95" y="30"/>
      <point x="100" y="9"/>
      <point x="112" y="-4" type="curve"/>
    </contour>
    <contour>
      <point x="242" y="651" type="move"/>
      <point x="174" y="695"/>
      <point x="122" y="728"/>
      <point x="79" y="735" type="curve"/>
    </contour>
  </outline>
</glyph>
<glyph name="Icircumflex" format="2">
  <advance width="218"/>
  <unicode hex="00CE"/>
  <anchor x="109" y="0" name="bottom"/>
  <anchor x="112" y="-4" name="ogonek"/>
  <anchor x="192" y="753" name="top"/>
  <anchor x="86" y="580" name="topleft"/>
  <outline>
    <contour>
      <point x="114" y="390" type="move"/>
      <point x="129" y="465"/>
      <point x="139" y="508"/>
      <point x="158" y="575" type="curve"/>
      <point x="163" y="576" type="line"/>
      <point x="124" y="379"/>
      <point x="95" y="165"/>
      <point x="95" y="47" type="curve" smooth="yes"/>
      <point x="95" y="30"/>
      <point x="100" y="9"/>
      <point x="112" y="-4" type="curve"/>
    </contour>
    <contour>
      <point x="86" y="682" type="move"/>
      <point x="123" y="703"/>
      <point x="162" y="721"/>
      <point x="192" y="733" type="curve"/>
      <point x="222" y="721"/>
      <point x="261" y="703"/>
      <point x="298" y="682" type="curve"/>
    </contour>
  </outline>
</glyph>
<glyph name="Eth" format="2">
  <advance width="468"/>
  <unicode hex="00D0"/>
  <anchor x="238" y="0" name="bottom"/>
  <anchor x="128" y="290" name="center"/>
  <anchor x="308" y="540" name="top"/>
  <outline>
    <contour>
      <point x="50" y="258" type="move"/>
      <point x="113" y="268"/>
      <point x="227" y="273"/>
      <point x="291" y="271" type="curve"/>
    </contour>
    <contour>
      <point x="183" y="497" type="move"/>
      <point x="146" y="361"/>
      <point x="110" y="167"/>
      <point x="88" y="16" type="curve"/>
    </contour>
    <contour>
      <point x="94" y="583" type="move"/>
      <point x="293" y="536"/>
      <point x="438" y="437"/>
      <point x="438" y="310" type="curve" smooth="yes"/>
      <point x="438" y="178"/>
      <point x="284" y="22"/>
      <point x="120" y="-52" type="curve"/>
    </contour>
    <contour>
      <point x="120" y="-52" type="move"/>
      <point x="190" y="-5"/>
      <point x="253" y="25"/>
      <point x="333" y="49" type="curve"/>
    </contour>
  </outline>
</glyph>
<glyph name="Ntilde" format="2">
  <advance width="519"/>
  <unicode hex="00D1"/>
  <anchor x="200" y="10" name="bottom"/>
  <anchor x="347" y="705" name="top"/>
  <outline>
    <contour>
      <point x="227" y="564" type="move"/>
      <point x="167" y="421"/>
      <point x="86" y="108"/>
      <point x="50" y="-34" type="curve"/>
    </contour>
    <contour>
      <point x="50" y="-34" type="move"/>
      <point x="110" y="210"/>
      <point x="129" y="353"/>
      <point x="148" y="524" type="curve"/>
      <point x="152" y="525" type="line"/>
      <point x="204" y="360"/>
      <point x="290" y="152"/>
      <point x="382" y="5" type="curve"/>
      <point x="395" y="10" type="line"/>
      <point x="442" y="217"/>
      <point x="467" y="413"/>
      <point x="484" y="593" type="curve"/>
    </contour>
    <contour>
      <point x="217" y="652" type="move"/>
      <point x="259" y="677"/>
      <point x="316" y="705"/>
      <point x="339" y="705" type="curve" smooth="yes"/>
      <point x="373" y="705"/>
      <point x="348" y="643"/>
      <point x="374" y="643" type="curve" smooth="yes"/>
      <point x="387" y="643"/>
      <point x="436" y="659"/>
      <point x="476" y="682" type="curve" smooth="yes"/>
    </contour>
  </outline>
</glyph>
<glyph name="Otilde" format="2">
  <advance width="511"/>
  <unicode hex="00D5"/>
  <anchor x="199" y="-1" name="bottom"/>
  <anchor x="254" y="290" name="center"/>
  <anchor x="192" y="-1" name="ogonek"/>
  <anchor x="363" y="699.5" name="top"/>
  <anchor x="11" y="580" name="topleft"/>
  <anchor x="496" y="580" name="topright"/>
  <outline>
    <contour>
      <point x="201" y="575" type="move"/>
      <point x="142" y="448"/>
      <point x="95" y="305"/>
      <point x="95" y="171" type="curve" smooth="yes"/>
      <point x="95" y="69"/>
      <point x="124" y="-1"/>
      <point x="199" y="-1" type="curve" smooth="yes"/>
      <point x="320" y="-1"/>
      <point x="471" y="184"/>
      <point x="471" y="374" type="curve" smooth="yes"/>
      <point x="471" y="483"/>
      <point x="422" y="560"/>
      <point x="342" y="561" type="curve" smooth="yes"/>
      <point x="228" y="563"/>
      <point x="119" y="410"/>
      <point x="55" y="258" type="curve" smooth="yes"/>
    </contour>
    <contour>
      <point x="246" y="652" type="move"/>
      <point x="284" y="674"/>
      <point x="335" y="700"/>
      <point x="356" y="700" type="curve" smooth="yes"/>
      <point x="386" y="700"/>
      <point x="364" y="644"/>
      <point x="387" y="644" type="curve" smooth="yes"/>
      <point x="399" y="644"/>
      <point x="443" y="658"/>
      <point x="479" y="679" type="curve" smooth="yes"/>
    </contour>
  </outline>
</glyph>
<glyph name="multiply" format="2">
  <advance width="391"/>
  <unicode hex="00D7"/>
  <outline>
    <contour>
      <point x="60" y="-6" type="move"/>
      <point x="137" y="88"/>
      <point x="251" y="212"/>
      <point x="324" y="287" type="curve"/>
    </contour>
    <contour>
      <point x="81" y="286" type="move"/>
      <point x="157" y="206"/>
      <point x="266" y="79"/>
      <point x="331" y="-4" type="curve"/>
    </contour>
  </outline>
</glyph>
<glyph name="Oslash" format="2">
  <advance width="482"/>
  <unicode hex="00D8"/>
  <outline>
    <contour>
      <point x="60" y="-46" type="move"/>
      <point x="161" y="160"/>
      <point x="298" y="346"/>
      <point x="430" y="612" type="curve"/>
    </contour>
    <contour>
      <point x="312" y="561" type="move"/>
      <point x="241" y="562"/>
      <point x="174" y="497"/>
      <point x="132" y="439" type="curve"/>
      <point x="89" y="344"/>
      <point x="66" y="255"/>
      <point x="66" y="171" type="curve" smooth="yes"/>
      <point x="66" y="69"/>
      <point x="95" y="-1"/>
      <point x="170" y="-1" type="curve" smooth="yes"/>
      <point x="291" y="-1"/>
      <point x="442" y="184"/>
      <point x="442" y="374" type="curve" smooth="yes"/>
      <point x="442" y="483"/>
      <point x="393" y="560"/>
      <point x="314" y="561" type="curve"/>
    </contour>
  </outline>
</glyph>
<glyph name="Uacute" format="2">
  <advance width="450"/>
  <unicode hex="00DA"/>
  <anchor x="166" y="1" name="bottom"/>
  <anchor x="354" y="-16" name="ogonek"/>
  <anchor x="269.1" y="749.8" name="top"/>
  <anchor x="447" y="745" name="topright"/>
  <outline>
    <contour>
      <point x="94" y="546" type="move"/>
      <point x="80" y="457"/>
      <point x="71" y="362"/>
      <point x="70" y="282" type="curve" smooth="yes"/>
      <point x="68" y="134"/>
      <point x="93" y="12"/>
      <point x="166" y="12" type="curve" smooth="yes"/>
      <point x="281" y="12"/>
      <point x="376" y="311"/>
      <point x="440" y="583" type="curve"/>
    </contour>
    <contour>
      <point x="440" y="583" type="move"/>
      <point x="371" y="346"/>
      <point x="332" y="116"/>
      <point x="332" y="36" type="curve" smooth="yes"/>
      <point x="332" y="5"/>
      <point x="338" y="-6"/>
      <point x="354" y="-16" type="curve" smooth="yes"/>
    </contour>
    <contour>
      <point x="189" y="627" type="move"/>
      <point x="257" y="654"/>
      <point x="308" y="675"/>
      <point x="336" y="703" type="curve"/>
    </contour>
  </outline>
</glyph>
<glyph name="Ucircumflex" format="2">
  <advance width="450"/>
  <unicode hex="00DB"/>
  <anchor x="166" y="1" name="bottom"/>
  <anchor x="354" y="-16" name="ogonek"/>
  <anchor x="269.4" y="705.7" name="top"/>
  <anchor x="447" y="745" name="topright"/>
  <outline>
    <contour>
      <point x="94" y="546" type="move"/>
      <point x="80" y="457"/>
      <point x="71" y="362"/>
      <point x="70" y="282" type="curve" smooth="yes"/>
      <point x="68" y="134"/>
      <point x="93" y="12"/>
      <point x="166" y="12" type="curve" smooth="yes"/>
      <point x="281" y="12"/>
      <point x="376" y="311"/>
      <point x="440" y="583" type="curve"/>
    </contour>
    <contour>
      <point x="440" y="583" type="move"/>
      <point x="371" y="346"/>
      <point x="332" y="116"/>
      <point x="332" y="36" type="curve" smooth="yes"/>
      <point x="332" y="5"/>
      <point x="338" y="-6"/>
      <point x="354" y="-16" type="curve" smooth="yes"/>
    </contour>
    <contour>
      <point x="174" y="642" type="move"/>
      <point x="207" y="661"/>
      <point x="242" y="677"/>
      <point x="269" y="688" type="curve"/>
      <point x="296" y="677"/>
      <point x="332" y="661"/>
      <point x="365" y="642" type="curve"/>
    </contour>
  </outline>
</glyph>
<glyph name="Udieresis" format="2">
  <advance width="450"/>
  <unicode hex="00DC"/>
  <anchor x="166" y="1" name="bottom"/>
  <anchor x="354" y="-16" name="ogonek"/>
  <anchor x="269.4" y="735.4" name="top"/>
  <anchor x="447" y="745" name="topright"/>
  <outline>
    <contour>
      <point x="94" y="546" type="move"/>
      <point x="80" y="457"/>
      <point x="71" y="362"/>
      <point x="70" y="282" type="curve" smooth="yes"/>
      <point x="68" y="134"/>
      <point x="93" y="12"/>
      <point x="166" y="12" type="curve" smooth="yes"/>
      <point x="281" y="12"/>
      <point x="376" y="311"/>
      <point x="440" y="583" type="curve"/>
    </contour>
    <contour>
      <point x="440" y="583" type="move"/>
      <point x="371" y="346"/>
      <point x="332" y="116"/>
      <point x="332" y="36" type="curve" smooth="yes"/>
      <point x="332" y="5"/>
      <point x="338" y="-6"/>
      <point x="354" y="-16" type="curve" smooth="yes"/>
    </contour>
    <contour>
      <point x="210" y="625" type="move"/>
      <point x="225" y="642"/>
      <point x="247" y="676"/>
      <point x="256" y="699" type="curve"/>
    </contour>
    <contour>
      <point x="288" y="625" type="move"/>
      <point x="304" y="642"/>
      <point x="325" y="676"/>
      <point x="334" y="699" type="curve"/>
    </contour>
  </outline>
</glyph>
<glyph name="Thorn" format="2">
  <advance width="434"/>
  <unicode hex="00DE"/>
  <outline>
    <contour>
      <point x="192" y="581" type="move"/>
      <point x="168" y="452"/>
      <point x="148" y="176"/>
      <point x="148" y="76" type="curve" smooth="yes"/>
      <point x="148" y="25"/>
      <point x="153" y="5"/>
      <point x="164" y="5" type="curve" smooth="yes"/>
      <point x="172" y="5"/>
      <point x="186" y="14"/>
      <point x="204" y="38" type="curve" smooth="yes"/>
    </contour>
    <contour>
      <point x="80" y="148" type="move"/>
      <point x="247" y="209"/>
      <point x="421" y="323"/>
      <point x="424" y="401" type="curve" smooth="yes"/>
      <point x="426" y="456"/>
      <point x="343" y="485"/>
      <point x="243" y="485" type="curve" smooth="yes"/>
      <point x="184" y="485"/>
      <point x="126" y="475"/>
      <point x="65" y="454" type="curve"/>
    </contour>
  </outline>
</glyph>
<glyph name="germandbls" format="2">
  <advance width="377"/>
  <unicode hex="00DF"/>
  <outline>
    <contour>
      <point x="296" y="38" type="move"/>
      <point x="323" y="59"/>
      <point x="347" y="81"/>
      <point x="366" y="100" type="curve" smooth="yes"/>
      <point x="377" y="111" type="line"/>
    </contour>
    <contour>
      <point x="10" y="-250" type="move"/>
      <point x="52" y="184"/>
      <point x="85" y="575"/>
      <point x="287" y="575" type="curve" smooth="yes"/>
      <point x="331" y="575"/>
      <point x="353" y="556"/>
      <point x="353" y="525" type="curve" smooth="yes"/>
      <point x="353" y="475"/>
      <point x="296" y="411"/>
      <point x="212" y="338" type="curve"/>
      <point x="268" y="301"/>
      <point x="309" y="255"/>
      <point x="309" y="198" type="curve" smooth="yes"/>
      <point x="309" y="133"/>
      <point x="257" y="52"/>
      <point x="118" y="-12" type="curve"/>
    </contour>
  </outline>
</glyph>
<glyph name="aacute" format="2">
  <advance width="411"/>
  <unicode hex="00E1"/>
  <anchor x="202" y="0" name="bottom"/>
  <anchor x="325" y="69" name="ogonek"/>
  <anchor x="313" y="522" name="top"/>
  <outline>
    <contour identifier="ID0x120388d90">
      <point x="0" y="111" type="move"/>
      <point x="17" y="128" type="line" smooth="yes"/>
      <point x="97" y="208"/>
      <point x="191" y="283"/>
      <point x="297" y="352" type="curve"/>
    </contour>
    <contour>
      <point x="297" y="352" type="move"/>
      <point x="299" y="350" type="line"/>
    </contour>
    <contour>
      <point x="299" y="350" type="move"/>
      <point x="190" y="269"/>
      <point x="41" y="124"/>
      <point x="41" y="55" type="curve" smooth="yes"/>
      <point x="41" y="40"/>
      <point x="48" y="31"/>
      <point x="62" y="31" type="curve" smooth="yes"/>
      <point x="95" y="31"/>
      <point x="166" y="81"/>
      <point x="297" y="222" type="curve"/>
    </contour>
    <contour>
      <point x="297" y="222" type="move"/>
      <point x="288" y="194"/>
      <point x="282" y="161"/>
      <point x="282" y="138" type="curve" smooth="yes"/>
      <point x="282" y="95"/>
      <point x="303" y="69"/>
      <point x="335" y="69" type="curve" smooth="yes"/>
      <point x="355" y="69"/>
      <point x="379" y="79"/>
      <point x="405" y="105" type="curve" smooth="yes"/>
      <point x="411" y="111" type="line"/>
    </contour>
    <contour>
      <point x="224" y="421" type="move"/>
      <point x="313" y="455"/>
      <point x="376" y="483"/>
      <point x="401" y="522" type="curve"/>
    </contour>
  </outline>
</glyph>
<glyph name="acircumflex" format="2">
  <advance width="411"/>
  <unicode hex="00E2"/>
  <anchor x="202" y="0" name="bottom"/>
  <anchor x="325" y="69" name="ogonek"/>
  <anchor x="293" y="532" name="top"/>
  <outline>
    <contour identifier="ID0x1203899b0">
      <point x="0" y="111" type="move"/>
      <point x="17" y="128" type="line" smooth="yes"/>
      <point x="97" y="208"/>
      <point x="191" y="283"/>
      <point x="297" y="352" type="curve"/>
    </contour>
    <contour>
      <point x="297" y="352" type="move"/>
      <point x="299" y="350" type="line"/>
    </contour>
    <contour>
      <point x="299" y="350" type="move"/>
      <point x="190" y="269"/>
      <point x="41" y="124"/>
      <point x="41" y="55" type="curve" smooth="yes"/>
      <point x="41" y="40"/>
      <point x="48" y="31"/>
      <point x="62" y="31" type="curve" smooth="yes"/>
      <point x="95" y="31"/>
      <point x="166" y="81"/>
      <point x="297" y="222" type="curve"/>
    </contour>
    <contour>
      <point x="297" y="222" type="move"/>
      <point x="288" y="194"/>
      <point x="282" y="161"/>
      <point x="282" y="138" type="curve" smooth="yes"/>
      <point x="282" y="95"/>
      <point x="303" y="69"/>
      <point x="335" y="69" type="curve" smooth="yes"/>
      <point x="355" y="69"/>
      <point x="379" y="79"/>
      <point x="405" y="105" type="curve" smooth="yes"/>
      <point x="411" y="111" type="line"/>
    </contour>
    <contour>
      <point x="177" y="422" type="move"/>
      <point x="214" y="451"/>
      <point x="253" y="475"/>
      <point x="283" y="492" type="curve"/>
      <point x="318" y="470"/>
      <point x="361" y="444"/>
      <point x="407" y="424" type="curve" smooth="yes"/>
    </contour>
  </outline>
</glyph>
<glyph name="ae" format="2">
  <advance width="604"/>
  <unicode hex="00E6"/>
  <outline>
    <contour>
      <point x="0" y="111" type="move"/>
      <point x="23" y="134" type="line" smooth="yes"/>
      <point x="85" y="196"/>
      <point x="171" y="264"/>
      <point x="259" y="321" type="curve"/>
    </contour>
    <contour>
      <point x="272" y="200" type="move"/>
      <point x="265" y="177"/>
      <point x="260" y="153"/>
      <point x="260" y="129" type="curve" smooth="yes"/>
      <point x="260" y="89"/>
      <point x="274" y="63"/>
      <point x="310" y="63" type="curve" smooth="yes"/>
      <point x="384" y="63"/>
      <point x="512" y="171"/>
      <point x="512" y="252" type="curve" smooth="yes"/>
      <point x="512" y="271"/>
      <point x="505" y="284"/>
      <point x="491" y="284" type="curve" smooth="yes"/>
      <point x="452" y="284"/>
      <point x="360" y="185"/>
      <point x="360" y="87" type="curve" smooth="yes"/>
      <point x="360" y="28"/>
      <point x="392" y="3"/>
      <point x="430" y="3" type="curve" smooth="yes"/>
      <point x="482" y="3"/>
      <point x="543" y="50"/>
      <point x="593" y="100" type="curve" smooth="yes"/>
      <point x="604" y="111" type="line"/>
    </contour>
    <contour>
      <point x="259" y="321" type="move"/>
      <point x="114" y="206"/>
      <point x="32" y="87"/>
      <point x="32" y="33" type="curve" smooth="yes"/>
      <point x="32" y="15"/>
      <point x="41" y="6"/>
      <point x="54" y="6" type="curve" smooth="yes"/>
      <point x="95" y="6"/>
      <point x="190" y="94"/>
      <point x="272" y="200" type="curve"/>
    </contour>
  </outline>
</glyph>
<glyph name="ccedilla" format="2">
  <advance width="313"/>
  <unicode hex="00E7"/>
  <anchor x="161" y="-108" name="bottom"/>
  <anchor x="269" y="270" name="top"/>
  <outline>
    <contour identifier="ID0x1203b0820">
      <point x="0" y="111" type="move"/>
      <point x="10" y="121" type="line" smooth="yes"/>
      <point x="98" y="209"/>
      <point x="190" y="257"/>
      <point x="271" y="291" type="curve"/>
    </contour>
    <contour>
      <point x="268" y="295" type="move"/>
      <point x="178" y="268"/>
      <point x="63" y="176"/>
      <point x="63" y="70" type="curve" smooth="yes"/>
      <point x="63" y="27"/>
      <point x="82" y="-3"/>
      <point x="130" y="-3" type="curve" smooth="yes"/>
      <point x="178" y="-3"/>
      <point x="229" y="27"/>
      <point x="282" y="80" type="curve" smooth="yes"/>
      <point x="313" y="111" type="line"/>
    </contour>
    <contour>
      <point x="271" y="291" type="move"/>
      <point x="268" y="295" type="line"/>
    </contour>
    <contour>
      <point x="161" y="63" type="move"/>
      <point x="147" y="13"/>
      <point x="120" y="-63"/>
      <point x="97" y="-118" type="curve"/>
    </contour>
  </outline>
</glyph>
<glyph name="eacute" format="2">
  <advance width="281"/>
  <unicode hex="00E9"/>
  <anchor x="108" y="11" name="bottom"/>
  <anchor x="134" y="12" name="ogonek"/>
  <anchor x="187" y="522" name="top"/>
  <outline>
    <contour identifier="ID0x12039ff00">
      <point x="0" y="111" type="move"/>
      <point x="31" y="142" type="line"/>
      <point x="148" y="199"/>
      <point x="203" y="272"/>
      <point x="203" y="307" type="curve" smooth="yes"/>
      <point x="203" y="321"/>
      <point x="194" y="330"/>
      <point x="180" y="330" type="curve" smooth="yes"/>
      <point x="131" y="330"/>
      <point x="28" y="220"/>
      <point x="28" y="109" type="curve" smooth="yes"/>
      <point x="28" y="55"/>
      <point x="54" y="11"/>
      <point x="108" y="11" type="curve" smooth="yes"/>
      <point x="150" y="11"/>
      <point x="207" y="37"/>
      <point x="270" y="100" type="curve" smooth="yes"/>
      <point x="281" y="111" type="line"/>
    </contour>
    <contour>
      <point x="98" y="421" type="move"/>
      <point x="187" y="455"/>
      <point x="250" y="483"/>
      <point x="275" y="522" type="curve"/>
    </contour>
  </outline>
</glyph>
<glyph name="ecircumflex" format="2">
  <advance width="281"/>
  <unicode hex="00EA"/>
  <anchor x="108" y="11" name="bottom"/>
  <anchor x="134" y="12" name="ogonek"/>
  <anchor x="187" y="532" name="top"/>
  <outline>
    <contour identifier="ID0x1203a0b20">
      <point x="0" y="111" type="move"/>
      <point x="31" y="142" type="line"/>
      <point x="148" y="199"/>
      <point x="203" y="272"/>
      <point x="203" y="307" type="curve" smooth="yes"/>
      <point x="203" y="321"/>
      <point x="194" y="330"/>
      <point x="180" y="330" type="curve" smooth="yes"/>
      <point x="131" y="330"/>
      <point x="28" y="220"/>
      <point x="28" y="109" type="curve" smooth="yes"/>
      <point x="28" y="55"/>
      <point x="54" y="11"/>
      <point x="108" y="11" type="curve" smooth="yes"/>
      <point x="150" y="11"/>
      <point x="207" y="37"/>
      <point x="270" y="100" type="curve" smooth="yes"/>
      <point x="281" y="111" type="line"/>
    </contour>
    <contour>
      <point x="71" y="422" type="move"/>
      <point x="108" y="451"/>
      <point x="147" y="475"/>
      <point x="177" y="492" type="curve"/>
      <point x="212" y="470"/>
      <point x="255" y="444"/>
      <point x="301" y="424" type="curve" smooth="yes"/>
    </contour>
  </outline>
</glyph>
<glyph name="edieresis" format="2">
  <advance width="281"/>
  <unicode hex="00EB"/>
  <anchor x="108" y="11" name="bottom"/>
  <anchor x="134" y="12" name="ogonek"/>
  <anchor x="187" y="539" name="top"/>
  <outline>
    <contour identifier="ID0x1203a1130">
      <point x="0" y="111" type="move"/>
      <point x="31" y="142" type="line"/>
      <point x="148" y="199"/>
      <point x="203" y="272"/>
      <point x="203" y="307" type="curve" smooth="yes"/>
      <point x="203" y="321"/>
      <point x="194" y="330"/>
      <point x="180" y="330" type="curve" smooth="yes"/>
      <point x="131" y="330"/>
      <point x="28" y="220"/>
      <point x="28" y="109" type="curve" smooth="yes"/>
      <point x="28" y="55"/>
      <point x="54" y="11"/>
      <point x="108" y="11" type="curve" smooth="yes"/>
      <point x="150" y="11"/>
      <point x="207" y="37"/>
      <point x="270" y="100" type="curve" smooth="yes"/>
      <point x="281" y="111" type="line"/>
    </contour>
    <contour>
      <point x="106" y="413" type="move"/>
      <point x="126" y="434"/>
      <point x="153" y="477"/>
      <point x="164" y="505" type="curve"/>
    </contour>
    <contour>
      <point x="213" y="413" type="move"/>
      <point x="233" y="434"/>
      <point x="258" y="478"/>
      <point x="267" y="506" type="curve"/>
    </contour>
  </outline>
</glyph>
<glyph name="igrave" format="2">
  <advance width="286"/>
  <unicode hex="00EC"/>
  <anchor x="127" y="0" name="bottom"/>
  <anchor x="188" y="40" name="ogonek"/>
  <anchor x="149" y="477" name="top"/>
  <outline>
    <contour>
      <point x="0" y="111" type="move"/>
      <point x="8" y="119" type="line" smooth="yes"/>
      <point x="37" y="147"/>
      <point x="74" y="191"/>
      <point x="106" y="231" type="curve"/>
    </contour>
    <contour>
      <point x="106" y="231" type="move"/>
      <point x="108" y="231" type="line"/>
    </contour>
    <contour>
      <point x="108" y="231" type="move"/>
      <point x="114" y="173"/>
      <point x="127" y="40"/>
      <point x="185" y="40" type="curve" smooth="yes"/>
      <point x="208" y="40"/>
      <point x="236" y="61"/>
      <point x="263" y="88" type="curve" smooth="yes"/>
      <point x="286" y="111" type="line"/>
    </contour>
    <contour>
      <point x="60" y="477" type="move"/>
      <point x="85" y="438"/>
      <point x="148" y="410"/>
      <point x="237" y="376" type="curve"/>
    </contour>
  </outline>
</glyph>
<glyph name="icircumflex" format="2">
  <advance width="286"/>
  <unicode hex="00EE"/>
  <anchor x="127" y="0" name="bottom"/>
  <anchor x="188" y="40" name="ogonek"/>
  <anchor x="149" y="487" name="top"/>
  <outline>
    <contour>
      <point x="0" y="111" type="move"/>
      <point x="8" y="119" type="line" smooth="yes"/>
      <point x="37" y="147"/>
      <point x="74" y="191"/>
      <point x="106" y="231" type="curve"/>
    </contour>
    <contour>
      <point x="106" y="231" type="move"/>
      <point x="108" y="231" type="line"/>
    </contour>
    <contour>
      <point x="108" y="231" type="move"/>
      <point x="114" y="173"/>
      <point x="127" y="40"/>
      <point x="185" y="40" type="curve" smooth="yes"/>
      <point x="208" y="40"/>
      <point x="236" y="61"/>
      <point x="263" y="88" type="curve" smooth="yes"/>
      <point x="286" y="111" type="line"/>
    </contour>
    <contour>
      <point x="33" y="377" type="move"/>
      <point x="70" y="406"/>
      <point x="109" y="430"/>
      <point x="139" y="447" type="curve"/>
      <point x="174" y="425"/>
      <point x="217" y="399"/>
      <point x="263" y="379" type="curve" smooth="yes"/>
    </contour>
  </outline>
</glyph>
<glyph name="idieresis" format="2">
  <advance width="286"/>
  <unicode hex="00EF"/>
  <anchor x="127" y="0" name="bottom"/>
  <anchor x="188" y="40" name="ogonek"/>
  <anchor x="149" y="494" name="top"/>
  <outline>
    <contour>
      <point x="0" y="111" type="move"/>
      <point x="8" y="119" type="line" smooth="yes"/>
      <point x="37" y="147"/>
      <point x="74" y="191"/>
      <point x="106" y="231" type="curve"/>
    </contour>
    <contour>
      <point x="106" y="231" type="move"/>
      <point x="108" y="231" type="line"/>
    </contour>
    <contour>
      <point x="108" y="231" type="move"/>
      <point x="114" y="173"/>
      <point x="127" y="40"/>
      <point x="185" y="40" type="curve" smooth="yes"/>
      <point x="208" y="40"/>
      <point x="236" y="61"/>
      <point x="263" y="88" type="curve" smooth="yes"/>
      <point x="286" y="111" type="line"/>
    </contour>
    <contour>
      <point x="68" y="368" type="move"/>
      <point x="88" y="389"/>
      <point x="115" y="432"/>
      <point x="126" y="460" type="curve"/>
    </contour>
    <contour>
      <point x="175" y="368" type="move"/>
      <point x="195" y="389"/>
      <point x="220" y="433"/>
      <point x="229" y="461" type="curve"/>
    </contour>
  </outline>
</glyph>
<glyph name="ntilde" format="2">
  <advance width="500"/>
  <unicode hex="00F1"/>
  <anchor x="255" y="24" name="bottom"/>
  <anchor x="353" y="448" name="top"/>
  <outline>
    <contour identifier="ID0x1203b2500">
      <point x="0" y="111" type="move"/>
      <point x="12" y="123" type="line" smooth="yes"/>
      <point x="64" y="175"/>
      <point x="150" y="269"/>
      <point x="176" y="269" type="curve" smooth="yes"/>
      <point x="182" y="269"/>
      <point x="186" y="264"/>
      <point x="186" y="253" type="curve" smooth="yes"/>
      <point x="185" y="212"/>
      <point x="132" y="95"/>
      <point x="108" y="30" type="curve" smooth="yes"/>
      <point x="100" y="9"/>
      <point x="95" y="-7"/>
      <point x="95" y="-15" type="curve" smooth="yes"/>
      <point x="95" y="-19"/>
      <point x="96" y="-21"/>
      <point x="99" y="-21" type="curve" smooth="yes"/>
      <point x="114" y="-21"/>
      <point x="168" y="46"/>
      <point x="224" y="106" type="curve" smooth="yes"/>
      <point x="272" y="158"/>
      <point x="319" y="202"/>
      <point x="343" y="202" type="curve" smooth="yes"/>
      <point x="389" y="202"/>
      <point x="384" y="57"/>
      <point x="428" y="57" type="curve" smooth="yes"/>
      <point x="445" y="57"/>
      <point x="468" y="79"/>
      <point x="492" y="103" type="curve" smooth="yes"/>
      <point x="500" y="111" type="line"/>
    </contour>
    <contour>
      <point x="203" y="389" type="move"/>
      <point x="250" y="412"/>
      <point x="315" y="438"/>
      <point x="361" y="438" type="curve" smooth="yes"/>
      <point x="397" y="438"/>
      <point x="405" y="422"/>
      <point x="405" y="402" type="curve" smooth="yes"/>
      <point x="405" y="386"/>
      <point x="400" y="367"/>
      <point x="400" y="357" type="curve" smooth="yes"/>
      <point x="400" y="347"/>
      <point x="405" y="341"/>
      <point x="416" y="341" type="curve" smooth="yes"/>
      <point x="436" y="341"/>
      <point x="474" y="360"/>
      <point x="503" y="388" type="curve" smooth="yes"/>
    </contour>
  </outline>
</glyph>
<glyph name="ocircumflex" format="2">
  <advance width="387"/>
  <unicode hex="00F4"/>
  <anchor x="198" y="5" name="bottom"/>
  <anchor x="198" y="182" name="center"/>
  <anchor x="278" y="502" name="top"/>
  <outline>
    <contour>
      <point x="162" y="186" type="move"/>
      <point x="183" y="236"/>
      <point x="223" y="270"/>
      <point x="262" y="270" type="curve" smooth="yes"/>
      <point x="297" y="270"/>
      <point x="313" y="243"/>
      <point x="312" y="204" type="curve" smooth="yes"/>
      <point x="310" y="106"/>
      <point x="204" y="0"/>
      <point x="131" y="0" type="curve" smooth="yes"/>
      <point x="98" y="0"/>
      <point x="75" y="22"/>
      <point x="75" y="68" type="curve" smooth="yes"/>
      <point x="75" y="130"/>
      <point x="118" y="211"/>
      <point x="185" y="285" type="curve"/>
      <point x="103" y="215"/>
      <point x="57" y="168"/>
      <point x="19" y="130" type="curve" smooth="yes"/>
      <point x="0" y="111" type="line"/>
    </contour>
    <contour identifier="ID0x1203b4220">
      <point x="285" y="24" type="move"/>
      <point x="316" y="45"/>
      <point x="344" y="68"/>
      <point x="376" y="100" type="curve" smooth="yes"/>
      <point x="387" y="111" type="line"/>
    </contour>
    <contour>
      <point x="162" y="392" type="move"/>
      <point x="199" y="421"/>
      <point x="238" y="445"/>
      <point x="268" y="462" type="curve"/>
      <point x="303" y="440"/>
      <point x="346" y="414"/>
      <point x="392" y="394" type="curve" smooth="yes"/>
    </contour>
  </outline>
</glyph>
<glyph name="otilde" format="2">
  <advance width="387"/>
  <unicode hex="00F5"/>
  <anchor x="198" y="5" name="bottom"/>
  <anchor x="198" y="182" name="center"/>
  <anchor x="278" y="470" name="top"/>
  <outline>
    <contour>
      <point x="162" y="186" type="move"/>
      <point x="183" y="236"/>
      <point x="223" y="270"/>
      <point x="262" y="270" type="curve" smooth="yes"/>
      <point x="297" y="270"/>
      <point x="313" y="243"/>
      <point x="312" y="204" type="curve" smooth="yes"/>
      <point x="310" y="106"/>
      <point x="204" y="0"/>
      <point x="131" y="0" type="curve" smooth="yes"/>
      <point x="98" y="0"/>
      <point x="75" y="22"/>
      <point x="75" y="68" type="curve" smooth="yes"/>
      <point x="75" y="130"/>
      <point x="118" y="211"/>
      <point x="185" y="285" type="curve"/>
      <point x="103" y="215"/>
      <point x="57" y="168"/>
      <point x="19" y="130" type="curve" smooth="yes"/>
      <point x="0" y="111" type="line"/>
    </contour>
    <contour identifier="ID0x12037b860">
      <point x="285" y="24" type="move"/>
      <point x="316" y="45"/>
      <point x="344" y="68"/>
      <point x="376" y="100" type="curve" smooth="yes"/>
      <point x="387" y="111" type="line"/>
    </contour>
    <contour>
      <point x="128" y="411" type="move"/>
      <point x="175" y="434"/>
      <point x="240" y="460"/>
      <point x="286" y="460" type="curve" smooth="yes"/>
      <point x="322" y="460"/>
      <point x="330" y="444"/>
      <point x="330" y="424" type="curve" smooth="yes"/>
      <point x="330" y="408"/>
      <point x="325" y="389"/>
      <point x="325" y="379" type="curve" smooth="yes"/>
      <point x="325" y="369"/>
      <point x="330" y="363"/>
      <point x="341" y="363" type="curve" smooth="yes"/>
      <point x="361" y="363"/>
      <point x="399" y="382"/>
      <point x="428" y="410" type="curve" smooth="yes"/>
    </contour>
  </outline>
</glyph>
<glyph name="divide" format="2">
  <advance width="401"/>
  <unicode hex="00F7"/>
  <outline>
    <contour>
      <point x="351" y="154" type="move"/>
      <point x="254" y="157"/>
      <point x="146" y="151"/>
      <point x="50" y="144" type="curve"/>
    </contour>
    <contour>
      <point x="193" y="65" type="move"/>
      <point x="202" y="60"/>
      <point x="205" y="52"/>
      <point x="205" y="45" type="curve" smooth="yes"/>
      <point x="205" y="22"/>
      <point x="175" y="-8"/>
      <point x="156" y="-25" type="curve"/>
    </contour>
    <contour>
      <point x="203" y="325" type="move"/>
      <point x="212" y="320"/>
      <point x="215" y="312"/>
      <point x="215" y="305" type="curve" smooth="yes"/>
      <point x="215" y="282"/>
      <point x="185" y="252"/>
      <point x="166" y="235" type="curve"/>
    </contour>
  </outline>
</glyph>
<glyph name="uacute" format="2">
  <advance width="447"/>
  <unicode hex="00FA"/>
  <anchor x="236" y="0" name="bottom"/>
  <anchor x="365" y="64" name="ogonek"/>
  <anchor x="274" y="502" name="top"/>
  <outline>
    <contour identifier="ID0x120d714b0">
      <point x="0" y="111" type="move"/>
      <point x="21" y="132" type="line" smooth="yes"/>
      <point x="63" y="174"/>
      <point x="110" y="234"/>
      <point x="152" y="299" type="curve"/>
    </contour>
    <contour>
      <point x="152" y="299" type="move"/>
      <point x="110" y="208"/>
      <point x="92" y="134"/>
      <point x="92" y="81" type="curve" smooth="yes"/>
      <point x="92" y="32"/>
      <point x="106" y="6"/>
      <point x="131" y="6" type="curve" smooth="yes"/>
      <point x="184" y="6"/>
      <point x="268" y="124"/>
      <point x="321" y="215" type="curve"/>
    </contour>
    <contour>
      <point x="321" y="215" type="move"/>
      <point x="315" y="187"/>
      <point x="313" y="164"/>
      <point x="313" y="148" type="curve" smooth="yes"/>
      <point x="313" y="98"/>
      <point x="332" y="64"/>
      <point x="365" y="64" type="curve" smooth="yes"/>
      <point x="386" y="64"/>
      <point x="414" y="78"/>
      <point x="438" y="102" type="curve" smooth="yes"/>
      <point x="447" y="111" type="line"/>
    </contour>
    <contour>
      <point x="185" y="401" type="move"/>
      <point x="274" y="435"/>
      <point x="337" y="463"/>
      <point x="362" y="502" type="curve"/>
    </contour>
  </outline>
</glyph>
<glyph name="ucircumflex" format="2">
  <advance width="447"/>
  <unicode hex="00FB"/>
  <anchor x="236" y="0" name="bottom"/>
  <anchor x="365" y="64" name="ogonek"/>
  <anchor x="274" y="512" name="top"/>
  <outline>
    <contour identifier="ID0x120d80c50">
      <point x="0" y="111" type="move"/>
      <point x="21" y="132" type="line" smooth="yes"/>
      <point x="63" y="174"/>
      <point x="110" y="234"/>
      <point x="152" y="299" type="curve"/>
    </contour>
    <contour>
      <point x="152" y="299" type="move"/>
      <point x="110" y="208"/>
      <point x="92" y="134"/>
      <point x="92" y="81" type="curve" smooth="yes"/>
      <point x="92" y="32"/>
      <point x="106" y="6"/>
      <point x="131" y="6" type="curve" smooth="yes"/>
      <point x="184" y="6"/>
      <point x="268" y="124"/>
      <point x="321" y="215" type="curve"/>
    </contour>
    <contour>
      <point x="321" y="215" type="move"/>
      <point x="315" y="187"/>
      <point x="313" y="164"/>
      <point x="313" y="148" type="curve" smooth="yes"/>
      <point x="313" y="98"/>
      <point x="332" y="64"/>
      <point x="365" y="64" type="curve" smooth="yes"/>
      <point x="386" y="64"/>
      <point x="414" y="78"/>
      <point x="438" y="102" type="curve" smooth="yes"/>
      <point x="447" y="111" type="line"/>
    </contour>
    <contour>
      <point x="158" y="402" type="move"/>
      <point x="195" y="431"/>
      <point x="234" y="455"/>
      <point x="264" y="472" type="curve"/>
      <point x="299" y="450"/>
      <point x="342" y="424"/>
      <point x="388" y="404" type="curve" smooth="yes"/>
    </contour>
  </outline>
</glyph>
<glyph name="udieresis" format="2">
  <advance width="447"/>
  <unicode hex="00FC"/>
  <anchor x="236" y="0" name="bottom"/>
  <anchor x="365" y="64" name="ogonek"/>
  <anchor x="274" y="519" name="top"/>
  <outline>
    <contour identifier="ID0x120d7fbd0">
      <point x="0" y="111" type="move"/>
      <point x="21" y="132" type="line" smooth="yes"/>
      <point x="63" y="174"/>
      <point x="110" y="234"/>
      <point x="152" y="299" type="curve"/>
    </contour>
    <contour>
      <point x="152" y="299" type="move"/>
      <point x="110" y="208"/>
      <point x="92" y="134"/>
      <point x="92" y="81" type="curve" smooth="yes"/>
      <point x="92" y="32"/>
      <point x="106" y="6"/>
      <point x="131" y="6" type="curve" smooth="yes"/>
      <point x="184" y="6"/>
      <point x="268" y="124"/>
      <point x="321" y="215" type="curve"/>
    </contour>
    <contour>
      <point x="321" y="215" type="move"/>
      <point x="315" y="187"/>
      <point x="313" y="164"/>
      <point x="313" y="148" type="curve" smooth="yes"/>
      <point x="313" y="98"/>
      <point x="332" y="64"/>
      <point x="365" y="64" type="curve" smooth="yes"/>
      <point x="386" y="64"/>
      <point x="414" y="78"/>
      <point x="438" y="102" type="curve" smooth="yes"/>
      <point x="447" y="111" type="line"/>
    </contour>
    <contour>
      <point x="193" y="393" type="move"/>
      <point x="213" y="414"/>
      <point x="240" y="457"/>
      <point x="251" y="485" type="curve"/>
    </contour>
    <contour>
      <point x="300" y="393" type="move"/>
      <point x="320" y="414"/>
      <point x="345" y="458"/>
      <point x="354" y="486" type="curve"/>
    </contour>
  </outline>
</glyph>
<glyph name="thorn" format="2">
  <advance width="377"/>
  <unicode hex="00FE"/>
  <outline>
    <contour>
      <point x="0" y="111" type="move"/>
      <point x="5" y="116" type="line" smooth="yes"/>
      <point x="33" y="144"/>
      <point x="141" y="285"/>
      <point x="228" y="574" type="curve"/>
    </contour>
    <contour>
      <point x="233" y="572" type="move"/>
      <point x="121" y="257"/>
      <point x="62" y="18"/>
      <point x="-56" y="-307" type="curve"/>
    </contour>
    <contour>
      <point x="290" y="34" type="move"/>
      <point x="317" y="55"/>
      <point x="347" y="81"/>
      <point x="366" y="100" type="curve" smooth="yes"/>
      <point x="377" y="111" type="line"/>
    </contour>
    <contour>
      <point x="228" y="574" type="move"/>
      <point x="233" y="572" type="line"/>
    </contour>
    <contour>
      <point x="-53" y="-307" type="move"/>
      <point x="83" y="103"/>
      <point x="257" y="348"/>
      <point x="327" y="348" type="curve" smooth="yes"/>
      <point x="346" y="348"/>
      <point x="351" y="331"/>
      <point x="351" y="316" type="curve" smooth="yes"/>
      <point x="351" y="245"/>
      <point x="241" y="7"/>
      <point x="111" y="7" type="curve" smooth="yes"/>
      <point x="99" y="7"/>
      <point x="88" y="9"/>
      <point x="78" y="12" type="curve"/>
    </contour>
    <contour>
      <point x="-56" y="-307" type="move"/>
      <point x="-53" y="-307" type="line"/>
    </contour>
  </outline>
</glyph>
<glyph name="ydieresis" format="2">
  <advance width="420"/>
  <unicode hex="00FF"/>
  <anchor x="210" y="49" name="bottom"/>
  <anchor x="280" y="519" name="top"/>
  <outline>
    <contour>
      <point x="0" y="111" type="move"/>
      <point x="17" y="128" type="line" smooth="yes"/>
      <point x="41" y="152"/>
      <point x="87" y="198"/>
      <point x="119" y="235" type="curve"/>
    </contour>
    <contour>
      <point x="119" y="235" type="move"/>
      <point x="93" y="165"/>
      <point x="81" y="107"/>
      <point x="81" y="67" type="curve" smooth="yes"/>
      <point x="81" y="39"/>
      <point x="87" y="25"/>
      <point x="102" y="25" type="curve" smooth="yes"/>
      <point x="145" y="25"/>
      <point x="262" y="139"/>
      <point x="360" y="264" type="curve"/>
    </contour>
    <contour>
      <point x="360" y="264" type="move"/>
      <point x="317" y="143"/>
      <point x="160" y="-304"/>
      <point x="72" y="-304" type="curve" smooth="yes"/>
      <point x="61" y="-304"/>
      <point x="57" y="-297"/>
      <point x="57" y="-289" type="curve" smooth="yes"/>
      <point x="57" y="-223"/>
      <point x="325" y="16"/>
      <point x="402" y="93" type="curve" smooth="yes"/>
      <point x="420" y="111" type="line"/>
    </contour>
    <contour>
      <point x="199" y="393" type="move"/>
      <point x="219" y="414"/>
      <point x="246" y="457"/>
      <point x="257" y="485" type="curve"/>
    </contour>
    <contour>
      <point x="306" y="393" type="move"/>
      <point x="326" y="414"/>
      <point x="351" y="458"/>
      <point x="360" y="486" type="curve"/>
    </contour>
  </outline>
</glyph>
<glyph name="Amacron" format="2">
  <advance width="419"/>
  <unicode hex="0100"/>
  <anchor x="213" y="2" name="bottom"/>
  <anchor x="335" y="-15" name="ogonek"/>
  <anchor x="291" y="717" name="top"/>
  <outline>
    <contour>
      <point x="15" y="-46" type="move"/>
      <point x="64" y="166"/>
      <point x="177" y="434"/>
      <point x="277" y="617" type="curve"/>
    </contour>
    <contour>
      <point x="379" y="259" type="move"/>
      <point x="228" y="235"/>
      <point x="118" y="210"/>
      <point x="24" y="178" type="curve"/>
    </contour>
    <contour>
      <point x="201" y="575" type="move"/>
      <point x="246" y="562"/>
      <point x="312" y="529"/>
      <point x="331" y="498" type="curve" smooth="yes"/>
      <point x="351" y="466"/>
      <point x="352" y="349"/>
      <point x="352" y="271" type="curve" smooth="yes"/>
      <point x="351" y="183"/>
      <point x="347" y="90"/>
      <point x="335" y="-15" type="curve" smooth="yes"/>
    </contour>
    <contour>
      <point x="388" y="707" type="move"/>
      <point x="328" y="696"/>
      <point x="252" y="696"/>
      <point x="193" y="707" type="curve"/>
    </contour>
  </outline>
</glyph>
<glyph name="Abreve" format="2">
  <advance width="419"/>
  <unicode hex="0102"/>
  <anchor x="213" y="2" name="bottom"/>
  <anchor x="335" y="-15" name="ogonek"/>
  <anchor x="291" y="756" name="top"/>
  <outline>
    <contour>
      <point x="15" y="-46" type="move"/>
      <point x="64" y="166"/>
      <point x="177" y="434"/>
      <point x="277" y="617" type="curve"/>
    </contour>
    <contour>
      <point x="379" y="259" type="move"/>
      <point x="228" y="235"/>
      <point x="118" y="210"/>
      <point x="24" y="178" type="curve"/>
    </contour>
    <contour>
      <point x="201" y="575" type="move"/>
      <point x="246" y="562"/>
      <point x="312" y="529"/>
      <point x="331" y="498" type="curve" smooth="yes"/>
      <point x="351" y="466"/>
      <point x="352" y="349"/>
      <point x="352" y="271" type="curve" smooth="yes"/>
      <point x="351" y="183"/>
      <point x="347" y="90"/>
      <point x="335" y="-15" type="curve" smooth="yes"/>
    </contour>
    <contour>
      <point x="203" y="740" type="move"/>
      <point x="213" y="700"/>
      <point x="242" y="676"/>
      <point x="286" y="676" type="curve" smooth="yes"/>
      <point x="328" y="676"/>
      <point x="371" y="698"/>
      <point x="379" y="746" type="curve" smooth="yes"/>
    </contour>
  </outline>
</glyph>
<glyph name="abreve" format="2">
  <advance width="411"/>
  <unicode hex="0103"/>
  <anchor x="202" y="0" name="bottom"/>
  <anchor x="325" y="69" name="ogonek"/>
  <anchor x="313" y="529" name="top"/>
  <outline>
    <contour identifier="ID0x1203893a0">
      <point x="0" y="111" type="move"/>
      <point x="17" y="128" type="line" smooth="yes"/>
      <point x="97" y="208"/>
      <point x="191" y="283"/>
      <point x="297" y="352" type="curve"/>
    </contour>
    <contour>
      <point x="297" y="352" type="move"/>
      <point x="299" y="350" type="line"/>
    </contour>
    <contour>
      <point x="299" y="350" type="move"/>
      <point x="190" y="269"/>
      <point x="41" y="124"/>
      <point x="41" y="55" type="curve" smooth="yes"/>
      <point x="41" y="40"/>
      <point x="48" y="31"/>
      <point x="62" y="31" type="curve" smooth="yes"/>
      <point x="95" y="31"/>
      <point x="166" y="81"/>
      <point x="297" y="222" type="curve"/>
    </contour>
    <contour>
      <point x="297" y="222" type="move"/>
      <point x="288" y="194"/>
      <point x="282" y="161"/>
      <point x="282" y="138" type="curve" smooth="yes"/>
      <point x="282" y="95"/>
      <point x="303" y="69"/>
      <point x="335" y="69" type="curve" smooth="yes"/>
      <point x="355" y="69"/>
      <point x="379" y="79"/>
      <point x="405" y="105" type="curve" smooth="yes"/>
      <point x="411" y="111" type="line"/>
    </contour>
    <contour>
      <point x="228" y="499" type="move"/>
      <point x="239" y="457"/>
      <point x="269" y="431"/>
      <point x="316" y="431" type="curve" smooth="yes"/>
      <point x="361" y="431"/>
      <point x="407" y="455"/>
      <point x="415" y="506" type="curve" smooth="yes"/>
    </contour>
  </outline>
</glyph>
<glyph name="Aogonek" format="2">
  <advance width="419"/>
  <unicode hex="0104"/>
  <anchor x="213" y="2" name="bottom"/>
  <anchor x="335" y="-15" name="ogonek"/>
  <anchor x="291" y="580" name="top"/>
  <outline>
    <contour>
      <point x="15" y="-46" type="move"/>
      <point x="64" y="166"/>
      <point x="177" y="434"/>
      <point x="277" y="617" type="curve"/>
    </contour>
    <contour>
      <point x="379" y="259" type="move"/>
      <point x="228" y="235"/>
      <point x="118" y="210"/>
      <point x="24" y="178" type="curve"/>
    </contour>
    <contour>
      <point x="201" y="575" type="move"/>
      <point x="246" y="562"/>
      <point x="312" y="529"/>
      <point x="331" y="498" type="curve" smooth="yes"/>
      <point x="351" y="466"/>
      <point x="352" y="349"/>
      <point x="352" y="271" type="curve" smooth="yes"/>
      <point x="351" y="183"/>
      <point x="347" y="90"/>
      <point x="335" y="-15" type="curve" smooth="yes"/>
    </contour>
    <contour>
      <point x="391" y="-96" type="move"/>
      <point x="369" y="-107"/>
      <point x="331" y="-122"/>
      <point x="307" y="-122" type="curve" smooth="yes"/>
      <point x="293" y="-122"/>
      <point x="283" y="-117"/>
      <point x="283" y="-104" type="curve" smooth="yes"/>
      <point x="283" y="-84"/>
      <point x="307" y="-43"/>
      <point x="335" y="-15" type="curve"/>
    </contour>
  </outline>
</glyph>
<glyph name="cacute" format="2">
  <advance width="313"/>
  <unicode hex="0107"/>
  <anchor x="161" y="63" name="bottom"/>
  <anchor x="269" y="492" name="top"/>
  <outline>
    <contour identifier="ID0x1203af560">
      <point x="0" y="111" type="move"/>
      <point x="10" y="121" type="line" smooth="yes"/>
      <point x="98" y="209"/>
      <point x="190" y="257"/>
      <point x="271" y="291" type="curve"/>
    </contour>
    <contour>
      <point x="268" y="295" type="move"/>
      <point x="178" y="268"/>
      <point x="63" y="176"/>
      <point x="63" y="70" type="curve" smooth="yes"/>
      <point x="63" y="27"/>
      <point x="82" y="-3"/>
      <point x="130" y="-3" type="curve" smooth="yes"/>
      <point x="178" y="-3"/>
      <point x="229" y="27"/>
      <point x="282" y="80" type="curve" smooth="yes"/>
      <point x="313" y="111" type="line"/>
    </contour>
    <contour>
      <point x="271" y="291" type="move"/>
      <point x="268" y="295" type="line"/>
    </contour>
    <contour>
      <point x="180" y="391" type="move"/>
      <point x="269" y="425"/>
      <point x="332" y="453"/>
      <point x="357" y="492" type="curve"/>
    </contour>
  </outline>
</glyph>
<glyph name="Ccircumflex" format="2">
  <advance width="423"/>
  <unicode hex="0108"/>
  <anchor x="245" y="63" name="bottom"/>
  <anchor x="328" y="718" name="top"/>
  <outline>
    <contour identifier="ID0x10365c770">
      <point x="372" y="39" type="move"/>
      <point x="328" y="0"/>
      <point x="266" y="-21"/>
      <point x="213" y="-20" type="curve" smooth="yes"/>
      <point x="114" y="-18"/>
      <point x="48" y="59"/>
      <point x="45" y="185" type="curve" smooth="yes"/>
      <point x="41" y="380"/>
      <point x="187" y="570"/>
      <point x="321" y="570" type="curve" smooth="yes"/>
      <point x="379" y="570"/>
      <point x="398" y="534"/>
      <point x="398" y="481" type="curve" smooth="yes"/>
      <point x="398" y="415"/>
      <point x="371" y="328"/>
      <point x="347" y="267" type="curve"/>
    </contour>
    <contour>
      <point x="347" y="267" type="move"/>
      <point x="354" y="325"/>
      <point x="366" y="383"/>
      <point x="382" y="436" type="curve"/>
    </contour>
    <contour>
      <point x="222" y="647" type="move"/>
      <point x="259" y="668"/>
      <point x="298" y="686"/>
      <point x="328" y="698" type="curve"/>
      <point x="358" y="686"/>
      <point x="397" y="668"/>
      <point x="434" y="647" type="curve"/>
    </contour>
  </outline>
</glyph>
<glyph name="ccircumflex" format="2">
  <advance width="313"/>
  <unicode hex="0109"/>
  <anchor x="161" y="63" name="bottom"/>
  <anchor x="269" y="502" name="top"/>
  <outline>
    <contour identifier="ID0x1203b0a60">
      <point x="0" y="111" type="move"/>
      <point x="10" y="121" type="line" smooth="yes"/>
      <point x="98" y="209"/>
      <point x="190" y="257"/>
      <point x="271" y="291" type="curve"/>
    </contour>
    <contour>
      <point x="268" y="295" type="move"/>
      <point x="178" y="268"/>
      <point x="63" y="176"/>
      <point x="63" y="70" type="curve" smooth="yes"/>
      <point x="63" y="27"/>
      <point x="82" y="-3"/>
      <point x="130" y="-3" type="curve" smooth="yes"/>
      <point x="178" y="-3"/>
      <point x="229" y="27"/>
      <point x="282" y="80" type="curve" smooth="yes"/>
      <point x="313" y="111" type="line"/>
    </contour>
    <contour>
      <point x="271" y="291" type="move"/>
      <point x="268" y="295" type="line"/>
    </contour>
    <contour>
      <point x="153" y="392" type="move"/>
      <point x="190" y="421"/>
      <point x="229" y="445"/>
      <point x="259" y="462" type="curve"/>
      <point x="294" y="440"/>
      <point x="337" y="414"/>
      <point x="383" y="394" type="curve" smooth="yes"/>
    </contour>
  </outline>
</glyph>
<glyph name="Cdotaccent" format="2">
  <advance width="423"/>
  <unicode hex="010A"/>
  <anchor x="245" y="63" name="bottom"/>
  <anchor x="328" y="725" name="top"/>
  <outline>
    <contour identifier="ID0x10365cd80">
      <point x="372" y="39" type="move"/>
      <point x="328" y="0"/>
      <point x="266" y="-21"/>
      <point x="213" y="-20" type="curve" smooth="yes"/>
      <point x="114" y="-18"/>
      <point x="48" y="59"/>
      <point x="45" y="185" type="curve" smooth="yes"/>
      <point x="41" y="380"/>
      <point x="187" y="570"/>
      <point x="321" y="570" type="curve" smooth="yes"/>
      <point x="379" y="570"/>
      <point x="398" y="534"/>
      <point x="398" y="481" type="curve" smooth="yes"/>
      <point x="398" y="415"/>
      <point x="371" y="328"/>
      <point x="347" y="267" type="curve"/>
    </contour>
    <contour>
      <point x="347" y="267" type="move"/>
      <point x="354" y="325"/>
      <point x="366" y="383"/>
      <point x="382" y="436" type="curve"/>
    </contour>
    <contour>
      <point x="311" y="627" type="move"/>
      <point x="322" y="656"/>
      <point x="336" y="694"/>
      <point x="346" y="725" type="curve"/>
    </contour>
  </outline>
</glyph>
<glyph name="cdotaccent" format="2">
  <advance width="313"/>
  <unicode hex="010B"/>
  <anchor x="161" y="63" name="bottom"/>
  <anchor x="264" y="487" name="top"/>
  <outline>
    <contour identifier="ID0x1203a6bd0">
      <point x="0" y="111" type="move"/>
      <point x="10" y="121" type="line" smooth="yes"/>
      <point x="98" y="209"/>
      <point x="190" y="257"/>
      <point x="271" y="291" type="curve"/>
    </contour>
    <contour>
      <point x="268" y="295" type="move"/>
      <point x="178" y="268"/>
      <point x="63" y="176"/>
      <point x="63" y="70" type="curve" smooth="yes"/>
      <point x="63" y="27"/>
      <point x="82" y="-3"/>
      <point x="130" y="-3" type="curve" smooth="yes"/>
      <point x="178" y="-3"/>
      <point x="229" y="27"/>
      <point x="282" y="80" type="curve" smooth="yes"/>
      <point x="313" y="111" type="line"/>
    </contour>
    <contour>
      <point x="271" y="291" type="move"/>
      <point x="268" y="295" type="line"/>
    </contour>
    <contour>
      <point x="243" y="372" type="move"/>
      <point x="257" y="406"/>
      <point x="273" y="450"/>
      <point x="285" y="487" type="curve"/>
    </contour>
  </outline>
</glyph>
<glyph name="Ccaron" format="2">
  <advance width="423"/>
  <unicode hex="010C"/>
  <anchor x="245" y="63" name="bottom"/>
  <anchor x="328" y="732" name="top"/>
  <outline>
    <contour identifier="ID0x10365bb50">
      <point x="372" y="39" type="move"/>
      <point x="328" y="0"/>
      <point x="266" y="-21"/>
      <point x="213" y="-20" type="curve" smooth="yes"/>
      <point x="114" y="-18"/>
      <point x="48" y="59"/>
      <point x="45" y="185" type="curve" smooth="yes"/>
      <point x="41" y="380"/>
      <point x="187" y="570"/>
      <point x="321" y="570" type="curve" smooth="yes"/>
      <point x="379" y="570"/>
      <point x="398" y="534"/>
      <point x="398" y="481" type="curve" smooth="yes"/>
      <point x="398" y="415"/>
      <point x="371" y="328"/>
      <point x="347" y="267" type="curve"/>
    </contour>
    <contour>
      <point x="347" y="267" type="move"/>
      <point x="354" y="325"/>
      <point x="366" y="383"/>
      <point x="382" y="436" type="curve"/>
    </contour>
    <contour>
      <point x="425" y="693" type="move"/>
      <point x="388" y="672"/>
      <point x="349" y="654"/>
      <point x="319" y="642" type="curve"/>
      <point x="289" y="654"/>
      <point x="250" y="672"/>
      <point x="213" y="693" type="curve"/>
    </contour>
  </outline>
</glyph>
<glyph name="ccaron" format="2">
  <advance width="313"/>
  <unicode hex="010D"/>
  <anchor x="161" y="63" name="bottom"/>
  <anchor x="269" y="502" name="top"/>
  <outline>
    <contour identifier="ID0x1203b0210">
      <point x="0" y="111" type="move"/>
      <point x="10" y="121" type="line" smooth="yes"/>
      <point x="98" y="209"/>
      <point x="190" y="257"/>
      <point x="271" y="291" type="curve"/>
    </contour>
    <contour>
      <point x="268" y="295" type="move"/>
      <point x="178" y="268"/>
      <point x="63" y="176"/>
      <point x="63" y="70" type="curve" smooth="yes"/>
      <point x="63" y="27"/>
      <point x="82" y="-3"/>
      <point x="130" y="-3" type="curve" smooth="yes"/>
      <point x="178" y="-3"/>
      <point x="229" y="27"/>
      <point x="282" y="80" type="curve" smooth="yes"/>
      <point x="313" y="111" type="line"/>
    </contour>
    <contour>
      <point x="271" y="291" type="move"/>
      <point x="268" y="295" type="line"/>
    </contour>
    <contour>
      <point x="376" y="455" type="move"/>
      <point x="330" y="435"/>
      <point x="287" y="409"/>
      <point x="252" y="387" type="curve"/>
      <point x="222" y="404"/>
      <point x="183" y="428"/>
      <point x="146" y="457" type="curve"/>
    </contour>
  </outline>
</glyph>
<glyph name="Dcaron" format="2">
  <advance width="445"/>
  <unicode hex="010E"/>
  <anchor x="215" y="0" name="bottom"/>
  <anchor x="105" y="290" name="center"/>
  <anchor x="285" y="727" name="top"/>
  <outline>
    <contour>
      <point x="160" y="497" type="move"/>
      <point x="123" y="361"/>
      <point x="87" y="167"/>
      <point x="65" y="16" type="curve"/>
    </contour>
    <contour>
      <point x="71" y="583" type="move"/>
      <point x="270" y="536"/>
      <point x="415" y="437"/>
      <point x="415" y="310" type="curve" smooth="yes"/>
      <point x="415" y="178"/>
      <point x="261" y="22"/>
      <point x="97" y="-52" type="curve"/>
    </contour>
    <contour>
      <point x="97" y="-52" type="move"/>
      <point x="167" y="-5"/>
      <point x="230" y="25"/>
      <point x="310" y="49" type="curve"/>
    </contour>
    <contour>
      <point x="382" y="688" type="move"/>
      <point x="345" y="667"/>
      <point x="306" y="649"/>
      <point x="276" y="637" type="curve"/>
      <point x="246" y="649"/>
      <point x="207" y="667"/>
      <point x="170" y="688" type="curve"/>
    </contour>
  </outline>
</glyph>
<glyph name="dcaron" format="2">
  <advance width="467"/>
  <unicode hex="010F"/>
  <anchor x="234" y="0" name="bottom"/>
  <anchor x="350" y="520" name="center"/>
  <anchor x="411" y="580" name="top"/>
  <anchor x="531" y="640" name="topright"/>
  <outline>
    <contour identifier="ID0x1203a80b0">
      <point x="0" y="111" type="move"/>
      <point x="17" y="128" type="line" smooth="yes"/>
      <point x="57" y="168"/>
      <point x="177" y="291"/>
      <point x="288" y="358" type="curve"/>
    </contour>
    <contour>
      <point x="288" y="358" type="move"/>
      <point x="109" y="251"/>
      <point x="34" y="90"/>
      <point x="34" y="35" type="curve" smooth="yes"/>
      <point x="34" y="15"/>
      <point x="44" y="4"/>
      <point x="60" y="4" type="curve" smooth="yes"/>
      <point x="105" y="4"/>
      <point x="195" y="95"/>
      <point x="271" y="228" type="curve" smooth="yes"/>
      <point x="326" y="324"/>
      <point x="376" y="437"/>
      <point x="411" y="528" type="curve" smooth="yes"/>
      <point x="431" y="583"/>
      <point x="451" y="640"/>
      <point x="441" y="640" type="curve" smooth="yes"/>
      <point x="431" y="640"/>
      <point x="395" y="574"/>
      <point x="367" y="500" type="curve" smooth="yes"/>
      <point x="336" y="417"/>
      <point x="307" y="298"/>
      <point x="307" y="207" type="curve" smooth="yes"/>
      <point x="307" y="126"/>
      <point x="334" y="63"/>
      <point x="384" y="63" type="curve" smooth="yes"/>
      <point x="408" y="63"/>
      <point x="434" y="78"/>
      <point x="460" y="104" type="curve" smooth="yes"/>
      <point x="467" y="111" type="line"/>
    </contour>
    <contour>
      <point x="531" y="640" type="move"/>
      <point x="543" y="636"/>
      <point x="551" y="624"/>
      <point x="551" y="609" type="curve" smooth="yes"/>
      <point x="551" y="588"/>
      <point x="534" y="539"/>
      <point x="502" y="491" type="curve"/>
    </contour>
  </outline>
</glyph>
<glyph name="Emacron" format="2">
  <advance width="398"/>
  <unicode hex="0112"/>
  <anchor x="197" y="0" name="bottom"/>
  <anchor x="268" y="37" name="ogonek"/>
  <anchor x="288" y="702" name="top"/>
  <anchor x="15" y="580" name="topleft"/>
  <outline>
    <contour identifier="ID0x134886fb0">
      <point x="345" y="315" type="move"/>
      <point x="335" y="316"/>
      <point x="325" y="317"/>
      <point x="312" y="317" type="curve" smooth="yes"/>
      <point x="243" y="317"/>
      <point x="161" y="293"/>
      <point x="77" y="249" type="curve"/>
    </contour>
    <contour>
      <point x="346" y="81" type="move"/>
      <point x="285" y="37"/>
      <point x="195" y="6"/>
      <point x="103" y="6" type="curve" smooth="yes"/>
      <point x="85" y="6"/>
      <point x="67" y="7"/>
      <point x="50" y="10" type="curve"/>
    </contour>
    <contour>
      <point x="50" y="10" type="move"/>
      <point x="59" y="228"/>
      <point x="117" y="501"/>
      <point x="151" y="535" type="curve" smooth="yes"/>
      <point x="187" y="571"/>
      <point x="253" y="588"/>
      <point x="306" y="588" type="curve" smooth="yes"/>
      <point x="334" y="588"/>
      <point x="360" y="584"/>
      <point x="388" y="574" type="curve"/>
    </contour>
    <contour>
      <point x="385" y="692" type="move"/>
      <point x="325" y="681"/>
      <point x="249" y="681"/>
      <point x="190" y="692" type="curve"/>
    </contour>
  </outline>
</glyph>
<glyph name="edotaccent" format="2">
  <advance width="281"/>
  <unicode hex="0117"/>
  <anchor x="108" y="11" name="bottom"/>
  <anchor x="134" y="12" name="ogonek"/>
  <anchor x="182" y="517" name="top"/>
  <outline>
    <contour identifier="ID0x1203a1740">
      <point x="0" y="111" type="move"/>
      <point x="31" y="142" type="line"/>
      <point x="148" y="199"/>
      <point x="203" y="272"/>
      <point x="203" y="307" type="curve" smooth="yes"/>
      <point x="203" y="321"/>
      <point x="194" y="330"/>
      <point x="180" y="330" type="curve" smooth="yes"/>
      <point x="131" y="330"/>
      <point x="28" y="220"/>
      <point x="28" y="109" type="curve" smooth="yes"/>
      <point x="28" y="55"/>
      <point x="54" y="11"/>
      <point x="108" y="11" type="curve" smooth="yes"/>
      <point x="150" y="11"/>
      <point x="207" y="37"/>
      <point x="270" y="100" type="curve" smooth="yes"/>
      <point x="281" y="111" type="line"/>
    </contour>
    <contour>
      <point x="161" y="402" type="move"/>
      <point x="175" y="436"/>
      <point x="191" y="480"/>
      <point x="203" y="517" type="curve"/>
    </contour>
  </outline>
</glyph>
<glyph name="Eogonek" format="2">
  <advance width="398"/>
  <unicode hex="0118"/>
  <anchor x="197" y="0" name="bottom"/>
  <anchor x="268" y="37" name="ogonek"/>
  <anchor x="288" y="565" name="top"/>
  <anchor x="15" y="580" name="topleft"/>
  <outline>
    <contour identifier="ID0x102ab2350">
      <point x="345" y="315" type="move"/>
      <point x="335" y="316"/>
      <point x="325" y="317"/>
      <point x="312" y="317" type="curve" smooth="yes"/>
      <point x="243" y="317"/>
      <point x="161" y="293"/>
      <point x="77" y="249" type="curve"/>
    </contour>
    <contour>
      <point x="346" y="81" type="move"/>
      <point x="285" y="37"/>
      <point x="195" y="6"/>
      <point x="103" y="6" type="curve" smooth="yes"/>
      <point x="85" y="6"/>
      <point x="67" y="7"/>
      <point x="50" y="10" type="curve"/>
    </contour>
    <contour>
      <point x="50" y="10" type="move"/>
      <point x="59" y="228"/>
      <point x="117" y="501"/>
      <point x="151" y="535" type="curve" smooth="yes"/>
      <point x="187" y="571"/>
      <point x="253" y="588"/>
      <point x="306" y="588" type="curve" smooth="yes"/>
      <point x="334" y="588"/>
      <point x="360" y="584"/>
      <point x="388" y="574" type="curve"/>
    </contour>
    <contour>
      <point x="324" y="-44" type="move"/>
      <point x="302" y="-55"/>
      <point x="264" y="-70"/>
      <point x="240" y="-70" type="curve" smooth="yes"/>
      <point x="226" y="-70"/>
      <point x="216" y="-65"/>
      <point x="216" y="-52" type="curve" smooth="yes"/>
      <point x="216" y="-32"/>
      <point x="240" y="9"/>
      <point x="268" y="37" type="curve"/>
    </contour>
  </outline>
</glyph>
<glyph name="eogonek" format="2">
  <advance width="281"/>
  <unicode hex="0119"/>
  <anchor x="108" y="11" name="bottom"/>
  <anchor x="134" y="12" name="ogonek"/>
  <anchor x="187" y="300" name="top"/>
  <outline>
    <contour identifier="ID0x1203a2970">
      <point x="0" y="111" type="move"/>
      <point x="31" y="142" type="line"/>
      <point x="148" y="199"/>
      <point x="203" y="272"/>
      <point x="203" y="307" type="curve" smooth="yes"/>
      <point x="203" y="321"/>
      <point x="194" y="330"/>
      <point x="180" y="330" type="curve" smooth="yes"/>
      <point x="131" y="330"/>
      <point x="28" y="220"/>
      <point x="28" y="109" type="curve" smooth="yes"/>
      <point x="28" y="55"/>
      <point x="54" y="11"/>
      <point x="108" y="11" type="curve" smooth="yes"/>
      <point x="150" y="11"/>
      <point x="207" y="37"/>
      <point x="270" y="100" type="curve" smooth="yes"/>
      <point x="281" y="111" type="line"/>
    </contour>
    <contour>
      <point x="190" y="-69" type="move"/>
      <point x="168" y="-80"/>
      <point x="130" y="-95"/>
      <point x="106" y="-95" type="curve" smooth="yes"/>
      <point x="92" y="-95"/>
      <point x="82" y="-90"/>
      <point x="82" y="-77" type="curve" smooth="yes"/>
      <point x="82" y="-57"/>
      <point x="106" y="-16"/>
      <point x="134" y="12" type="curve"/>
    </contour>
  </outline>
</glyph>
<glyph name="Ecaron" format="2">
  <advance width="398"/>
  <unicode hex="011A"/>
  <anchor x="197" y="0" name="bottom"/>
  <anchor x="268" y="37" name="ogonek"/>
  <anchor x="288" y="752" name="top"/>
  <anchor x="15" y="580" name="topleft"/>
  <outline>
    <contour identifier="ID0x102aab270">
      <point x="345" y="315" type="move"/>
      <point x="335" y="316"/>
      <point x="325" y="317"/>
      <point x="312" y="317" type="curve" smooth="yes"/>
      <point x="243" y="317"/>
      <point x="161" y="293"/>
      <point x="77" y="249" type="curve"/>
    </contour>
    <contour>
      <point x="346" y="81" type="move"/>
      <point x="285" y="37"/>
      <point x="195" y="6"/>
      <point x="103" y="6" type="curve" smooth="yes"/>
      <point x="85" y="6"/>
      <point x="67" y="7"/>
      <point x="50" y="10" type="curve"/>
    </contour>
    <contour>
      <point x="50" y="10" type="move"/>
      <point x="59" y="228"/>
      <point x="117" y="501"/>
      <point x="151" y="535" type="curve" smooth="yes"/>
      <point x="187" y="571"/>
      <point x="253" y="588"/>
      <point x="306" y="588" type="curve" smooth="yes"/>
      <point x="334" y="588"/>
      <point x="360" y="584"/>
      <point x="388" y="574" type="curve"/>
    </contour>
    <contour>
      <point x="385" y="713" type="move"/>
      <point x="348" y="692"/>
      <point x="309" y="674"/>
      <point x="279" y="662" type="curve"/>
      <point x="249" y="674"/>
      <point x="210" y="692"/>
      <point x="173" y="713" type="curve"/>
    </contour>
  </outline>
</glyph>
<glyph name="ecaron" format="2">
  <advance width="281"/>
  <unicode hex="011B"/>
  <anchor x="108" y="11" name="bottom"/>
  <anchor x="134" y="12" name="ogonek"/>
  <anchor x="187" y="532" name="top"/>
  <outline>
    <contour identifier="ID0x1203a0510">
      <point x="0" y="111" type="move"/>
      <point x="31" y="142" type="line"/>
      <point x="148" y="199"/>
      <point x="203" y="272"/>
      <point x="203" y="307" type="curve" smooth="yes"/>
      <point x="203" y="321"/>
      <point x="194" y="330"/>
      <point x="180" y="330" type="curve" smooth="yes"/>
      <point x="131" y="330"/>
      <point x="28" y="220"/>
      <point x="28" y="109" type="curve" smooth="yes"/>
      <point x="28" y="55"/>
      <point x="54" y="11"/>
      <point x="108" y="11" type="curve" smooth="yes"/>
      <point x="150" y="11"/>
      <point x="207" y="37"/>
      <point x="270" y="100" type="curve" smooth="yes"/>
      <point x="281" y="111" type="line"/>
    </contour>
    <contour>
      <point x="294" y="485" type="move"/>
      <point x="248" y="465"/>
      <point x="205" y="439"/>
      <point x="170" y="417" type="curve"/>
      <point x="140" y="434"/>
      <point x="101" y="458"/>
      <point x="64" y="487" type="curve"/>
    </contour>
  </outline>
</glyph>
<glyph name="gcircumflex" format="2">
  <advance width="314"/>
  <unicode hex="011D"/>
  <anchor x="82" y="-315" name="bottom"/>
  <anchor x="286" y="557" name="top"/>
  <outline>
    <contour>
      <point x="0" y="111" type="move"/>
      <point x="5" y="116" type="line" smooth="yes"/>
      <point x="137" y="248"/>
      <point x="195" y="295"/>
      <point x="276" y="355" type="curve"/>
    </contour>
    <contour>
      <point x="273" y="359" type="move"/>
      <point x="208" y="333"/>
      <point x="86" y="253"/>
      <point x="86" y="150" type="curve" smooth="yes"/>
      <point x="86" y="22"/>
      <point x="247" y="-41"/>
      <point x="247" y="-128" type="curve" smooth="yes"/>
      <point x="247" y="-202"/>
      <point x="114" y="-315"/>
      <point x="42" y="-315" type="curve" smooth="yes"/>
      <point x="17" y="-315"/>
      <point x="3" y="-301"/>
      <point x="3" y="-278" type="curve" smooth="yes"/>
      <point x="3" y="-195"/>
      <point x="184" y="-19"/>
      <point x="307" y="104" type="curve" smooth="yes"/>
      <point x="314" y="111" type="line"/>
    </contour>
    <contour>
      <point x="276" y="355" type="move"/>
      <point x="273" y="359" type="line"/>
    </contour>
    <contour>
      <point x="170" y="447" type="move"/>
      <point x="207" y="476"/>
      <point x="246" y="500"/>
      <point x="276" y="517" type="curve"/>
      <point x="311" y="495"/>
      <point x="354" y="469"/>
      <point x="400" y="449" type="curve" smooth="yes"/>
    </contour>
  </outline>
</glyph>
<glyph name="Gbreve" format="2">
  <advance width="462"/>
  <unicode hex="011E"/>
  <anchor x="176" y="-40" name="bottom"/>
  <anchor x="334" y="724" name="top"/>
  <outline>
    <contour>
      <point x="432" y="414" type="move"/>
      <point x="434" y="529"/>
      <point x="384" y="575"/>
      <point x="324" y="575" type="curve" smooth="yes"/>
      <point x="196" y="575"/>
      <point x="45" y="363"/>
      <point x="45" y="168" type="curve" smooth="yes"/>
      <point x="45" y="63"/>
      <point x="90" y="-3"/>
      <point x="158" y="-3" type="curve" smooth="yes"/>
      <point x="229" y="-3"/>
      <point x="317" y="68"/>
      <point x="387" y="174" type="curve"/>
      <point x="392" y="172" type="line"/>
      <point x="384" y="99"/>
      <point x="362" y="-26"/>
      <point x="335" y="-142" type="curve" smooth="yes"/>
    </contour>
    <contour>
      <point x="246" y="708" type="move"/>
      <point x="256" y="668"/>
      <point x="285" y="644"/>
      <point x="329" y="644" type="curve" smooth="yes"/>
      <point x="371" y="644"/>
      <point x="414" y="666"/>
      <point x="422" y="714" type="curve" smooth="yes"/>
    </contour>
  </outline>
</glyph>
<glyph name="gbreve" format="2">
  <advance width="314"/>
  <unicode hex="011F"/>
  <anchor x="82" y="-315" name="bottom"/>
  <anchor x="286" y="554" name="top"/>
  <outline>
    <contour>
      <point x="0" y="111" type="move"/>
      <point x="5" y="116" type="line" smooth="yes"/>
      <point x="137" y="248"/>
      <point x="195" y="295"/>
      <point x="276" y="355" type="curve"/>
    </contour>
    <contour>
      <point x="273" y="359" type="move"/>
      <point x="208" y="333"/>
      <point x="86" y="253"/>
      <point x="86" y="150" type="curve" smooth="yes"/>
      <point x="86" y="22"/>
      <point x="247" y="-41"/>
      <point x="247" y="-128" type="curve" smooth="yes"/>
      <point x="247" y="-202"/>
      <point x="114" y="-315"/>
      <point x="42" y="-315" type="curve" smooth="yes"/>
      <point x="17" y="-315"/>
      <point x="3" y="-301"/>
      <point x="3" y="-278" type="curve" smooth="yes"/>
      <point x="3" y="-195"/>
      <point x="184" y="-19"/>
      <point x="307" y="104" type="curve" smooth="yes"/>
      <point x="314" y="111" type="line"/>
    </contour>
    <contour>
      <point x="276" y="355" type="move"/>
      <point x="273" y="359" type="line"/>
    </contour>
    <contour>
      <point x="201" y="524" type="move"/>
      <point x="212" y="482"/>
      <point x="242" y="456"/>
      <point x="289" y="456" type="curve" smooth="yes"/>
      <point x="334" y="456"/>
      <point x="380" y="480"/>
      <point x="388" y="531" type="curve" smooth="yes"/>
    </contour>
  </outline>
</glyph>
<glyph name="gdotaccent" format="2">
  <advance width="314"/>
  <unicode hex="0121"/>
  <anchor x="82" y="-315" name="bottom"/>
  <anchor x="281" y="542" name="top"/>
  <outline>
    <contour>
      <point x="0" y="111" type="move"/>
      <point x="5" y="116" type="line" smooth="yes"/>
      <point x="137" y="248"/>
      <point x="195" y="295"/>
      <point x="276" y="355" type="curve"/>
    </contour>
    <contour>
      <point x="273" y="359" type="move"/>
      <point x="208" y="333"/>
      <point x="86" y="253"/>
      <point x="86" y="150" type="curve" smooth="yes"/>
      <point x="86" y="22"/>
      <point x="247" y="-41"/>
      <point x="247" y="-128" type="curve" smooth="yes"/>
      <point x="247" y="-202"/>
      <point x="114" y="-315"/>
      <point x="42" y="-315" type="curve" smooth="yes"/>
      <point x="17" y="-315"/>
      <point x="3" y="-301"/>
      <point x="3" y="-278" type="curve" smooth="yes"/>
      <point x="3" y="-195"/>
      <point x="184" y="-19"/>
      <point x="307" y="104" type="curve" smooth="yes"/>
      <point x="314" y="111" type="line"/>
    </contour>
    <contour>
      <point x="276" y="355" type="move"/>
      <point x="273" y="359" type="line"/>
    </contour>
    <contour>
      <point x="260" y="427" type="move"/>
      <point x="274" y="461"/>
      <point x="290" y="505"/>
      <point x="302" y="542" type="curve"/>
    </contour>
  </outline>
</glyph>
<glyph name="uni0122" format="2">
  <advance width="462"/>
  <unicode hex="0122"/>
  <anchor x="176" y="-331" name="bottom"/>
  <anchor x="334" y="548" name="top"/>
  <outline>
    <contour>
      <point x="432" y="414" type="move"/>
      <point x="434" y="529"/>
      <point x="384" y="575"/>
      <point x="324" y="575" type="curve" smooth="yes"/>
      <point x="196" y="575"/>
      <point x="45" y="363"/>
      <point x="45" y="168" type="curve" smooth="yes"/>
      <point x="45" y="63"/>
      <point x="90" y="-3"/>
      <point x="158" y="-3" type="curve" smooth="yes"/>
      <point x="229" y="-3"/>
      <point x="317" y="68"/>
      <point x="387" y="174" type="curve"/>
      <point x="392" y="172" type="line"/>
      <point x="384" y="99"/>
      <point x="362" y="-26"/>
      <point x="335" y="-142" type="curve" smooth="yes"/>
    </contour>
    <contour>
      <point x="182" y="-116" type="move"/>
      <point x="197" y="-122"/>
      <point x="208" y="-139"/>
      <point x="208" y="-160" type="curve" smooth="yes"/>
      <point x="208" y="-191"/>
      <point x="184" y="-261"/>
      <point x="140" y="-331" type="curve"/>
    </contour>
  </outline>
</glyph>
<glyph name="uni0123" format="2">
  <advance width="314"/>
  <unicode hex="0123"/>
  <anchor x="82" y="-315" name="bottom"/>
  <anchor x="286" y="657" name="top"/>
  <outline>
    <contour>
      <point x="0" y="111" type="move"/>
      <point x="5" y="116" type="line" smooth="yes"/>
      <point x="137" y="248"/>
      <point x="195" y="295"/>
      <point x="276" y="355" type="curve"/>
    </contour>
    <contour>
      <point x="273" y="359" type="move"/>
      <point x="208" y="333"/>
      <point x="86" y="253"/>
      <point x="86" y="150" type="curve" smooth="yes"/>
      <point x="86" y="22"/>
      <point x="247" y="-41"/>
      <point x="247" y="-128" type="curve" smooth="yes"/>
      <point x="247" y="-202"/>
      <point x="114" y="-315"/>
      <point x="42" y="-315" type="curve" smooth="yes"/>
      <point x="17" y="-315"/>
      <point x="3" y="-301"/>
      <point x="3" y="-278" type="curve" smooth="yes"/>
      <point x="3" y="-195"/>
      <point x="184" y="-19"/>
      <point x="307" y="104" type="curve" smooth="yes"/>
      <point x="314" y="111" type="line"/>
    </contour>
    <contour>
      <point x="276" y="355" type="move"/>
      <point x="273" y="359" type="line"/>
    </contour>
    <contour>
      <point x="279" y="442" type="move"/>
      <point x="264" y="448"/>
      <point x="253" y="465"/>
      <point x="253" y="486" type="curve" smooth="yes"/>
      <point x="253" y="517"/>
      <point x="277" y="587"/>
      <point x="321" y="657" type="curve"/>
    </contour>
  </outline>
</glyph>
<glyph name="hcircumflex" format="2">
  <advance width="377"/>
  <unicode hex="0125"/>
  <anchor x="194" y="0" name="bottom"/>
  <anchor x="150" y="366" name="center"/>
  <anchor x="339" y="823" name="top"/>
  <outline>
    <contour>
      <point x="0" y="111" type="move"/>
      <point x="32" y="143" type="line" smooth="yes"/>
      <point x="201" y="312"/>
      <point x="332" y="539"/>
      <point x="332" y="623" type="curve" smooth="yes"/>
      <point x="332" y="635"/>
      <point x="329" y="641"/>
      <point x="319" y="641" type="curve" smooth="yes"/>
      <point x="237" y="641"/>
      <point x="49" y="229"/>
      <point x="49" y="21" type="curve" smooth="yes"/>
      <point x="49" y="-5"/>
      <point x="52" y="-26"/>
      <point x="63" y="-26" type="curve" smooth="yes"/>
      <point x="93" y="-26"/>
      <point x="188" y="187"/>
      <point x="217" y="187" type="curve" smooth="yes"/>
      <point x="240" y="187"/>
      <point x="259" y="56"/>
      <point x="300" y="56" type="curve" smooth="yes"/>
      <point x="316" y="56"/>
      <point x="342" y="76"/>
      <point x="362" y="96" type="curve" smooth="yes"/>
      <point x="377" y="111" type="line"/>
    </contour>
    <contour>
      <point x="233" y="752" type="move"/>
      <point x="270" y="773"/>
      <point x="309" y="791"/>
      <point x="339" y="803" type="curve"/>
      <point x="369" y="791"/>
      <point x="408" y="773"/>
      <point x="445" y="752" type="curve"/>
    </contour>
  </outline>
</glyph>
<glyph name="Hbar" format="2">
  <advance width="596"/>
  <unicode hex="0126"/>
  <anchor x="280" y="0" name="bottom"/>
  <anchor x="280" y="437" name="center"/>
  <anchor x="330" y="550" name="top"/>
  <anchor x="32" y="580" name="topleft"/>
  <outline>
    <contour>
      <point x="164" y="582" type="move"/>
      <point x="133" y="435"/>
      <point x="113" y="169"/>
      <point x="113" y="51" type="curve" smooth="yes"/>
      <point x="113" y="18"/>
      <point x="119" y="-2"/>
      <point x="129" y="-2" type="curve" smooth="yes"/>
      <point x="137" y="-2"/>
      <point x="149" y="8"/>
      <point x="165" y="32" type="curve"/>
    </contour>
    <contour>
      <point x="72" y="223" type="move"/>
      <point x="157" y="253"/>
      <point x="278" y="276"/>
      <point x="450" y="285" type="curve"/>
    </contour>
    <contour>
      <point x="479" y="582" type="move"/>
      <point x="488" y="568"/>
      <point x="492" y="549"/>
      <point x="492" y="527" type="curve" smooth="yes"/>
      <point x="492" y="438"/>
      <point x="422" y="129"/>
      <point x="363" y="-82" type="curve"/>
    </contour>
    <contour>
      <point x="40" y="354" type="move"/>
      <point x="187" y="405"/>
      <point x="389" y="435"/>
      <point x="566" y="435" type="curve"/>
    </contour>
  </outline>
</glyph>
<glyph name="Itilde" format="2">
  <advance width="218"/>
  <unicode hex="0128"/>
  <anchor x="109" y="0" name="bottom"/>
  <anchor x="112" y="-4" name="ogonek"/>
  <anchor x="192" y="745" name="top"/>
  <anchor x="86" y="580" name="topleft"/>
  <outline>
    <contour>
      <point x="114" y="390" type="move"/>
      <point x="129" y="465"/>
      <point x="139" y="508"/>
      <point x="158" y="575" type="curve"/>
      <point x="163" y="576" type="line"/>
      <point x="124" y="379"/>
      <point x="95" y="165"/>
      <point x="95" y="47" type="curve" smooth="yes"/>
      <point x="95" y="30"/>
      <point x="100" y="9"/>
      <point x="112" y="-4" type="curve"/>
    </contour>
    <contour>
      <point x="62" y="692" type="move"/>
      <point x="104" y="717"/>
      <point x="161" y="745"/>
      <point x="184" y="745" type="curve" smooth="yes"/>
      <point x="218" y="745"/>
      <point x="193" y="683"/>
      <point x="219" y="683" type="curve" smooth="yes"/>
      <point x="232" y="683"/>
      <point x="281" y="699"/>
      <point x="321" y="722" type="curve" smooth="yes"/>
    </contour>
  </outline>
</glyph>
<glyph name="itilde" format="2">
  <advance width="286"/>
  <unicode hex="0129"/>
  <anchor x="127" y="0" name="bottom"/>
  <anchor x="188" y="40" name="ogonek"/>
  <anchor x="149" y="455" name="top"/>
  <outline>
    <contour>
      <point x="0" y="111" type="move"/>
      <point x="8" y="119" type="line" smooth="yes"/>
      <point x="37" y="147"/>
      <point x="74" y="191"/>
      <point x="106" y="231" type="curve"/>
    </contour>
    <contour>
      <point x="106" y="231" type="move"/>
      <point x="108" y="231" type="line"/>
    </contour>
    <contour>
      <point x="108" y="231" type="move"/>
      <point x="114" y="173"/>
      <point x="127" y="40"/>
      <point x="185" y="40" type="curve" smooth="yes"/>
      <point x="208" y="40"/>
      <point x="236" y="61"/>
      <point x="263" y="88" type="curve" smooth="yes"/>
      <point x="286" y="111" type="line"/>
    </contour>
    <contour>
      <point x="-1" y="396" type="move"/>
      <point x="46" y="419"/>
      <point x="111" y="445"/>
      <point x="157" y="445" type="curve" smooth="yes"/>
      <point x="193" y="445"/>
      <point x="201" y="429"/>
      <point x="201" y="409" type="curve" smooth="yes"/>
      <point x="201" y="393"/>
      <point x="196" y="374"/>
      <point x="196" y="364" type="curve" smooth="yes"/>
      <point x="196" y="354"/>
      <point x="201" y="348"/>
      <point x="212" y="348" type="curve" smooth="yes"/>
      <point x="232" y="348"/>
      <point x="270" y="367"/>
      <point x="299" y="395" type="curve" smooth="yes"/>
    </contour>
  </outline>
</glyph>
<glyph name="Imacron" format="2">
  <advance width="218"/>
  <unicode hex="012A"/>
  <anchor x="109" y="0" name="bottom"/>
  <anchor x="112" y="-4" name="ogonek"/>
  <anchor x="192" y="717" name="top"/>
  <anchor x="86" y="580" name="topleft"/>
  <outline>
    <contour>
      <point x="114" y="390" type="move"/>
      <point x="129" y="465"/>
      <point x="139" y="508"/>
      <point x="158" y="575" type="curve"/>
      <point x="163" y="576" type="line"/>
      <point x="124" y="379"/>
      <point x="95" y="165"/>
      <point x="95" y="47" type="curve" smooth="yes"/>
      <point x="95" y="30"/>
      <point x="100" y="9"/>
      <point x="112" y="-4" type="curve"/>
    </contour>
    <contour>
      <point x="289" y="707" type="move"/>
      <point x="229" y="696"/>
      <point x="153" y="696"/>
      <point x="94" y="707" type="curve"/>
    </contour>
  </outline>
</glyph>
<glyph name="IJ" format="2">
  <advance width="518"/>
  <unicode hex="0132"/>
  <anchor x="109" y="0" name="bottom"/>
  <anchor x="112" y="-4" name="ogonek"/>
  <anchor x="192" y="580" name="top"/>
  <anchor x="86" y="580" name="topleft"/>
  <outline>
    <contour>
      <point x="114" y="390" type="move"/>
      <point x="129" y="465"/>
      <point x="139" y="508"/>
      <point x="158" y="575" type="curve"/>
      <point x="163" y="576" type="line"/>
      <point x="124" y="379"/>
      <point x="95" y="165"/>
      <point x="95" y="47" type="curve" smooth="yes"/>
      <point x="95" y="30"/>
      <point x="100" y="9"/>
      <point x="112" y="-4" type="curve"/>
    </contour>
    <contour>
      <point x="397" y="552" type="move"/>
      <point x="414" y="559"/>
      <point x="435" y="565"/>
      <point x="449" y="565" type="curve" smooth="yes"/>
      <point x="471" y="565"/>
      <point x="478" y="551"/>
      <point x="478" y="515" type="curve" smooth="yes"/>
      <point x="478" y="384"/>
      <point x="408" y="62"/>
      <point x="350" y="4" type="curve" smooth="yes"/>
      <point x="343" y="-3"/>
      <point x="335" y="-9"/>
      <point x="325" y="-9" type="curve" smooth="yes"/>
      <point x="280" y="-9"/>
      <point x="246" y="124"/>
      <point x="233" y="223" type="curve"/>
      <point x="237" y="224" type="line"/>
      <point x="271" y="113" type="line"/>
    </contour>
  </outline>
</glyph>
<glyph name="ij" format="2">
  <advance width="574"/>
  <unicode hex="0133"/>
  <outline>
    <contour>
      <point x="146" y="362" type="move"/>
      <point x="164" y="403"/>
      <point x="185" y="459"/>
      <point x="197" y="503" type="curve"/>
    </contour>
    <contour>
      <point x="0" y="111" type="move"/>
      <point x="8" y="119" type="line" smooth="yes"/>
      <point x="37" y="147"/>
      <point x="74" y="191"/>
      <point x="106" y="231" type="curve"/>
      <point x="108" y="231" type="line"/>
      <point x="114" y="173"/>
      <point x="127" y="40"/>
      <point x="185" y="40" type="curve" smooth="yes"/>
      <point x="205" y="40"/>
      <point x="250" y="76"/>
      <point x="305" y="133" type="curve" smooth="yes"/>
      <point x="355" y="184"/>
      <point x="413" y="253"/>
      <point x="468" y="327" type="curve"/>
      <point x="471" y="326" type="line"/>
      <point x="443" y="100"/>
      <point x="375" y="-337"/>
      <point x="286" y="-337" type="curve" smooth="yes"/>
      <point x="268" y="-337"/>
      <point x="266" y="-319"/>
      <point x="266" y="-305" type="curve" smooth="yes"/>
      <point x="266" y="-224"/>
      <point x="338" y="-125"/>
      <point x="488" y="25" type="curve" smooth="yes"/>
      <point x="574" y="111" type="line"/>
    </contour>
    <contour>
      <point x="498" y="474" type="move"/>
      <point x="512" y="518"/>
      <point x="525" y="572"/>
      <point x="534" y="617" type="curve"/>
    </contour>
  </outline>
</glyph>
<glyph name="Jcircumflex" format="2">
  <advance width="315"/>
  <unicode hex="0134"/>
  <anchor x="158" y="0" name="bottom"/>
  <anchor x="268" y="733" name="top"/>
  <outline>
    <contour>
      <point x="224" y="560" type="move"/>
      <point x="232" y="563"/>
      <point x="239" y="565"/>
      <point x="247" y="565" type="curve" smooth="yes"/>
      <point x="268" y="565"/>
      <point x="275" y="551"/>
      <point x="275" y="515" type="curve" smooth="yes"/>
      <point x="275" y="384"/>
      <point x="205" y="62"/>
      <point x="147" y="4" type="curve" smooth="yes"/>
      <point x="140" y="-3"/>
      <point x="132" y="-9"/>
      <point x="122" y="-9" type="curve" smooth="yes"/>
      <point x="77" y="-9"/>
      <point x="43" y="124"/>
      <point x="30" y="223" type="curve"/>
      <point x="34" y="224" type="line"/>
      <point x="68" y="113" type="line"/>
    </contour>
    <contour>
      <point x="162" y="662" type="move"/>
      <point x="199" y="683"/>
      <point x="238" y="701"/>
      <point x="268" y="713" type="curve"/>
      <point x="298" y="701"/>
      <point x="337" y="683"/>
      <point x="374" y="662" type="curve"/>
    </contour>
  </outline>
</glyph>
<glyph name="jcircumflex" format="2">
  <advance width="308"/>
  <unicode hex="0135"/>
  <anchor x="154" y="-350" name="bottom"/>
  <anchor x="231" y="559" name="top"/>
  <outline>
    <contour>
      <point x="0" y="111" type="move"/>
      <point x="35" y="146" type="line" smooth="yes"/>
      <point x="94" y="205"/>
      <point x="149" y="265"/>
      <point x="202" y="327" type="curve"/>
      <point x="205" y="326" type="line"/>
      <point x="177" y="100"/>
      <point x="109" y="-337"/>
      <point x="20" y="-337" type="curve" smooth="yes"/>
      <point x="2" y="-337"/>
      <point x="0" y="-319"/>
      <point x="0" y="-305" type="curve" smooth="yes"/>
      <point x="0" y="-224"/>
      <point x="72" y="-125"/>
      <point x="222" y="25" type="curve" smooth="yes"/>
      <point x="308" y="111" type="line"/>
    </contour>
    <contour>
      <point x="115" y="449" type="move"/>
      <point x="152" y="478"/>
      <point x="191" y="502"/>
      <point x="221" y="519" type="curve"/>
      <point x="256" y="497"/>
      <point x="299" y="471"/>
      <point x="345" y="451" type="curve" smooth="yes"/>
    </contour>
  </outline>
</glyph>
<glyph name="uni0136" format="2">
  <advance width="458"/>
  <unicode hex="0136"/>
  <anchor x="169" y="-271" name="bottom"/>
  <anchor x="277" y="570" name="top"/>
  <outline>
    <contour>
      <point x="70" y="19" type="move"/>
      <point x="83" y="199"/>
      <point x="109" y="387"/>
      <point x="146" y="562" type="curve"/>
    </contour>
    <contour>
      <point x="376" y="605" type="move"/>
      <point x="379" y="606"/>
      <point x="384" y="607"/>
      <point x="388" y="607" type="curve" smooth="yes"/>
      <point x="406" y="608"/>
      <point x="412" y="597"/>
      <point x="412" y="585" type="curve" smooth="yes"/>
      <point x="412" y="548"/>
      <point x="359" y="477"/>
      <point x="323" y="436" type="curve" smooth="yes"/>
      <point x="272" y="377"/>
      <point x="223" y="329"/>
      <point x="150" y="271" type="curve"/>
      <point x="177" y="217"/>
      <point x="282" y="28"/>
      <point x="346" y="28" type="curve" smooth="yes"/>
      <point x="373" y="28"/>
      <point x="409" y="62"/>
      <point x="453" y="106" type="curve" smooth="yes"/>
      <point x="458" y="111" type="line"/>
    </contour>
    <contour>
      <point x="175" y="-56" type="move"/>
      <point x="190" y="-62"/>
      <point x="201" y="-79"/>
      <point x="201" y="-100" type="curve" smooth="yes"/>
      <point x="201" y="-131"/>
      <point x="177" y="-201"/>
      <point x="133" y="-271" type="curve"/>
    </contour>
  </outline>
</glyph>
<glyph name="uni0137" format="2">
  <advance width="403"/>
  <unicode hex="0137"/>
  <anchor x="206" y="-271" name="bottom"/>
  <anchor x="282" y="580" name="top"/>
  <outline>
    <contour identifier="ID0x1203a8f70">
      <point x="216" y="171" type="move"/>
      <point x="243" y="115"/>
      <point x="286" y="56"/>
      <point x="324" y="56" type="curve" smooth="yes"/>
      <point x="342" y="56"/>
      <point x="361" y="69"/>
      <point x="386" y="94" type="curve" smooth="yes"/>
      <point x="403" y="111" type="line"/>
    </contour>
    <contour>
      <point x="0" y="111" type="move"/>
      <point x="14" y="125" type="line" smooth="yes"/>
      <point x="164" y="275"/>
      <point x="235" y="496"/>
      <point x="250" y="567" type="curve" smooth="yes"/>
      <point x="253" y="581"/>
      <point x="253" y="590"/>
      <point x="250" y="590" type="curve" smooth="yes"/>
      <point x="248" y="590"/>
      <point x="245" y="585"/>
      <point x="238" y="567" type="curve" smooth="yes"/>
      <point x="206" y="492"/>
      <point x="138" y="265"/>
      <point x="98" y="109" type="curve" smooth="yes"/>
      <point x="85" y="57"/>
      <point x="78" y="13"/>
      <point x="78" y="-11" type="curve" smooth="yes"/>
      <point x="78" y="-27"/>
      <point x="81" y="-34"/>
      <point x="87" y="-34" type="curve" smooth="yes"/>
      <point x="123" y="-34"/>
      <point x="278" y="218"/>
      <point x="344" y="357" type="curve"/>
    </contour>
    <contour>
      <point x="212" y="-56" type="move"/>
      <point x="227" y="-62"/>
      <point x="238" y="-79"/>
      <point x="238" y="-100" type="curve" smooth="yes"/>
      <point x="238" y="-131"/>
      <point x="214" y="-201"/>
      <point x="170" y="-271" type="curve"/>
    </contour>
  </outline>
</glyph>
<glyph name="lacute" format="2">
  <advance width="283"/>
  <unicode hex="013A"/>
  <anchor x="125" y="28" name="bottom"/>
  <anchor x="142" y="150" name="center"/>
  <anchor x="299" y="855" name="top"/>
  <anchor x="353" y="610" name="topright"/>
  <outline>
    <contour>
      <point x="0" y="111" type="move"/>
      <point x="12" y="123" type="line" smooth="yes"/>
      <point x="194" y="305"/>
      <point x="273" y="504"/>
      <point x="273" y="587" type="curve" smooth="yes"/>
      <point x="273" y="606"/>
      <point x="269" y="620"/>
      <point x="258" y="620" type="curve" smooth="yes"/>
      <point x="203" y="620"/>
      <point x="94" y="277"/>
      <point x="94" y="127" type="curve" smooth="yes"/>
      <point x="94" y="81"/>
      <point x="104" y="28"/>
      <point x="151" y="28" type="curve" smooth="yes"/>
      <point x="184" y="28"/>
      <point x="226" y="54"/>
      <point x="266" y="94" type="curve" smooth="yes"/>
      <point x="283" y="111" type="line"/>
    </contour>
    <contour>
      <point x="210" y="719" type="move"/>
      <point x="286" y="748"/>
      <point x="342" y="772"/>
      <point x="373" y="803" type="curve"/>
    </contour>
  </outline>
</glyph>
<glyph name="Lcaron" format="2">
  <advance width="319"/>
  <unicode hex="013D"/>
  <anchor x="153" y="0" name="bottom"/>
  <anchor x="168" y="350" name="center"/>
  <anchor x="204" y="561" name="top"/>
  <anchor x="286" y="580" name="topright"/>
  <outline>
    <contour>
      <point x="98" y="349" type="move"/>
      <point x="122" y="438"/>
      <point x="147" y="522"/>
      <point x="175" y="592" type="curve"/>
    </contour>
    <contour>
      <point x="175" y="592" type="move"/>
      <point x="178" y="591" type="line"/>
    </contour>
    <contour>
      <point x="178" y="591" type="move"/>
      <point x="129" y="407"/>
      <point x="70" y="120"/>
      <point x="70" y="49" type="curve" smooth="yes"/>
      <point x="70" y="9"/>
      <point x="88" y="-3"/>
      <point x="119" y="-3" type="curve" smooth="yes"/>
      <point x="169" y="-3"/>
      <point x="250" y="28"/>
      <point x="304" y="60" type="curve" smooth="yes"/>
    </contour>
    <contour>
      <point x="286" y="580" type="move"/>
      <point x="298" y="576"/>
      <point x="306" y="564"/>
      <point x="306" y="549" type="curve" smooth="yes"/>
      <point x="306" y="528"/>
      <point x="289" y="479"/>
      <point x="257" y="431" type="curve"/>
    </contour>
  </outline>
</glyph>
<glyph name="Ldot" format="2">
  <advance width="319"/>
  <unicode hex="013F"/>
  <anchor x="153" y="0" name="bottom"/>
  <anchor x="168" y="350" name="center"/>
  <anchor x="204" y="561" name="top"/>
  <anchor x="286" y="580" name="topright"/>
  <outline>
    <contour>
      <point x="98" y="349" type="move"/>
      <point x="122" y="438"/>
      <point x="147" y="522"/>
      <point x="175" y="592" type="curve"/>
    </contour>
    <contour>
      <point x="175" y="592" type="move"/>
      <point x="178" y="591" type="line"/>
    </contour>
    <contour>
      <point x="178" y="591" type="move"/>
      <point x="129" y="407"/>
      <point x="70" y="120"/>
      <point x="70" y="49" type="curve" smooth="yes"/>
      <point x="70" y="9"/>
      <point x="88" y="-3"/>
      <point x="119" y="-3" type="curve" smooth="yes"/>
      <point x="169" y="-3"/>
      <point x="250" y="28"/>
      <point x="304" y="60" type="curve" smooth="yes"/>
    </contour>
    <contour>
      <point x="232" y="306" type="move"/>
      <point x="241" y="301"/>
      <point x="244" y="293"/>
      <point x="244" y="286" type="curve" smooth="yes"/>
      <point x="244" y="263"/>
      <point x="214" y="233"/>
      <point x="195" y="216" type="curve"/>
    </contour>
  </outline>
</glyph>
<glyph name="ldot" format="2">
  <advance width="283"/>
  <unicode hex="0140"/>
  <anchor x="125" y="28" name="bottom"/>
  <anchor x="142" y="150" name="center"/>
  <anchor x="299" y="633" name="top"/>
  <anchor x="353" y="610" name="topright"/>
  <outline>
    <contour>
      <point x="0" y="111" type="move"/>
      <point x="12" y="123" type="line" smooth="yes"/>
      <point x="194" y="305"/>
      <point x="273" y="504"/>
      <point x="273" y="587" type="curve" smooth="yes"/>
      <point x="273" y="606"/>
      <point x="269" y="620"/>
      <point x="258" y="620" type="curve" smooth="yes"/>
      <point x="203" y="620"/>
      <point x="94" y="277"/>
      <point x="94" y="127" type="curve" smooth="yes"/>
      <point x="94" y="81"/>
      <point x="104" y="28"/>
      <point x="151" y="28" type="curve" smooth="yes"/>
      <point x="184" y="28"/>
      <point x="226" y="54"/>
      <point x="266" y="94" type="curve" smooth="yes"/>
      <point x="283" y="111" type="line"/>
    </contour>
    <contour>
      <point x="221" y="269" type="move"/>
      <point x="230" y="264"/>
      <point x="233" y="256"/>
      <point x="233" y="249" type="curve" smooth="yes"/>
      <point x="233" y="226"/>
      <point x="203" y="196"/>
      <point x="184" y="179" type="curve"/>
    </contour>
  </outline>
</glyph>
<glyph name="Lslash" format="2">
  <advance width="339"/>
  <unicode hex="0141"/>
  <anchor x="173" y="0" name="bottom"/>
  <anchor x="188" y="350" name="center"/>
  <anchor x="224" y="561" name="top"/>
  <anchor x="306" y="580" name="topright"/>
  <outline>
    <contour>
      <point x="30" y="198" type="move"/>
      <point x="125" y="280"/>
      <point x="208" y="347"/>
      <point x="290" y="411" type="curve"/>
    </contour>
    <contour>
      <point x="118" y="349" type="move"/>
      <point x="142" y="438"/>
      <point x="167" y="522"/>
      <point x="195" y="592" type="curve"/>
    </contour>
    <contour>
      <point x="195" y="592" type="move"/>
      <point x="198" y="591" type="line"/>
    </contour>
    <contour>
      <point x="198" y="591" type="move"/>
      <point x="149" y="407"/>
      <point x="90" y="120"/>
      <point x="90" y="49" type="curve" smooth="yes"/>
      <point x="90" y="9"/>
      <point x="108" y="-3"/>
      <point x="139" y="-3" type="curve" smooth="yes"/>
      <point x="189" y="-3"/>
      <point x="270" y="28"/>
      <point x="324" y="60" type="curve" smooth="yes"/>
    </contour>
  </outline>
</glyph>
